<svg width="28" height="28" viewBox="0 0 28 28" fill="none" xmlns="http://www.w3.org/2000/svg">
<path d="M16.7965 2.8C16.7965 1.2536 18.0499 0 19.5959 0H25.1947C26.7407 0 27.994 1.2536 27.994 2.8V8.4C27.994 9.9464 26.7407 11.2 25.1947 11.2H19.5959C18.0499 11.2 16.7965 9.9464 16.7965 8.4V2.8Z" fill="#1551E5"/>
<path d="M16.7965 19.6C16.7965 18.0536 18.0498 16.8 19.5959 16.8H25.1946C26.7407 16.8 27.994 18.0536 27.994 19.6V25.2C27.994 26.7464 26.7407 28 25.1946 28H19.5959C18.0498 28 16.7965 26.7464 16.7965 25.2V19.6Z" fill="#1551E5"/>
<path d="M0.000244141 19.6C0.000244141 18.0536 1.25357 16.8 2.79962 16.8H8.39838C9.94443 16.8 11.1978 18.0536 11.1978 19.6V25.2C11.1978 26.7464 9.94443 28 8.39838 28H2.79962C1.25357 28 0.000244141 26.7464 0.000244141 25.2V19.6Z" fill="#1551E5"/>
<path fill-rule="evenodd" clip-rule="evenodd" d="M16.7965 8.4C16.7965 9.9464 15.5432 11.2 13.9971 11.2C12.4511 11.2 11.1978 9.9464 11.1978 8.4C11.1978 9.9464 9.94445 11.2 8.39839 11.2C9.94445 11.2 11.1978 12.4536 11.1978 14C11.1978 15.5464 9.94443 16.8 8.39838 16.8L11.1978 19.6C11.1978 18.0536 12.4511 16.8 13.9971 16.8C15.5432 16.8 16.7965 18.0536 16.7965 19.6L19.5959 16.8C18.0498 16.8 16.7965 15.5464 16.7965 14C16.7965 12.4536 18.0498 11.2 19.5959 11.2L16.7965 8.4Z" fill="#1551E5"/>
<path d="M8.39839 0H2.79964C1.25358 0 0.000257809 1.2536 0.000257809 2.8V8.4C0.000257809 9.9464 1.25358 11.2 2.79964 11.2H8.39839L11.1978 8.4V2.8C11.1978 1.2536 9.94445 0 8.39839 0Z" fill="#1551E5"/>
<path d="M11.1978 8.4C11.1978 9.9464 9.94445 11.2 8.39839 11.2L11.1978 8.4Z" fill="#1551E5"/>
</svg>
