<svg width="24" height="24" viewBox="0 0 24 24" fill="none" xmlns="http://www.w3.org/2000/svg">
<mask id="mask0_2093_7843" style="mask-type:alpha" maskUnits="userSpaceOnUse" x="0" y="0" width="24" height="24">
<path fill-rule="evenodd" clip-rule="evenodd" d="M16.3818 14H8.7638L7.1268 8H19.3818L16.3818 14ZM21.0828 6.948C20.7158 6.354 20.0798 6 19.3818 6H6.5818L5.9648 3.737C5.8458 3.302 5.4508 3 4.9998 3H2.9998C2.4468 3 1.9998 3.448 1.9998 4C1.9998 4.552 2.4468 5 2.9998 5H4.2358L7.0348 15.263C7.1538 15.698 7.5488 16 7.9998 16H16.9998C17.3788 16 17.7248 15.786 17.8948 15.447L21.1708 8.894C21.4838 8.269 21.4498 7.542 21.0828 6.948ZM7.5 18C6.672 18 6 18.671 6 19.5C6 20.329 6.672 21 7.5 21C8.328 21 9 20.329 9 19.5C9 18.671 8.328 18 7.5 18ZM16 19.5C16 18.671 16.672 18 17.5 18C18.328 18 19 18.671 19 19.5C19 20.329 18.328 21 17.5 21C16.672 21 16 20.329 16 19.5Z" fill="#071435"/>
</mask>
<g mask="url(#mask0_2093_7843)">
<rect width="24" height="24" fill="white"/>
</g>
</svg>
