<svg width="25" height="24" viewBox="0 0 25 24" fill="none" xmlns="http://www.w3.org/2000/svg">
<path fill-rule="evenodd" clip-rule="evenodd" d="M16.8818 14H9.2638L7.6268 8H19.8818L16.8818 14ZM21.5828 6.948C21.2158 6.354 20.5798 6 19.8818 6H7.0818L6.4648 3.737C6.3458 3.302 5.9508 3 5.4998 3H3.4998C2.9468 3 2.4998 3.448 2.4998 4C2.4998 4.552 2.9468 5 3.4998 5H4.7358L7.5348 15.263C7.6538 15.698 8.0488 16 8.4998 16H17.4998C17.8788 16 18.2248 15.786 18.3948 15.447L21.6708 8.894C21.9838 8.269 21.9498 7.542 21.5828 6.948ZM8 18C7.172 18 6.5 18.671 6.5 19.5C6.5 20.329 7.172 21 8 21C8.828 21 9.5 20.329 9.5 19.5C9.5 18.671 8.828 18 8 18ZM16.5 19.5C16.5 18.671 17.172 18 18 18C18.828 18 19.5 18.671 19.5 19.5C19.5 20.329 18.828 21 18 21C17.172 21 16.5 20.329 16.5 19.5Z" fill="#071435"/>
</svg>
