<?xml version="1.0" standalone="no"?>
<!DOCTYPE svg PUBLIC "-//W3C//DTD SVG 1.1//EN" "http://www.w3.org/Graphics/SVG/1.1/DTD/svg11.dtd" >
<svg xmlns="http://www.w3.org/2000/svg" xmlns:xlink="http://www.w3.org/1999/xlink" version="1.1">
<metadata>
Created by FontForge 20190801 at Sun Sep 23 12:02:43 2018
 By root
This software is the property of Hoefler &#38; Co. You may not copy, modify, distribute, or download this software, or install it upon any computer, or host it from any location. Your right to use this software is subject to the Terms of Service agreement that exists between you and Hoefler &#38; Co. If no such agreement exists, you may not use this software for any purpose. For more information, please visit http://www.typography.com/webfont-software, or contact Hoefler &#38; Co. at www.typography.com
</metadata>
<defs>
<font id="Gotham-Medium" horiz-adv-x="400" >
  <font-face 
    font-family="Gotham Medium"
    font-weight="500"
    font-stretch="normal"
    units-per-em="1000"
    panose-1="0 0 0 0 0 0 0 0 0 0"
    ascent="800"
    descent="-200"
    x-height="528"
    cap-height="700"
    bbox="-223 -274 1180 1008"
    underline-thickness="50"
    underline-position="-100"
    unicode-range="U+0020-FB04"
  />
<missing-glyph horiz-adv-x="500" 
d="M0 -200v1000h500v-1000h-500zM71 750l179 -390l179 390h-358zM50 -76l172 376l-172 376v-752zM450 676l-172 -376l172 -376v752zM250 240l-179 -390h358z" />
    <glyph glyph-name="f_f" unicode="ff" horiz-adv-x="752" 
d="M103 0v424h-67v101h67v39c0 58 14 101 43 130c28 28 67 42 118 42c43 0 72 -6 99 -14v-102c-24 8 -44 13 -71 13c-47 0 -70 -27 -70 -80v-29h140v-100h-138v-424h-121zM479 0v424h-67v101h67v39c0 58 14 101 43 130c28 28 68 42 119 42c43 0 71 -6 98 -14v-102
c-24 8 -44 13 -71 13c-47 0 -70 -27 -70 -80v-29h140v-100h-138v-424h-121z" />
    <glyph glyph-name="fi" unicode="fi" horiz-adv-x="662" 
d="M103 0v424h-67v101h67v39c0 58 14 101 43 130c28 28 67 42 118 42c43 0 72 -6 99 -14v-102c-24 8 -44 13 -71 13c-47 0 -70 -27 -70 -80v-29h140v-100h-138v-424h-121zM458 0v528h122v-528h-122zM454 609v115h130v-115h-130z" />
    <glyph glyph-name="fl" unicode="fl" horiz-adv-x="662" 
d="M103 0v424h-67v101h67v39c0 58 14 101 43 130c28 28 67 42 118 42c43 0 72 -6 99 -14v-102c-24 8 -44 13 -71 13c-47 0 -70 -27 -70 -80v-29h140v-100h-138v-424h-121zM458 0v730h122v-730h-122z" />
    <glyph glyph-name="f_f_i" unicode="ffi" horiz-adv-x="1038" 
d="M103 0v424h-67v101h67v39c0 58 14 101 43 130c28 28 67 42 118 42c43 0 72 -6 99 -14v-102c-24 8 -44 13 -71 13c-47 0 -70 -27 -70 -80v-29h140v-100h-138v-424h-121zM479 0v424h-67v101h67v39c0 58 14 101 43 130c28 28 68 42 119 42c43 0 71 -6 98 -14v-102
c-24 8 -44 13 -71 13c-47 0 -70 -27 -70 -80v-29h140v-100h-138v-424h-121zM835 0v528h121v-528h-121zM830 609v115h130v-115h-130z" />
    <glyph glyph-name="f_f_l" unicode="ffl" horiz-adv-x="1038" 
d="M103 0v424h-67v101h67v39c0 58 14 101 43 130c28 28 67 42 118 42c43 0 72 -6 99 -14v-102c-24 8 -44 13 -71 13c-47 0 -70 -27 -70 -80v-29h140v-100h-138v-424h-121zM479 0v424h-67v101h67v39c0 58 14 101 43 130c28 28 68 42 119 42c43 0 71 -6 98 -14v-102
c-24 8 -44 13 -71 13c-47 0 -70 -27 -70 -80v-29h140v-100h-138v-424h-121zM835 0v730h121v-730h-121z" />
    <glyph glyph-name=".notdef" horiz-adv-x="500" 
d="M0 -200v1000h500v-1000h-500zM71 750l179 -390l179 390h-358zM50 -76l172 376l-172 376v-752zM450 676l-172 -376l172 -376v752zM250 240l-179 -390h358z" />
    <glyph glyph-name="NUL" horiz-adv-x="0" 
 />
    <glyph glyph-name="CR" horiz-adv-x="300" 
 />
    <glyph glyph-name="space" unicode=" " horiz-adv-x="300" 
 />
    <glyph glyph-name="D" unicode="D" horiz-adv-x="782" 
d="M90 0v700h261c220 0 372 -151 372 -348v-2c0 -197 -152 -350 -372 -350h-261zM351 588h-138v-476h138c147 0 243 99 243 236v2c0 137 -96 238 -243 238z" />
    <glyph glyph-name="E" unicode="E" horiz-adv-x="670" 
d="M90 0v700h519v-110h-396v-182h351v-111h-351v-187h401v-110h-524z" />
    <glyph glyph-name="F" unicode="F" horiz-adv-x="656" 
d="M90 0v700h521v-112h-398v-191h353v-112h-353v-285h-123z" />
    <glyph glyph-name="G" unicode="G" horiz-adv-x="784" 
d="M422 -12c-219 0 -363 156 -363 360v2c0 196 149 362 361 362c121 0 197 -34 269 -95l-78 -93c-54 46 -108 74 -196 74c-128 0 -227 -112 -227 -246v-2c0 -144 95 -250 238 -250c67 0 126 21 169 53v130h-179v108h298v-294c-70 -59 -168 -109 -292 -109z" />
    <glyph glyph-name="H" unicode="H" horiz-adv-x="760" 
d="M90 0v700h123v-291h334v291h123v-700h-123v295h-334v-295h-123z" />
    <glyph glyph-name="I" unicode="I" horiz-adv-x="317" 
d="M97 0v700h123v-700h-123z" />
    <glyph glyph-name="J" unicode="J" horiz-adv-x="560" 
d="M245 -10c-108 0 -177 49 -224 113l81 84c41 -53 81 -83 141 -83c67 0 111 43 111 138v458h127v-462c0 -84 -25 -145 -66 -186s-99 -62 -170 -62z" />
    <glyph glyph-name="K" unicode="K" horiz-adv-x="726" 
d="M90 0v700h123v-352l332 352h153l-292 -301l305 -399h-150l-239 315l-109 -112v-203h-123z" />
    <glyph glyph-name="L" unicode="L" horiz-adv-x="618" 
d="M90 0v700h123v-588h368v-112h-491z" />
    <glyph glyph-name="M" unicode="M" horiz-adv-x="868" 
d="M90 0v700h131l213 -331l213 331h131v-700h-123v502l-221 -330h-4l-219 328v-500h-121z" />
    <glyph glyph-name="N" unicode="N" horiz-adv-x="790" 
d="M90 0v700h114l375 -484v484h121v-700h-103l-386 498v-498h-121z" />
    <glyph glyph-name="O" unicode="O" horiz-adv-x="850" 
d="M424 -12c-215 0 -365 163 -365 360v2c0 196 152 362 367 362s365 -163 365 -360v-2c0 -196 -152 -362 -367 -362zM426 102c139 0 236 110 236 246v2c0 136 -98 248 -238 248c-139 0 -236 -110 -236 -246v-2c0 -136 98 -248 238 -248z" />
    <glyph glyph-name="P" unicode="P" horiz-adv-x="668" 
d="M90 0v700h276c164 0 266 -93 266 -234v-2c0 -156 -125 -239 -280 -239h-139v-225h-123zM213 336h143c93 0 151 52 151 125v2c0 83 -59 125 -151 125h-143v-252z" />
    <glyph glyph-name="Q" unicode="Q" horiz-adv-x="850" 
d="M800 67l-79 -88l-84 75c-60 -43 -132 -66 -213 -66c-215 0 -365 163 -365 360v2c0 196 152 362 367 362s365 -163 365 -360v-2c0 -80 -26 -154 -71 -215zM426 102c45 0 85 10 120 31l-120 104l79 90l123 -112c23 39 34 84 34 133v2c0 136 -98 248 -238 248
c-139 0 -236 -110 -236 -246v-2c0 -136 98 -248 238 -248z" />
    <glyph glyph-name="Q.alt" horiz-adv-x="850" 
d="M666 -101l-115 110c-39 -13 -82 -21 -127 -21c-215 0 -365 163 -365 360v2c0 196 152 362 367 362s365 -163 365 -360v-2c0 -108 -44 -202 -119 -270l178 -177v-4h-184zM426 102c139 0 236 110 236 246v2c0 136 -98 248 -238 248c-139 0 -236 -110 -236 -246v-2
c0 -136 98 -248 238 -248z" />
    <glyph glyph-name="R" unicode="R" horiz-adv-x="723" 
d="M90 0v700h312c88 0 157 -26 202 -70c37 -39 58 -90 58 -151v-2c0 -115 -69 -184 -166 -212l189 -265h-146l-172 244h-154v-244h-123zM213 353h180c88 0 144 45 144 117v2c0 76 -53 116 -145 116h-179v-235z" />
    <glyph glyph-name="S" unicode="S" horiz-adv-x="640" 
d="M335 -10c-108 0 -208 36 -292 112l74 88c68 -59 134 -91 221 -91c76 0 124 36 124 88v2c0 49 -28 78 -158 107c-149 35 -233 81 -233 209v2c0 120 100 203 239 203c103 0 182 -31 254 -88l-66 -93c-64 47 -126 72 -190 72c-72 0 -114 -36 -114 -83v-2
c0 -54 32 -78 167 -110c147 -38 224 -88 224 -205v-2c0 -132 -103 -209 -250 -209z" />
    <glyph glyph-name="T" unicode="T" horiz-adv-x="645" 
d="M261 0v586h-223v114h569v-114h-223v-586h-123z" />
    <glyph glyph-name="U" unicode="U" horiz-adv-x="757" 
d="M377 -11c-181 0 -298 105 -298 308v403h123v-398c0 -131 66 -199 177 -199c109 0 176 65 176 194v403h123v-397c0 -209 -118 -314 -301 -314z" />
    <glyph glyph-name="V" unicode="V" horiz-adv-x="750" 
d="M320 -5l-290 705h136l211 -538l210 538h133l-290 -705h-110z" />
    <glyph glyph-name="W" unicode="W" horiz-adv-x="1116" 
d="M279 -5l-243 705h133l167 -519l172 521h104l172 -521l167 519h129l-243 -705h-107l-172 503l-172 -503h-107z" />
    <glyph glyph-name="X" unicode="X" horiz-adv-x="729" 
d="M541 700h141l-244 -342l254 -358h-145l-185 267l-184 -267h-141l253 356l-243 344h145l173 -253z" />
    <glyph glyph-name="Y" unicode="Y" horiz-adv-x="716" 
d="M296 0v276l-278 424h146l195 -309l198 309h141l-278 -421v-279h-124z" />
    <glyph glyph-name="Z" unicode="Z" horiz-adv-x="702" 
d="M64 0v91l414 500h-400v109h561v-91l-414 -500h414v-109h-575z" />
    <glyph glyph-name="a" unicode="a" horiz-adv-x="587" 
d="M228 -11c-99 0 -188 56 -188 163v2c0 115 90 170 219 170c60 0 101 -9 142 -22v13c0 76 -46 115 -131 115c-60 0 -103 -13 -151 -33l-33 95c59 25 116 43 200 43c79 0 137 -20 175 -59c39 -39 57 -94 57 -163v-313h-118v66c-36 -43 -91 -77 -172 -77zM262 77
c80 0 141 45 141 113v36c-31 12 -72 21 -120 21c-79 0 -124 -32 -124 -88v-2c0 -51 44 -80 103 -80z" />
    <glyph glyph-name="a.alt" horiz-adv-x="671" 
d="M294 -11c-124 0 -245 98 -245 274v2c0 176 119 274 245 274c86 0 143 -43 180 -93v82h121v-528h-121v88c-39 -55 -95 -99 -180 -99zM323 94c81 0 153 68 153 169v2c0 102 -72 169 -153 169c-83 0 -152 -65 -152 -169v-2c0 -102 69 -169 152 -169z" />
    <glyph glyph-name="b" unicode="b" horiz-adv-x="671" 
d="M377 -11c-88 0 -143 44 -180 93v-82h-122v730h122v-290c39 55 93 99 180 99c124 0 245 -98 245 -274v-2c0 -176 -120 -274 -245 -274zM348 94c83 0 151 65 151 169v2c0 102 -70 169 -151 169c-83 0 -154 -68 -154 -169v-2c0 -101 71 -169 154 -169z" />
    <glyph glyph-name="c" unicode="c" horiz-adv-x="571" 
d="M320 -12c-157 0 -273 123 -273 273v2c0 150 116 276 275 276c99 0 160 -37 211 -91l-76 -81c-37 39 -76 66 -136 66c-88 0 -153 -76 -153 -168v-2c0 -94 65 -169 158 -169c57 0 98 26 137 65l73 -72c-52 -59 -113 -99 -216 -99z" />
    <glyph glyph-name="d" unicode="d" horiz-adv-x="671" 
d="M294 -11c-124 0 -245 98 -245 274v2c0 176 119 274 245 274c86 0 143 -43 180 -93v284h121v-730h-121v88c-39 -55 -95 -99 -180 -99zM323 94c81 0 153 68 153 169v2c0 102 -72 169 -153 169c-83 0 -152 -65 -152 -169v-2c0 -102 69 -169 152 -169z" />
    <glyph glyph-name="e" unicode="e" horiz-adv-x="604" 
d="M318 -12c-152 0 -271 111 -271 274v2c0 152 107 275 258 275c168 0 253 -132 253 -284c0 -11 -1 -22 -2 -34h-388c13 -87 73 -134 152 -134c60 0 100 22 143 63l71 -63c-51 -60 -119 -99 -216 -99zM167 301h271c-8 77 -54 139 -134 139c-75 0 -126 -56 -137 -139z" />
    <glyph glyph-name="f" unicode="f" horiz-adv-x="376" 
d="M103 0v424h-67v101h67v39c0 58 14 101 43 130c28 28 67 42 118 42c43 0 72 -6 99 -14v-102c-24 8 -44 13 -71 13c-47 0 -70 -27 -70 -80v-29h140v-100h-138v-424h-121z" />
    <glyph glyph-name="g" unicode="g" horiz-adv-x="671" 
d="M311 -162c-88 0 -167 21 -236 63l45 91c57 -35 116 -55 188 -55c108 0 167 54 167 161v40c-44 -56 -99 -96 -186 -96c-125 0 -240 92 -240 247v2c0 156 116 248 240 248c89 0 144 -41 185 -90v79h121v-420c0 -88 -22 -154 -67 -199c-48 -48 -121 -71 -217 -71zM321 145
c84 0 155 59 155 145v2c0 85 -71 144 -155 144s-150 -57 -150 -144v-2c0 -86 67 -145 150 -145z" />
    <glyph glyph-name="h" unicode="h" horiz-adv-x="620" 
d="M75 0v730h122v-283c35 49 82 92 165 92c120 0 188 -79 188 -202v-337h-121v300c0 83 -41 129 -113 129c-71 0 -119 -48 -119 -131v-298h-122z" />
    <glyph glyph-name="i" unicode="i" horiz-adv-x="286" 
d="M78 609v115h130v-115h-130zM82 0v528h122v-528h-122z" />
    <glyph glyph-name="j" unicode="j" horiz-adv-x="286" 
d="M78 609v115h130v-115h-130zM51 -163c-24 0 -40 2 -59 5v97c12 -2 23 -3 34 -3c35 0 56 17 56 64v528h122v-535c0 -108 -54 -156 -153 -156z" />
    <glyph glyph-name="k" unicode="k" horiz-adv-x="582" 
d="M75 0v730h122v-436l219 234h147l-210 -215l217 -313h-142l-156 229l-75 -78v-151h-122z" />
    <glyph glyph-name="l" unicode="l" horiz-adv-x="286" 
d="M82 0v730h122v-730h-122z" />
    <glyph glyph-name="m" unicode="m" horiz-adv-x="949" 
d="M75 0v528h122v-80c34 47 80 91 161 91c76 0 130 -37 158 -93c43 56 98 93 178 93c116 0 185 -73 185 -202v-337h-121v300c0 84 -39 129 -107 129c-67 0 -113 -46 -113 -131v-298h-121v301c0 83 -39 128 -107 128s-113 -50 -113 -131v-298h-122z" />
    <glyph glyph-name="n" unicode="n" horiz-adv-x="620" 
d="M75 0v528h122v-81c35 49 82 92 165 92c120 0 188 -79 188 -202v-337h-121v300c0 83 -41 129 -113 129c-71 0 -119 -48 -119 -131v-298h-122z" />
    <glyph glyph-name="o" unicode="o" horiz-adv-x="657" 
d="M327 -12c-161 0 -280 123 -280 273v2c0 151 120 276 282 276c163 0 281 -123 281 -274v-2c0 -149 -120 -275 -283 -275zM329 94c99 0 160 76 160 167v2c0 93 -67 170 -162 170c-97 0 -159 -76 -159 -168v-2c0 -92 68 -169 161 -169z" />
    <glyph glyph-name="p" unicode="p" horiz-adv-x="671" 
d="M75 -160v688h122v-88c39 55 93 99 180 99c124 0 245 -98 245 -274v-2c0 -176 -120 -274 -245 -274c-88 0 -143 44 -180 93v-242h-122zM348 94c83 0 151 65 151 169v2c0 102 -70 169 -151 169c-83 0 -154 -68 -154 -169v-2c0 -101 71 -169 154 -169z" />
    <glyph glyph-name="q" unicode="q" horiz-adv-x="671" 
d="M474 -160v248c-39 -55 -95 -99 -180 -99c-124 0 -245 98 -245 274v2c0 176 119 274 245 274c86 0 143 -43 180 -93v82h121v-688h-121zM323 94c81 0 153 68 153 169v2c0 102 -72 169 -153 169c-83 0 -152 -65 -152 -169v-2c0 -102 69 -169 152 -169z" />
    <glyph glyph-name="r" unicode="r" horiz-adv-x="413" 
d="M75 0v528h122v-119c33 80 94 133 187 129v-128h-7c-107 0 -180 -69 -180 -209v-201h-122z" />
    <glyph glyph-name="s" unicode="s" horiz-adv-x="501" 
d="M257 -10c-76 0 -157 26 -224 79l54 82c59 -43 118 -65 173 -65c52 0 82 22 82 57v2c0 40 -56 55 -118 74c-77 21 -165 54 -165 154v2c0 101 83 162 188 162c67 0 138 -23 194 -60l-48 -86c-51 31 -105 50 -149 50c-47 0 -74 -23 -74 -52v-2c0 -38 57 -56 119 -75
c76 -24 164 -59 164 -154v-2c0 -111 -86 -166 -196 -166z" />
    <glyph glyph-name="t" unicode="t" horiz-adv-x="411" 
d="M253 -9c-89 0 -152 39 -152 155v278h-67v104h67v145h121v-145h142v-104h-142v-259c0 -47 24 -66 65 -66c26 0 51 6 75 18v-99c-31 -17 -62 -27 -109 -27z" />
    <glyph glyph-name="u" unicode="u" horiz-adv-x="620" 
d="M258 -11c-120 0 -188 79 -188 203v336h121v-300c0 -83 41 -128 113 -128c71 0 119 47 119 130v298h122v-528h-122v82c-35 -51 -84 -93 -165 -93z" />
    <glyph glyph-name="v" unicode="v" horiz-adv-x="595" 
d="M243 -4l-217 532h130l142 -388l143 388h127l-216 -532h-109z" />
    <glyph glyph-name="w" unicode="w" horiz-adv-x="861" 
d="M203 -4l-172 532h125l106 -362l117 364h104l117 -364l108 362h122l-173 -532h-109l-118 361l-119 -361h-108z" />
    <glyph glyph-name="x" unicode="x" horiz-adv-x="580" 
d="M169 528l121 -177l123 177h129l-186 -258l194 -270h-132l-130 188l-129 -188h-129l193 269l-186 259h132z" />
    <glyph glyph-name="y" unicode="y" horiz-adv-x="596" 
d="M304 136l138 392h126l-210 -542c-43 -109 -89 -149 -174 -149c-51 0 -88 12 -125 33l41 89c23 -12 46 -20 71 -20c35 0 55 15 75 60l-220 529h130z" />
    <glyph glyph-name="z" unicode="z" horiz-adv-x="560" 
d="M52 0v83l305 346h-294v99h448v-83l-305 -346h305v-99h-459z" />
    <glyph glyph-name="uni0391" unicode="&#x391;" horiz-adv-x="790" 
d="M30 0l308 705h114l308 -705h-130l-71 169h-331l-72 -169h-126zM273 278h241l-121 280z" />
    <glyph glyph-name="uni0392" unicode="&#x392;" horiz-adv-x="722" 
d="M90 0v700h314c81 0 142 -21 183 -62c31 -31 47 -70 47 -116v-2c0 -85 -48 -129 -100 -156c83 -29 139 -74 139 -170v-2c0 -125 -103 -192 -259 -192h-324zM511 500v2c0 56 -43 89 -123 89h-177v-186h168c80 0 132 31 132 95zM550 205v2c0 60 -47 94 -144 94h-195v-192
h204c84 0 135 32 135 96z" />
    <glyph glyph-name="uni0393" unicode="&#x393;" horiz-adv-x="618" 
d="M90 0v700h491v-112h-368v-588h-123z" />
    <glyph glyph-name="uni0394" unicode="&#x394;" horiz-adv-x="787" 
d="M56 0l-10 89l284 616h127l284 -616l-10 -89h-675zM186 110h411l-205 459z" />
    <glyph glyph-name="uni0395" unicode="&#x395;" horiz-adv-x="670" 
d="M90 0v700h519v-110h-396v-182h351v-111h-351v-187h401v-110h-524z" />
    <glyph glyph-name="uni0396" unicode="&#x396;" horiz-adv-x="702" 
d="M64 0v91l414 500h-400v109h561v-91l-414 -500h414v-109h-575z" />
    <glyph glyph-name="uni0397" unicode="&#x397;" horiz-adv-x="760" 
d="M90 0v700h123v-291h334v291h123v-700h-123v295h-334v-295h-123z" />
    <glyph glyph-name="uni0398" unicode="&#x398;" horiz-adv-x="850" 
d="M424 -12c-215 0 -365 163 -365 360v2c0 196 152 362 367 362s365 -163 365 -360v-2c0 -196 -152 -362 -367 -362zM426 100c143 0 240 107 240 248v2c0 141 -98 250 -242 250c-145 0 -240 -107 -240 -248v-2c0 -141 98 -250 242 -250zM579 409v-114h-308v114h308z" />
    <glyph glyph-name="uni0399" unicode="&#x399;" horiz-adv-x="317" 
d="M97 0v700h123v-700h-123z" />
    <glyph glyph-name="uni039A" unicode="&#x39a;" horiz-adv-x="726" 
d="M90 0v700h123v-352l332 352h153l-292 -301l305 -399h-150l-239 315l-109 -112v-203h-123z" />
    <glyph glyph-name="uni039B" unicode="&#x39b;" horiz-adv-x="771" 
d="M440 705l301 -705h-137l-221 535l-220 -535h-133l300 705h110z" />
    <glyph glyph-name="uni039C" unicode="&#x39c;" horiz-adv-x="868" 
d="M90 0v700h131l213 -331l213 331h131v-700h-123v502l-221 -330h-4l-219 328v-500h-121z" />
    <glyph glyph-name="uni039D" unicode="&#x39d;" horiz-adv-x="790" 
d="M90 0v700h114l375 -484v484h121v-700h-103l-386 498v-498h-121z" />
    <glyph glyph-name="uni039E" unicode="&#x39e;" horiz-adv-x="663" 
d="M602 588h-541v112h541v-112zM576 296h-489v113h489v-113zM607 0h-551v112h551v-112z" />
    <glyph glyph-name="uni039E.alt" horiz-adv-x="742" 
d="M686 110v-110h-630v110h256v188h-225v109h225v183h-251v110h620v-110h-251v-183h225v-109h-225v-188h256z" />
    <glyph glyph-name="uni039F" unicode="&#x39f;" horiz-adv-x="850" 
d="M424 -12c-215 0 -365 163 -365 360v2c0 196 152 362 367 362s365 -163 365 -360v-2c0 -196 -152 -362 -367 -362zM426 102c139 0 236 110 236 246v2c0 136 -98 248 -238 248c-139 0 -236 -110 -236 -246v-2c0 -136 98 -248 238 -248z" />
    <glyph glyph-name="uni03A0" unicode="&#x3a0;" horiz-adv-x="756" 
d="M90 0v700h577v-700h-124v588h-330v-588h-123z" />
    <glyph glyph-name="uni03A1" unicode="&#x3a1;" horiz-adv-x="668" 
d="M90 0v700h276c164 0 266 -93 266 -234v-2c0 -156 -125 -239 -280 -239h-139v-225h-123zM213 336h143c93 0 151 52 151 125v2c0 83 -59 125 -151 125h-143v-252z" />
    <glyph glyph-name="uni03A3" unicode="&#x3a3;" horiz-adv-x="686" 
d="M480 350l-241 -241h393v-109h-566v92l257 258l-255 258v92h559v-109h-386z" />
    <glyph glyph-name="uni03A4" unicode="&#x3a4;" horiz-adv-x="645" 
d="M261 0v586h-223v114h569v-114h-223v-586h-123z" />
    <glyph glyph-name="uni03A5" unicode="&#x3a5;" horiz-adv-x="716" 
d="M296 0v276l-278 424h146l195 -309l198 309h141l-278 -421v-279h-124z" />
    <glyph glyph-name="uni03A6" unicode="&#x3a6;" horiz-adv-x="951" 
d="M414 -10v76c-230 3 -362 121 -362 286v1c0 163 131 281 362 286v71h123v-71c229 -5 363 -120 363 -286v-1c0 -163 -131 -283 -363 -286v-76h-123zM772 352v1c0 99 -77 178 -237 178v-357c157 0 237 75 237 178zM180 352v-1c0 -101 76 -176 236 -177v357
c-160 -3 -236 -75 -236 -179z" />
    <glyph glyph-name="uni03A7" unicode="&#x3a7;" horiz-adv-x="729" 
d="M541 700h141l-244 -342l254 -358h-145l-185 267l-184 -267h-141l253 356l-243 344h145l173 -253z" />
    <glyph glyph-name="uni03A8" unicode="&#x3a8;" horiz-adv-x="855" 
d="M785 700v-247c0 -202 -116 -293 -297 -298v-155h-122v155c-184 5 -297 97 -297 294v251h123v-247c0 -129 59 -181 176 -184v431h119v-431c117 3 176 52 176 179v252h122z" />
    <glyph glyph-name="uni03A9" unicode="&#x3a9;" horiz-adv-x="869" 
d="M435 712c221 0 356 -141 356 -326v-1c0 -126 -67 -212 -158 -279h177v-106h-306v104c91 61 158 133 158 266v1c0 134 -88 227 -228 227c-139 0 -227 -92 -227 -224v-1c0 -125 65 -205 158 -269v-104h-306v106h177c-93 67 -158 153 -158 280v1c0 176 135 325 357 325z" />
    <glyph glyph-name="uni03B1" unicode="&#x3b1;" horiz-adv-x="710" 
d="M687 98v-95c-19 -5 -39 -10 -71 -10c-72 0 -114 27 -131 88c-40 -51 -98 -92 -185 -92c-130 0 -251 98 -251 274v2c0 176 119 274 245 274c86 0 143 -43 180 -93v82h121v-370c0 -45 19 -64 58 -64c15 0 25 1 34 4zM323 94c81 0 153 68 153 169v2c0 102 -72 169 -153 169
c-83 0 -152 -65 -152 -169v-2c0 -102 69 -169 152 -169z" />
    <glyph glyph-name="uni03B2" unicode="&#x3b2;" horiz-adv-x="657" 
d="M392 -11c-92 0 -158 41 -195 93v-242h-122v637c0 162 98 260 263 260c158 0 242 -85 242 -198v-1c0 -88 -49 -150 -138 -174c101 -24 166 -74 166 -179v-1c0 -110 -79 -195 -216 -195zM363 92c80 0 124 45 124 104v1c0 76 -61 120 -198 119h-94v-38
c0 -125 70 -186 168 -186zM195 477v-72h93c108 0 173 46 173 123v1c0 60 -46 108 -123 107c-89 0 -143 -62 -143 -159z" />
    <glyph glyph-name="uni03B3" unicode="&#x3b3;" horiz-adv-x="595" 
d="M358 -160h-121v178l-211 510h131l141 -380l142 380h128l-210 -510v-178z" />
    <glyph glyph-name="uni03B4" unicode="&#x3b4;" horiz-adv-x="642" 
d="M118 640v90h409v-100l-247 3l133 -101c122 -90 180 -164 180 -280v-1c0 -145 -105 -263 -277 -263c-163 0 -269 117 -269 257v1c0 132 66 204 210 276zM474 245v1c0 70 -31 120 -134 207c-132 -66 -175 -126 -175 -207v-1c0 -83 61 -154 153 -154s156 71 156 154z" />
    <glyph glyph-name="uni03B5" unicode="&#x3b5;" horiz-adv-x="564" 
d="M396 221h-115c-76 0 -112 -25 -112 -64v-1c0 -41 41 -69 122 -69c64 0 130 22 186 57l52 -81c-72 -48 -154 -74 -242 -74c-156 0 -236 63 -236 155v1c0 67 48 103 100 122c-51 21 -86 56 -86 116v2c0 84 78 152 227 152c96 0 167 -27 231 -72l-61 -83
c-47 35 -105 58 -166 58c-76 0 -113 -30 -113 -66v-1c0 -42 33 -63 98 -63h115v-89z" />
    <glyph glyph-name="uni03B6" unicode="&#x3b6;" horiz-adv-x="549" 
d="M509 81v-213h-114v120l-106 13c-168 21 -243 89 -243 202v1c0 82 31 139 125 233l185 192h-270v101h425v-94l-259 -274c-64 -64 -85 -99 -85 -146v-1c0 -60 48 -96 144 -107z" />
    <glyph glyph-name="uni03B7" unicode="&#x3b7;" horiz-adv-x="620" 
d="M197 0h-122v528h122v-81c35 49 82 92 165 92c120 0 188 -79 188 -202v-497h-121v460c0 83 -41 129 -113 129c-71 0 -119 -48 -119 -131v-298z" />
    <glyph glyph-name="uni03B8" unicode="&#x3b8;" horiz-adv-x="669" 
d="M334 -12c-169 0 -278 149 -278 361v25c0 211 111 362 280 362c168 0 277 -151 277 -362v-25c0 -212 -111 -361 -279 -361zM335 91c96 0 155 89 160 222h-321c5 -133 66 -222 161 -222zM334 633c-95 0 -155 -89 -160 -220h320c-5 131 -65 220 -160 220z" />
    <glyph glyph-name="uni03B9" unicode="&#x3b9;" horiz-adv-x="309" 
d="M73 152v376h122v-370c0 -45 19 -64 58 -64c13 0 25 1 34 4v-95c-19 -5 -40 -10 -72 -10c-96 0 -142 47 -142 159z" />
    <glyph glyph-name="uni03BA" unicode="&#x3ba;" horiz-adv-x="582" 
d="M197 528v-251l220 251h149l-208 -224l212 -304h-143l-150 219l-80 -85v-134h-122v528h122z" />
    <glyph glyph-name="uni03BB" unicode="&#x3bb;" horiz-adv-x="609" 
d="M155 0h-127l223 529l-12 31c-20 51 -41 72 -82 72c-18 0 -39 -4 -62 -13v101c27 11 54 16 86 16c91 0 128 -38 168 -142l235 -594h-130l-147 392z" />
    <glyph glyph-name="uni03BC" unicode="&#x3bc;" horiz-adv-x="669" 
d="M646 98v-95c-19 -5 -39 -10 -70 -10c-68 0 -108 23 -127 75c-32 -49 -78 -76 -131 -76c-57 0 -112 27 -137 83h-2c8 -43 16 -75 16 -122v-113h-120v688h122v-300c0 -81 45 -132 117 -132s119 51 119 132v300h121v-370c0 -45 19 -64 58 -64c13 0 25 1 34 4z" />
    <glyph glyph-name="uni03BD" unicode="&#x3bd;" horiz-adv-x="595" 
d="M243 -4l-217 532h130l142 -388l143 388h127l-216 -532h-109z" />
    <glyph glyph-name="uni03BE" unicode="&#x3be;" horiz-adv-x="553" 
d="M540 661l-62 -93c-45 37 -94 63 -155 63c-75 0 -122 -43 -122 -107v-1c0 -69 62 -112 150 -111h88v-100h-112c-101 0 -159 -42 -159 -103v-1c0 -65 56 -92 147 -103l193 -25v-212h-113v120l-106 13c-146 16 -242 68 -242 193v1c0 92 63 147 148 172
c-53 24 -115 68 -115 166v1c0 110 91 203 244 203c97 0 161 -33 216 -76z" />
    <glyph glyph-name="uni03BF" unicode="&#x3bf;" horiz-adv-x="657" 
d="M327 -12c-161 0 -280 123 -280 273v2c0 151 120 276 282 276c163 0 281 -123 281 -274v-2c0 -149 -120 -275 -283 -275zM329 94c99 0 160 76 160 167v2c0 93 -67 170 -162 170c-97 0 -159 -76 -159 -168v-2c0 -92 68 -169 161 -169z" />
    <glyph glyph-name="uni03C0" unicode="&#x3c0;" horiz-adv-x="701" 
d="M445 152v268h-207v-420h-121v420h-91v108h632v-108h-91v-262c0 -45 19 -64 58 -64c13 0 25 1 34 4v-95c-19 -5 -40 -10 -72 -10c-96 0 -142 47 -142 159z" />
    <glyph glyph-name="uni03C1" unicode="&#x3c1;" horiz-adv-x="660" 
d="M65 -160v412c0 169 107 287 274 287c157 0 273 -116 273 -274v-2c0 -170 -122 -274 -242 -274c-91 0 -147 42 -184 94v-243h-121zM338 94c83 0 151 65 151 169v2c0 102 -68 169 -151 169c-84 0 -152 -68 -152 -169v-2c0 -101 72 -169 152 -169z" />
    <glyph glyph-name="uni03C3" unicode="&#x3c3;" horiz-adv-x="687" 
d="M325 -12c-160 0 -278 117 -278 267v1c0 149 114 272 293 272h319v-104l-151 1c63 -41 96 -100 96 -177v-1c0 -144 -117 -259 -279 -259zM327 94c97 0 157 70 157 161v1c0 92 -60 167 -159 167c-97 0 -157 -74 -157 -166v-1c0 -91 65 -162 159 -162z" />
    <glyph glyph-name="uni03C2" unicode="&#x3c2;" horiz-adv-x="573" 
d="M398 -132v121l-71 9c-180 24 -280 114 -280 274v1c0 141 106 266 272 266c104 0 163 -39 214 -95l-77 -83c-37 43 -78 72 -139 72c-88 0 -149 -72 -149 -158v-1c0 -103 66 -156 189 -171l154 -21v-214h-113z" />
    <glyph glyph-name="uni03C4" unicode="&#x3c4;" horiz-adv-x="569" 
d="M531 420h-196v-243c0 -64 28 -84 79 -84c23 0 43 3 68 11v-97c-27 -9 -57 -15 -96 -15c-119 0 -172 47 -172 179v249h-186v108h503v-108z" />
    <glyph glyph-name="uni03C5" unicode="&#x3c5;" horiz-adv-x="622" 
d="M310 -12c-147 0 -241 80 -241 235v305h121v-301c0 -88 42 -134 122 -134s120 45 120 132v303h121v-302c0 -159 -96 -238 -243 -238z" />
    <glyph glyph-name="uni03C6" unicode="&#x3c6;" horiz-adv-x="842" 
d="M481 -160h-120v158c-202 5 -315 118 -315 265v1c0 145 113 262 315 267v199h120v-199c202 -8 315 -118 315 -266v-1c0 -146 -114 -261 -315 -266v-158zM677 263v1c0 93 -70 160 -198 163v-326c132 3 198 69 198 162zM166 265v-1c0 -93 69 -160 197 -163v326
c-133 -4 -197 -70 -197 -162z" />
    <glyph glyph-name="uni03C7" unicode="&#x3c7;" horiz-adv-x="606" 
d="M165 528l139 -237l140 237h132l-205 -326l229 -362h-136l-162 272l-163 -272h-132l227 360l-205 328h136z" />
    <glyph glyph-name="uni03C8" unicode="&#x3c8;" horiz-adv-x="822" 
d="M471 -160h-120v158c-176 3 -283 93 -283 264v266h121v-263c0 -100 60 -161 163 -162v627h118v-627c101 1 163 61 163 161v264h120v-262c0 -174 -109 -265 -282 -268v-158z" />
    <glyph glyph-name="uni03C9" unicode="&#x3c9;" horiz-adv-x="880" 
d="M381 426h118v-171c0 -100 39 -159 106 -159c64 0 103 51 103 155v1c0 101 -46 184 -122 276h131c65 -75 110 -165 110 -281v-1c0 -155 -75 -258 -207 -258c-102 0 -154 62 -181 137c-27 -75 -79 -137 -181 -137c-132 0 -205 102 -205 259v1c0 113 46 207 110 280h130
c-77 -92 -121 -173 -121 -277v-1c0 -100 39 -155 103 -154c68 0 106 59 106 159v171z" />
    <glyph glyph-name="uni0410" unicode="&#x410;" horiz-adv-x="790" 
d="M30 0l308 705h114l308 -705h-130l-71 169h-331l-72 -169h-126zM273 278h241l-121 280z" />
    <glyph glyph-name="uni0411" unicode="&#x411;" horiz-adv-x="706" 
d="M90 0v700h508v-110h-387v-172h194c155 0 254 -70 254 -203v-1c0 -136 -104 -214 -262 -214h-307zM211 110h189c80 0 135 34 135 101v1c0 67 -52 98 -133 98h-191v-200z" />
    <glyph glyph-name="uni0412" unicode="&#x412;" horiz-adv-x="722" 
d="M90 0v700h314c81 0 142 -21 183 -62c31 -31 47 -70 47 -116v-2c0 -85 -48 -129 -100 -156c83 -29 139 -74 139 -170v-2c0 -125 -103 -192 -259 -192h-324zM511 500v2c0 56 -43 89 -123 89h-177v-186h168c80 0 132 31 132 95zM550 205v2c0 60 -47 94 -144 94h-195v-192
h204c84 0 135 32 135 96z" />
    <glyph glyph-name="uni0413" unicode="&#x413;" horiz-adv-x="618" 
d="M90 0v700h491v-112h-368v-588h-123z" />
    <glyph glyph-name="uni0414" unicode="&#x414;" horiz-adv-x="844" 
d="M33 112h69l255 593h130l254 -593h70v-256h-116v144h-546v-144h-116v256zM420 568l-191 -460h382z" />
    <glyph glyph-name="uni0415" unicode="&#x415;" horiz-adv-x="670" 
d="M90 0v700h519v-110h-396v-182h351v-111h-351v-187h401v-110h-524z" />
    <glyph glyph-name="uni0401" unicode="&#x401;" horiz-adv-x="670" 
d="M391 758v112h125v-112h-125zM186 758v112h125v-112h-125zM90 0v700h519v-110h-396v-182h351v-111h-351v-187h401v-110h-524z" />
    <glyph glyph-name="uni0416" unicode="&#x416;" horiz-adv-x="1080" 
d="M30 700h148l246 -293h56l-1 293h122l-1 -293h56l247 293h147l-292 -341l311 -359h-148l-259 302h-62l1 -302h-122l1 302h-65l-258 -302h-145l311 359z" />
    <glyph glyph-name="uni0417" unicode="&#x417;" horiz-adv-x="664" 
d="M126 516l-75 84c72 64 158 112 284 112c159 0 257 -74 257 -188v-1c0 -87 -47 -137 -128 -164c87 -21 146 -70 146 -165v-1c0 -117 -106 -205 -285 -205c-125 0 -217 44 -286 104l73 89c60 -48 128 -83 216 -83c92 0 157 39 157 104v1c0 64 -60 99 -160 98h-126v104h128
c85 0 140 37 140 101v1c0 59 -51 95 -135 95c-81 0 -147 -37 -206 -86z" />
    <glyph glyph-name="uni0418" unicode="&#x418;" horiz-adv-x="790" 
d="M700 0h-123v506l-380 -506h-107v700h123v-493l369 493h118v-700z" />
    <glyph glyph-name="uni0419" unicode="&#x419;" horiz-adv-x="790" 
d="M395 756c-96 0 -165 47 -173 134h86c12 -31 36 -50 87 -50s75 19 87 50h86c-8 -87 -77 -134 -173 -134zM700 0h-123v506l-380 -506h-107v700h123v-493l369 493h118v-700z" />
    <glyph glyph-name="uni041A" unicode="&#x41a;" horiz-adv-x="733" 
d="M90 0v700h123l-1 -291h77l263 291h155l-319 -338l336 -362h-158l-274 300h-80l1 -300h-123z" />
    <glyph glyph-name="uni041B" unicode="&#x41b;" horiz-adv-x="771" 
d="M440 705l301 -705h-137l-221 535l-220 -535h-133l300 705h110z" />
    <glyph glyph-name="uni041C" unicode="&#x41c;" horiz-adv-x="868" 
d="M90 0v700h131l213 -331l213 331h131v-700h-123v502l-221 -330h-4l-219 328v-500h-121z" />
    <glyph glyph-name="uni041D" unicode="&#x41d;" horiz-adv-x="760" 
d="M90 0v700h123v-291h334v291h123v-700h-123v295h-334v-295h-123z" />
    <glyph glyph-name="uni041E" unicode="&#x41e;" horiz-adv-x="850" 
d="M424 -12c-215 0 -365 163 -365 360v2c0 196 152 362 367 362s365 -163 365 -360v-2c0 -196 -152 -362 -367 -362zM426 102c139 0 236 110 236 246v2c0 136 -98 248 -238 248c-139 0 -236 -110 -236 -246v-2c0 -136 98 -248 238 -248z" />
    <glyph glyph-name="uni041F" unicode="&#x41f;" horiz-adv-x="756" 
d="M90 0v700h577v-700h-124v588h-330v-588h-123z" />
    <glyph glyph-name="uni0420" unicode="&#x420;" horiz-adv-x="668" 
d="M90 0v700h276c164 0 266 -93 266 -234v-2c0 -156 -125 -239 -280 -239h-139v-225h-123zM213 336h143c93 0 151 52 151 125v2c0 83 -59 125 -151 125h-143v-252z" />
    <glyph glyph-name="uni0421" unicode="&#x421;" horiz-adv-x="739" 
d="M415 -12c-204 0 -356 159 -356 360v2c0 199 149 362 360 362c130 0 208 -45 275 -109l-79 -91c-57 52 -116 86 -197 86c-132 0 -230 -109 -230 -246v-2c0 -137 97 -248 231 -248c85 0 141 34 201 90l79 -80c-71 -77 -154 -124 -284 -124z" />
    <glyph glyph-name="uni0422" unicode="&#x422;" horiz-adv-x="645" 
d="M261 0v586h-223v114h569v-114h-223v-586h-123z" />
    <glyph glyph-name="uni0423" unicode="&#x423;" horiz-adv-x="718" 
d="M303 0h-137l140 241l-280 459h140l208 -349l190 349h137z" />
    <glyph glyph-name="uni0424" unicode="&#x424;" horiz-adv-x="951" 
d="M414 -10v76c-230 3 -362 121 -362 286v1c0 163 131 281 362 286v71h123v-71c229 -5 363 -120 363 -286v-1c0 -163 -131 -283 -363 -286v-76h-123zM772 352v1c0 99 -77 178 -237 178v-357c157 0 237 75 237 178zM180 352v-1c0 -101 76 -176 236 -177v357
c-160 -3 -236 -75 -236 -179z" />
    <glyph glyph-name="uni0424.bgr" horiz-adv-x="966" 
d="M421 -100v99c-219 11 -362 157 -362 349v2c0 192 144 338 362 351v99h124v-99c219 -11 362 -157 362 -349v-2c0 -191 -144 -340 -362 -351v-99h-124zM187 352v-2c0 -134 91 -232 238 -240v480c-147 -8 -238 -104 -238 -238zM779 348v2c0 132 -91 231 -238 239v-479
c148 8 238 106 238 238z" />
    <glyph glyph-name="uni0425" unicode="&#x425;" horiz-adv-x="729" 
d="M541 700h141l-244 -342l254 -358h-145l-185 267l-184 -267h-141l253 356l-243 344h145l173 -253z" />
    <glyph glyph-name="uni0426" unicode="&#x426;" horiz-adv-x="783" 
d="M633 -144v144h-543v700h123v-588h330v588h124v-588h82v-256h-116z" />
    <glyph glyph-name="uni0427" unicode="&#x427;" horiz-adv-x="709" 
d="M495 0v246c-51 -13 -112 -21 -163 -21c-161 0 -263 72 -263 240v235h123v-220c0 -101 49 -143 153 -143c49 0 102 7 150 22v341h124v-700h-124z" />
    <glyph glyph-name="uni0428" unicode="&#x428;" horiz-adv-x="1117" 
d="M90 0v700h123v-588h284v588h123v-588h283v588h124v-700h-937z" />
    <glyph glyph-name="uni0429" unicode="&#x429;" horiz-adv-x="1143" 
d="M90 0v700h123v-588h284v588h123v-588h283v588h124v-588h82v-256h-116v144h-903z" />
    <glyph glyph-name="uni042A" unicode="&#x42a;" horiz-adv-x="837" 
d="M255 0v590h-218v110h341v-233h148c163 0 271 -81 271 -229v-2c0 -148 -108 -236 -279 -236h-263zM378 112h143c92 0 151 43 151 122v1c0 79 -56 121 -149 121h-145v-244z" />
    <glyph glyph-name="uni042B" unicode="&#x42b;" horiz-adv-x="961" 
d="M90 0v700h123v-233h148c163 0 271 -81 271 -229v-2c0 -148 -108 -236 -279 -236h-263zM747 0v700h124v-700h-124zM213 112h143c92 0 151 43 151 122v1c0 79 -56 121 -149 121h-145v-244z" />
    <glyph glyph-name="uni042C" unicode="&#x42c;" horiz-adv-x="672" 
d="M90 0v700h123v-233h148c163 0 271 -81 271 -229v-2c0 -148 -108 -236 -279 -236h-263zM213 112h143c92 0 151 43 151 122v1c0 79 -56 121 -149 121h-145v-244z" />
    <glyph glyph-name="uni042D" unicode="&#x42d;" horiz-adv-x="737" 
d="M208 300v105h339c-19 115 -104 196 -219 196c-88 0 -148 -35 -207 -86l-74 84c70 65 154 113 287 113c200 0 344 -152 344 -360v-2c0 -203 -144 -362 -354 -362c-125 0 -211 46 -283 115l79 87c64 -59 122 -91 203 -91c118 0 209 84 225 201h-340z" />
    <glyph glyph-name="uni042E" unicode="&#x42e;" horiz-adv-x="1108" 
d="M90 0v700h123v-291h135c27 167 162 303 349 303c207 0 352 -167 352 -360v-2c0 -193 -146 -362 -354 -362c-189 0 -325 136 -349 307h-133v-295h-123zM697 102c133 0 223 111 223 246v2c0 135 -92 248 -225 248s-223 -111 -223 -246v-2c0 -135 92 -248 225 -248z" />
    <glyph glyph-name="uni042F" unicode="&#x42f;" horiz-adv-x="723" 
d="M633 700v-700h-123v244h-146l-178 -244h-148l194 260c-99 27 -171 97 -171 210v1c0 151 110 229 281 229h291zM510 588h-179c-92 0 -145 -41 -145 -116v-1c0 -76 58 -118 147 -118h177v235z" />
    <glyph glyph-name="uni0430" unicode="&#x430;" horiz-adv-x="587" 
d="M228 -11c-99 0 -188 56 -188 163v2c0 115 90 170 219 170c60 0 101 -9 142 -22v13c0 76 -46 115 -131 115c-60 0 -103 -13 -151 -33l-33 95c59 25 116 43 200 43c79 0 137 -20 175 -59c39 -39 57 -94 57 -163v-313h-118v66c-36 -43 -91 -77 -172 -77zM262 77
c80 0 141 45 141 113v36c-31 12 -72 21 -120 21c-79 0 -124 -32 -124 -88v-2c0 -51 44 -80 103 -80z" />
    <glyph glyph-name="uni0431" unicode="&#x431;" horiz-adv-x="653" 
d="M327 -12c-83 0 -147 31 -188 72c-56 56 -85 133 -85 250v1c0 244 89 365 284 397l190 32l19 -111l-188 -30c-121 -21 -176 -73 -191 -180c43 47 112 77 192 77c155 0 245 -101 245 -241v-1c0 -149 -111 -266 -278 -266zM329 91c92 0 156 69 156 162v1
c0 88 -57 151 -149 151c-100 0 -161 -68 -161 -156v-1c0 -92 64 -157 154 -157z" />
    <glyph glyph-name="uni0432" unicode="&#x432;" horiz-adv-x="596" 
d="M75 0v528h269c112 0 183 -49 183 -136v-1c0 -63 -34 -97 -83 -117c64 -20 105 -55 105 -126v-1c0 -98 -84 -147 -204 -147h-270zM194 309h126c60 0 88 27 88 67v1c0 36 -29 64 -85 63h-129v-131zM194 224v-136h144c60 0 93 24 93 67v1c0 41 -33 69 -98 68h-139z" />
    <glyph glyph-name="uni0432.bgr" horiz-adv-x="648" 
d="M341 -12c-171 0 -275 83 -275 272v217c0 162 98 260 262 260c149 0 243 -80 243 -200v-1c0 -95 -60 -147 -138 -171c101 -24 166 -73 166 -178v-1c0 -113 -102 -198 -258 -198zM342 89c85 0 136 46 136 109v1c0 76 -61 118 -198 117h-93v-55c0 -111 46 -172 155 -172z
M187 477v-72h92c108 0 172 46 172 123v1c0 60 -45 108 -122 107c-89 0 -142 -62 -142 -159z" />
    <glyph glyph-name="uni0433" unicode="&#x433;" horiz-adv-x="503" 
d="M75 0v528h396v-109h-274v-419h-122z" />
    <glyph glyph-name="uni0433.bgr" horiz-adv-x="518" 
d="M230 -10c-113 0 -186 54 -186 150v2c0 88 60 130 178 168c106 34 130 48 130 80v1c0 27 -21 51 -72 50c-55 0 -113 -22 -169 -55l-49 85c68 43 144 66 219 66c120 0 182 -59 182 -150v-2c0 -89 -63 -125 -180 -162c-102 -32 -128 -50 -128 -84v-1c0 -33 26 -53 78 -52
c58 0 123 23 194 70l51 -82c-76 -53 -159 -84 -248 -84z" />
    <glyph glyph-name="uni0434" unicode="&#x434;" horiz-adv-x="669" 
d="M398 532l188 -423h60v-241h-110v133h-403v-133h-110v241h60l188 423h127zM334 409l-129 -304h256z" />
    <glyph glyph-name="uni0434.bgr" horiz-adv-x="671" 
d="M311 -162c-88 0 -167 21 -236 63l45 91c57 -35 116 -55 188 -55c108 0 167 54 167 161v40c-44 -56 -99 -96 -186 -96c-125 0 -240 92 -240 247v2c0 156 116 248 240 248c89 0 144 -41 185 -90v79h121v-420c0 -88 -22 -154 -67 -199c-48 -48 -121 -71 -217 -71zM321 145
c84 0 155 59 155 145v2c0 85 -71 144 -155 144s-150 -57 -150 -144v-2c0 -86 67 -145 150 -145z" />
    <glyph glyph-name="uni0435" unicode="&#x435;" horiz-adv-x="604" 
d="M318 -12c-152 0 -271 111 -271 274v2c0 152 107 275 258 275c168 0 253 -132 253 -284c0 -11 -1 -22 -2 -34h-388c13 -87 73 -134 152 -134c60 0 100 22 143 63l71 -63c-51 -60 -119 -99 -216 -99zM167 301h271c-8 77 -54 139 -134 139c-75 0 -126 -56 -137 -139z" />
    <glyph glyph-name="uni0451" unicode="&#x451;" horiz-adv-x="604" 
d="M339 595v119h123v-119h-123zM144 595v119h123v-119h-123zM318 -12c-152 0 -271 111 -271 274v2c0 152 107 275 258 275c168 0 253 -132 253 -284c0 -11 -1 -22 -2 -34h-388c13 -87 73 -134 152 -134c60 0 100 22 143 63l71 -63c-51 -60 -119 -99 -216 -99zM167 301h271
c-8 77 -54 139 -134 139c-75 0 -126 -56 -137 -139z" />
    <glyph glyph-name="uni0436" unicode="&#x436;" horiz-adv-x="892" 
d="M505 528l-1 -209h59l167 209h142l-218 -258l226 -270h-143l-173 215h-60l1 -215h-118l1 215h-62l-172 -215h-143l226 265l-217 263h143l167 -209h58l-1 209h118z" />
    <glyph glyph-name="uni0436.bgr" horiz-adv-x="892" 
d="M505 730l-1 -411h59l167 209h142l-218 -258l226 -270h-143l-173 215h-60l1 -215h-118l1 215h-62l-172 -215h-143l226 265l-217 263h143l167 -209h58l-1 411h118z" />
    <glyph glyph-name="uni0437" unicode="&#x437;" horiz-adv-x="559" 
d="M36 64l61 82c52 -37 114 -59 178 -59c76 0 118 27 118 70v1c0 39 -39 64 -111 63h-115v89h114c65 0 98 24 98 65v1c0 39 -37 65 -104 64c-63 0 -116 -21 -169 -60l-64 77c64 51 138 82 239 82c133 0 217 -61 217 -149v-1c0 -64 -40 -99 -93 -120c61 -16 107 -55 107 -123
v-1c0 -85 -85 -157 -237 -157c-99 0 -174 28 -239 76z" />
    <glyph glyph-name="uni0438" unicode="&#x438;" horiz-adv-x="638" 
d="M75 0v528h121v-338l252 338h115v-528h-121v346l-257 -346h-110z" />
    <glyph glyph-name="uni0438.bgr" horiz-adv-x="620" 
d="M258 -11c-120 0 -188 79 -188 203v336h121v-300c0 -83 41 -128 113 -128c71 0 119 47 119 130v298h122v-528h-122v82c-35 -51 -84 -93 -165 -93z" />
    <glyph glyph-name="uni0439" unicode="&#x439;" horiz-adv-x="638" 
d="M75 0v528h121v-338l252 338h115v-528h-121v346l-257 -346h-110zM318 593c-96 0 -164 53 -172 145h84c12 -36 37 -61 88 -61s76 25 88 61h84c-8 -92 -76 -145 -172 -145z" />
    <glyph glyph-name="uni0439.bgr" horiz-adv-x="620" 
d="M258 -11c-120 0 -188 79 -188 203v336h121v-300c0 -83 41 -128 113 -128c71 0 119 47 119 130v298h122v-528h-122v82c-35 -51 -84 -93 -165 -93zM306 593c-96 0 -164 53 -172 145h84c12 -36 37 -61 88 -61s76 25 88 61h84c-8 -92 -76 -145 -172 -145z" />
    <glyph glyph-name="uni043A" unicode="&#x43a;" horiz-adv-x="592" 
d="M197 528v-209h60l168 209h149l-222 -258l229 -270h-146l-176 214h-62v-214h-122v528h122z" />
    <glyph glyph-name="uni043A.bgr" horiz-adv-x="592" 
d="M581 0h-146l-176 214h-62v-214h-122v730h122v-411h60l168 209h149l-222 -258z" />
    <glyph glyph-name="uni043B" unicode="&#x43b;" horiz-adv-x="622" 
d="M368 532l229 -532h-132l-155 383l-157 -383h-128l229 532h114z" />
    <glyph glyph-name="uni043C" unicode="&#x43c;" horiz-adv-x="727" 
d="M75 0v528h127l162 -246l162 246h126v-528h-119v350l-169 -251h-3l-168 249v-348h-118z" />
    <glyph glyph-name="uni043D" unicode="&#x43d;" horiz-adv-x="637" 
d="M75 0v528h122v-207h244v207h121v-528h-121v210h-244v-210h-122z" />
    <glyph glyph-name="uni043E" unicode="&#x43e;" horiz-adv-x="657" 
d="M327 -12c-161 0 -280 123 -280 273v2c0 151 120 276 282 276c163 0 281 -123 281 -274v-2c0 -149 -120 -275 -283 -275zM329 94c99 0 160 76 160 167v2c0 93 -67 170 -162 170c-97 0 -159 -76 -159 -168v-2c0 -92 68 -169 161 -169z" />
    <glyph glyph-name="uni043F" unicode="&#x43f;" horiz-adv-x="637" 
d="M75 0v528h486v-528h-121v419h-243v-419h-122z" />
    <glyph glyph-name="uni043F.bgr" horiz-adv-x="620" 
d="M75 0v528h122v-81c35 49 82 92 165 92c120 0 188 -79 188 -202v-337h-121v300c0 83 -41 129 -113 129c-71 0 -119 -48 -119 -131v-298h-122z" />
    <glyph glyph-name="uni0440" unicode="&#x440;" horiz-adv-x="671" 
d="M75 -160v688h122v-88c39 55 93 99 180 99c124 0 245 -98 245 -274v-2c0 -176 -120 -274 -245 -274c-88 0 -143 44 -180 93v-242h-122zM348 94c83 0 151 65 151 169v2c0 102 -70 169 -151 169c-83 0 -154 -68 -154 -169v-2c0 -101 71 -169 154 -169z" />
    <glyph glyph-name="uni0441" unicode="&#x441;" horiz-adv-x="571" 
d="M320 -12c-157 0 -273 123 -273 273v2c0 150 116 276 275 276c99 0 160 -37 211 -91l-76 -81c-37 39 -76 66 -136 66c-88 0 -153 -76 -153 -168v-2c0 -94 65 -169 158 -169c57 0 98 26 137 65l73 -72c-52 -59 -113 -99 -216 -99z" />
    <glyph glyph-name="uni0442" unicode="&#x442;" horiz-adv-x="563" 
d="M221 0v420h-188v108h497v-108h-188v-420h-121z" />
    <glyph glyph-name="uni0442.bgr" horiz-adv-x="949" 
d="M75 0v528h122v-80c34 47 80 91 161 91c76 0 130 -37 158 -93c43 56 98 93 178 93c116 0 185 -73 185 -202v-337h-121v300c0 84 -39 129 -107 129c-67 0 -113 -46 -113 -131v-298h-121v301c0 83 -39 128 -107 128s-113 -50 -113 -131v-298h-122z" />
    <glyph glyph-name="uni0443" unicode="&#x443;" horiz-adv-x="596" 
d="M304 136l138 392h126l-210 -542c-43 -109 -89 -149 -174 -149c-51 0 -88 12 -125 33l41 89c23 -12 46 -20 71 -20c35 0 55 15 75 60l-220 529h130z" />
    <glyph glyph-name="uni0444" unicode="&#x444;" horiz-adv-x="842" 
d="M481 -160h-120v158c-202 5 -315 118 -315 265v1c0 145 113 262 315 267v199h120v-199c202 -8 315 -118 315 -266v-1c0 -146 -114 -261 -315 -266v-158zM677 263v1c0 93 -70 160 -198 163v-326c132 3 198 69 198 162zM166 265v-1c0 -93 69 -160 197 -163v326
c-133 -4 -197 -70 -197 -162z" />
    <glyph glyph-name="uni0445" unicode="&#x445;" horiz-adv-x="580" 
d="M169 528l121 -177l123 177h129l-186 -258l194 -270h-132l-130 188l-129 -188h-129l193 269l-186 259h132z" />
    <glyph glyph-name="uni0446" unicode="&#x446;" horiz-adv-x="658" 
d="M518 -132v132h-443v528h122v-419h243v419h121v-419h67v-241h-110z" />
    <glyph glyph-name="uni0446.bgr" horiz-adv-x="637" 
d="M496 -132v132h-73v82c-35 -51 -84 -93 -165 -93c-120 0 -188 79 -188 203v336h121v-300c0 -83 41 -128 113 -128c71 0 119 47 119 130v298h122v-419h61v-241h-110z" />
    <glyph glyph-name="uni0447" unicode="&#x447;" horiz-adv-x="593" 
d="M397 0v170c-35 -9 -81 -18 -124 -18c-135 0 -215 61 -215 197v179h120v-168c0 -72 36 -98 112 -98c40 0 72 6 107 17v249h121v-528h-121z" />
    <glyph glyph-name="uni0448" unicode="&#x448;" horiz-adv-x="938" 
d="M75 0v528h122v-419h211v419h122v-419h211v419h122v-528h-788z" />
    <glyph glyph-name="uni0448.bgr" horiz-adv-x="949" 
d="M874 528v-528h-122v80c-34 -47 -80 -91 -161 -91c-76 0 -129 37 -157 93c-43 -56 -99 -93 -179 -93c-116 0 -185 73 -185 202v337h121v-300c0 -84 39 -128 107 -128c67 0 113 45 113 130v298h121v-301c0 -83 39 -127 107 -127s113 48 113 131v297h122z" />
    <glyph glyph-name="uni0449" unicode="&#x449;" horiz-adv-x="955" 
d="M75 0v528h122v-419h211v419h122v-419h211v419h122v-419h62v-241h-110v132h-740z" />
    <glyph glyph-name="uni0449.bgr" horiz-adv-x="967" 
d="M827 -132v132h-75v80c-34 -47 -80 -91 -161 -91c-76 0 -129 37 -157 93c-43 -56 -99 -93 -179 -93c-116 0 -185 73 -185 202v337h121v-300c0 -84 39 -128 107 -128c67 0 113 45 113 130v298h121v-301c0 -83 39 -127 107 -127s113 48 113 131v297h122v-419h63v-241h-110z
" />
    <glyph glyph-name="uni044A" unicode="&#x44a;" horiz-adv-x="675" 
d="M187 0v422h-159v106h279v-163h123c128 0 211 -65 211 -180v-1c0 -112 -78 -184 -219 -184h-235zM307 267v-167h112c67 0 102 28 102 83v1c0 49 -34 83 -101 83h-113z" />
    <glyph glyph-name="uni044B" unicode="&#x44b;" horiz-adv-x="810" 
d="M196 528v-163h123c129 0 210 -65 210 -180v-1c0 -112 -78 -184 -219 -184h-235v528h121zM195 267v-167h113c67 0 101 28 101 83v1c0 49 -33 83 -100 83h-114zM613 0v528h121v-528h-121z" />
    <glyph glyph-name="uni044C" unicode="&#x44c;" horiz-adv-x="564" 
d="M75 0v528h121v-163h123c129 0 210 -65 210 -180v-1c0 -112 -78 -184 -219 -184h-235zM195 100h113c67 0 101 28 101 83v1c0 49 -33 83 -100 83h-114v-167z" />
    <glyph glyph-name="uni044D" unicode="&#x44d;" horiz-adv-x="574" 
d="M165 314l240 -1c-13 73 -70 124 -150 124c-67 0 -109 -24 -153 -61l-62 79c56 49 122 84 221 84c157 0 267 -116 267 -275v-1c0 -154 -111 -275 -270 -275c-96 0 -162 31 -222 83l64 82c47 -43 92 -64 156 -64c80 0 138 52 150 128l-241 -1v98z" />
    <glyph glyph-name="uni044E" unicode="&#x44e;" horiz-adv-x="889" 
d="M197 210v-210h-122v528h122v-206h101c27 122 133 217 270 217c158 0 274 -123 274 -274v-2c0 -149 -117 -275 -276 -275c-140 0 -245 97 -269 222h-100zM568 94c92 0 153 76 153 167v2c0 93 -64 170 -155 170c-92 0 -153 -76 -153 -168v-2c0 -92 64 -169 155 -169z" />
    <glyph glyph-name="uni044E.bgr" horiz-adv-x="889" 
d="M197 210v-210h-122v730h122v-408h101c27 122 133 217 270 217c158 0 274 -123 274 -274v-2c0 -149 -117 -275 -276 -275c-140 0 -245 97 -269 222h-100zM568 94c92 0 153 76 153 167v2c0 93 -64 170 -155 170c-92 0 -153 -76 -153 -168v-2c0 -92 64 -169 155 -169z" />
    <glyph glyph-name="uni044F" unicode="&#x44f;" horiz-adv-x="604" 
d="M180 0h-139l142 193c-73 23 -123 78 -123 159v1c0 115 83 176 215 175h253v-528h-120v180h-99zM408 433h-128c-63 0 -101 -30 -101 -81v-1c0 -49 36 -81 100 -81h129v163z" />
    <glyph glyph-name="Aacute" unicode="&#xc1;" horiz-adv-x="790" 
d="M30 0l308 705h114l308 -705h-130l-71 169h-331l-72 -169h-126zM273 278h241l-121 280zM345 768l112 145l110 -48l-128 -97h-94z" />
    <glyph glyph-name="aacute" unicode="&#xe1;" horiz-adv-x="587" 
d="M228 -11c-99 0 -188 56 -188 163v2c0 115 90 170 219 170c60 0 101 -9 142 -22v13c0 76 -46 115 -131 115c-60 0 -103 -13 -151 -33l-33 95c59 25 116 43 200 43c79 0 137 -20 175 -59c39 -39 57 -94 57 -163v-313h-118v66c-36 -43 -91 -77 -172 -77zM262 77
c80 0 141 45 141 113v36c-31 12 -72 21 -120 21c-79 0 -124 -32 -124 -88v-2c0 -51 44 -80 103 -80zM246 595l104 164l110 -49l-123 -115h-91z" />
    <glyph glyph-name="aacute.alt" horiz-adv-x="671" 
d="M293 595l104 164l110 -49l-123 -115h-91zM294 -11c-124 0 -245 98 -245 274v2c0 176 119 274 245 274c86 0 143 -43 180 -93v82h121v-528h-121v88c-39 -55 -95 -99 -180 -99zM323 94c81 0 153 68 153 169v2c0 102 -72 169 -153 169c-83 0 -152 -65 -152 -169v-2
c0 -102 69 -169 152 -169z" />
    <glyph glyph-name="Abreve" unicode="&#x102;" horiz-adv-x="790" 
d="M30 0l308 705h114l308 -705h-130l-71 169h-331l-72 -169h-126zM273 278h241l-121 280zM395 766c-96 0 -165 47 -173 134h86c12 -31 36 -50 87 -50s75 19 87 50h86c-8 -87 -77 -134 -173 -134z" />
    <glyph glyph-name="abreve" unicode="&#x103;" horiz-adv-x="587" 
d="M228 -11c-99 0 -188 56 -188 163v2c0 115 90 170 219 170c60 0 101 -9 142 -22v13c0 76 -46 115 -131 115c-60 0 -103 -13 -151 -33l-33 95c59 25 116 43 200 43c79 0 137 -20 175 -59c39 -39 57 -94 57 -163v-313h-118v66c-36 -43 -91 -77 -172 -77zM262 77
c80 0 141 45 141 113v36c-31 12 -72 21 -120 21c-79 0 -124 -32 -124 -88v-2c0 -51 44 -80 103 -80zM294 593c-96 0 -164 53 -172 145h84c12 -36 37 -61 88 -61s76 25 88 61h84c-8 -92 -76 -145 -172 -145z" />
    <glyph glyph-name="abreve.alt" horiz-adv-x="671" 
d="M294 -11c-124 0 -245 98 -245 274v2c0 176 119 274 245 274c86 0 143 -43 180 -93v82h121v-528h-121v88c-39 -55 -95 -99 -180 -99zM323 94c81 0 153 68 153 169v2c0 102 -72 169 -153 169c-83 0 -152 -65 -152 -169v-2c0 -102 69 -169 152 -169zM341 593
c-96 0 -164 53 -172 145h84c12 -36 37 -61 88 -61s76 25 88 61h84c-8 -92 -76 -145 -172 -145z" />
    <glyph glyph-name="Acircumflex" unicode="&#xc2;" horiz-adv-x="790" 
d="M30 0l308 705h114l308 -705h-130l-71 169h-331l-72 -169h-126zM273 278h241l-121 280zM217 764l121 135h114l121 -135h-102l-77 57l-77 -57h-100z" />
    <glyph glyph-name="acircumflex" unicode="&#xe2;" horiz-adv-x="587" 
d="M228 -11c-99 0 -188 56 -188 163v2c0 115 90 170 219 170c60 0 101 -9 142 -22v13c0 76 -46 115 -131 115c-60 0 -103 -13 -151 -33l-33 95c59 25 116 43 200 43c79 0 137 -20 175 -59c39 -39 57 -94 57 -163v-313h-118v66c-36 -43 -91 -77 -172 -77zM262 77
c80 0 141 45 141 113v36c-31 12 -72 21 -120 21c-79 0 -124 -32 -124 -88v-2c0 -51 44 -80 103 -80zM121 595l117 147h112l117 -147h-96l-78 67l-78 -67h-94z" />
    <glyph glyph-name="acircumflex.alt" horiz-adv-x="671" 
d="M168 595l117 147h112l117 -147h-96l-78 67l-78 -67h-94zM294 -11c-124 0 -245 98 -245 274v2c0 176 119 274 245 274c86 0 143 -43 180 -93v82h121v-528h-121v88c-39 -55 -95 -99 -180 -99zM323 94c81 0 153 68 153 169v2c0 102 -72 169 -153 169
c-83 0 -152 -65 -152 -169v-2c0 -102 69 -169 152 -169z" />
    <glyph glyph-name="Adieresis" unicode="&#xc4;" horiz-adv-x="790" 
d="M30 0l308 705h114l308 -705h-130l-71 169h-331l-72 -169h-126zM273 278h241l-121 280zM435 768v112h125v-112h-125zM230 768v112h125v-112h-125z" />
    <glyph glyph-name="adieresis" unicode="&#xe4;" horiz-adv-x="587" 
d="M228 -11c-99 0 -188 56 -188 163v2c0 115 90 170 219 170c60 0 101 -9 142 -22v13c0 76 -46 115 -131 115c-60 0 -103 -13 -151 -33l-33 95c59 25 116 43 200 43c79 0 137 -20 175 -59c39 -39 57 -94 57 -163v-313h-118v66c-36 -43 -91 -77 -172 -77zM262 77
c80 0 141 45 141 113v36c-31 12 -72 21 -120 21c-79 0 -124 -32 -124 -88v-2c0 -51 44 -80 103 -80zM330 595v119h123v-119h-123zM135 595v119h123v-119h-123z" />
    <glyph glyph-name="adieresis.alt" horiz-adv-x="671" 
d="M377 595v119h123v-119h-123zM182 595v119h123v-119h-123zM294 -11c-124 0 -245 98 -245 274v2c0 176 119 274 245 274c86 0 143 -43 180 -93v82h121v-528h-121v88c-39 -55 -95 -99 -180 -99zM323 94c81 0 153 68 153 169v2c0 102 -72 169 -153 169
c-83 0 -152 -65 -152 -169v-2c0 -102 69 -169 152 -169z" />
    <glyph glyph-name="Agrave" unicode="&#xc0;" horiz-adv-x="790" 
d="M30 0l308 705h114l308 -705h-130l-71 169h-331l-72 -169h-126zM273 278h241l-121 280zM444 768h-95l-127 97l109 48z" />
    <glyph glyph-name="agrave" unicode="&#xe0;" horiz-adv-x="587" 
d="M228 -11c-99 0 -188 56 -188 163v2c0 115 90 170 219 170c60 0 101 -9 142 -22v13c0 76 -46 115 -131 115c-60 0 -103 -13 -151 -33l-33 95c59 25 116 43 200 43c79 0 137 -20 175 -59c39 -39 57 -94 57 -163v-313h-118v66c-36 -43 -91 -77 -172 -77zM262 77
c80 0 141 45 141 113v36c-31 12 -72 21 -120 21c-79 0 -124 -32 -124 -88v-2c0 -51 44 -80 103 -80zM251 595l-123 115l110 49l104 -164h-91z" />
    <glyph glyph-name="agrave.alt" horiz-adv-x="671" 
d="M294 -11c-124 0 -245 98 -245 274v2c0 176 119 274 245 274c86 0 143 -43 180 -93v82h121v-528h-121v88c-39 -55 -95 -99 -180 -99zM323 94c81 0 153 68 153 169v2c0 102 -72 169 -153 169c-83 0 -152 -65 -152 -169v-2c0 -102 69 -169 152 -169zM298 595l-123 115
l110 49l104 -164h-91z" />
    <glyph glyph-name="Amacron" unicode="&#x100;" horiz-adv-x="790" 
d="M30 0l308 705h114l308 -705h-130l-71 169h-331l-72 -169h-126zM273 278h241l-121 280zM215 779v90h360v-90h-360z" />
    <glyph glyph-name="amacron" unicode="&#x101;" horiz-adv-x="587" 
d="M228 -11c-99 0 -188 56 -188 163v2c0 115 90 170 219 170c60 0 101 -9 142 -22v13c0 76 -46 115 -131 115c-60 0 -103 -13 -151 -33l-33 95c59 25 116 43 200 43c79 0 137 -20 175 -59c39 -39 57 -94 57 -163v-313h-118v66c-36 -43 -91 -77 -172 -77zM262 77
c80 0 141 45 141 113v36c-31 12 -72 21 -120 21c-79 0 -124 -32 -124 -88v-2c0 -51 44 -80 103 -80zM124 606v88h340v-88h-340z" />
    <glyph glyph-name="amacron.alt" horiz-adv-x="671" 
d="M294 -11c-124 0 -245 98 -245 274v2c0 176 119 274 245 274c86 0 143 -43 180 -93v82h121v-528h-121v88c-39 -55 -95 -99 -180 -99zM323 94c81 0 153 68 153 169v2c0 102 -72 169 -153 169c-83 0 -152 -65 -152 -169v-2c0 -102 69 -169 152 -169zM171 606v88h340v-88
h-340z" />
    <glyph glyph-name="Aogonek" unicode="&#x104;" horiz-adv-x="790" 
d="M768 -106v-58c-12 -1 -23 -2 -32 -2c-87 1 -132 36 -132 85c0 29 15 54 40 81h-14l-71 169h-331l-72 -169h-126l308 705h114l308 -705h-31c-24 -24 -33 -44 -33 -63c0 -29 24 -43 72 -43zM273 278h241l-121 280z" />
    <glyph glyph-name="aogonek" unicode="&#x105;" horiz-adv-x="587" 
d="M525 -106v-58c-12 -1 -23 -2 -32 -2c-87 1 -132 36 -132 85c0 29 15 54 40 81h-1v66c-36 -43 -91 -77 -172 -77c-99 0 -188 56 -188 163v2c0 115 90 170 219 170c60 0 101 -9 142 -22v13c0 76 -46 115 -131 115c-60 0 -103 -13 -151 -33l-33 95c59 25 116 43 200 43
c79 0 137 -20 175 -59c39 -39 57 -94 57 -163v-313h-32c-24 -24 -33 -44 -33 -63c0 -29 24 -43 72 -43zM262 77c80 0 141 45 141 113v36c-31 12 -72 21 -120 21c-79 0 -124 -32 -124 -88v-2c0 -51 44 -80 103 -80z" />
    <glyph glyph-name="aogonek.alt" horiz-adv-x="671" 
d="M607 -106v-58c-12 -1 -23 -2 -32 -2c-87 1 -132 36 -132 85c0 29 15 54 40 81h-9v88c-39 -55 -95 -99 -180 -99c-124 0 -245 98 -245 274v2c0 176 119 274 245 274c86 0 143 -43 180 -93v82h121v-528h-27c-24 -24 -33 -44 -33 -63c0 -29 24 -43 72 -43zM323 94
c81 0 153 68 153 169v2c0 102 -72 169 -153 169c-83 0 -152 -65 -152 -169v-2c0 -102 69 -169 152 -169z" />
    <glyph glyph-name="Aring" unicode="&#xc5;" horiz-adv-x="790" 
d="M30 0l289 664c-27 19 -43 46 -43 81c0 61 55 106 119 106s119 -45 119 -106c0 -35 -16 -62 -43 -81l289 -664h-130l-71 169h-331l-72 -169h-126zM273 278h241l-121 280zM395 687c39 0 64 26 64 58c0 33 -25 58 -64 58s-64 -25 -64 -58c0 -32 25 -58 64 -58z" />
    <glyph glyph-name="aring" unicode="&#xe5;" horiz-adv-x="587" 
d="M228 -11c-99 0 -188 56 -188 163v2c0 115 90 170 219 170c60 0 101 -9 142 -22v13c0 76 -46 115 -131 115c-60 0 -103 -13 -151 -33l-33 95c59 25 116 43 200 43c79 0 137 -20 175 -59c39 -39 57 -94 57 -163v-313h-118v66c-36 -43 -91 -77 -172 -77zM262 77
c80 0 141 45 141 113v36c-31 12 -72 21 -120 21c-79 0 -124 -32 -124 -88v-2c0 -51 44 -80 103 -80zM294 593c-64 0 -116 51 -116 112s52 112 116 112s116 -51 116 -112s-52 -112 -116 -112zM294 638c37 0 67 30 67 67s-30 67 -67 67s-67 -30 -67 -67s30 -67 67 -67z" />
    <glyph glyph-name="aring.alt" horiz-adv-x="671" 
d="M341 593c-64 0 -116 51 -116 112s52 112 116 112s116 -51 116 -112s-52 -112 -116 -112zM341 638c37 0 67 30 67 67s-30 67 -67 67s-67 -30 -67 -67s30 -67 67 -67zM294 -11c-124 0 -245 98 -245 274v2c0 176 119 274 245 274c86 0 143 -43 180 -93v82h121v-528h-121v88
c-39 -55 -95 -99 -180 -99zM323 94c81 0 153 68 153 169v2c0 102 -72 169 -153 169c-83 0 -152 -65 -152 -169v-2c0 -102 69 -169 152 -169z" />
    <glyph glyph-name="aring.alt2" horiz-adv-x="587" 
d="M228 -11c-99 0 -188 56 -188 163v2c0 115 90 170 219 170c60 0 101 -9 142 -22v13c0 76 -46 115 -131 115c-60 0 -103 -13 -151 -33l-33 95c39 17 77 30 124 37c-21 21 -31 45 -31 74c0 61 52 112 116 112s116 -51 116 -112c0 -32 -15 -60 -38 -79c37 -9 65 -25 88 -48
c39 -39 57 -94 57 -163v-313h-118v66c-36 -43 -91 -77 -172 -77zM262 77c80 0 141 45 141 113v36c-31 12 -72 21 -120 21c-79 0 -124 -32 -124 -88v-2c0 -51 44 -80 103 -80zM228 603c0 -37 30 -67 67 -67c36 0 67 30 67 67c0 36 -31 67 -67 67c-37 0 -67 -31 -67 -67z" />
    <glyph glyph-name="Aringacute" unicode="&#x1fa;" horiz-adv-x="790" 
d="M30 0l289 664c-27 19 -43 46 -43 81c0 61 55 106 119 106s119 -45 119 -106c0 -35 -16 -62 -43 -81l289 -664h-130l-71 169h-331l-72 -169h-126zM273 278h241l-121 280zM340 879l117 129l109 -49l-131 -80h-95zM395 687c39 0 64 26 64 58c0 33 -25 58 -64 58
s-64 -25 -64 -58c0 -32 25 -58 64 -58z" />
    <glyph glyph-name="aringacute" unicode="&#x1fb;" horiz-adv-x="587" 
d="M245 849l110 138l108 -49l-126 -89h-92zM228 -11c-99 0 -188 56 -188 163v2c0 115 90 170 219 170c60 0 101 -9 142 -22v13c0 76 -46 115 -131 115c-60 0 -103 -13 -151 -33l-33 95c59 25 116 43 200 43c79 0 137 -20 175 -59c39 -39 57 -94 57 -163v-313h-118v66
c-36 -43 -91 -77 -172 -77zM262 77c80 0 141 45 141 113v36c-31 12 -72 21 -120 21c-79 0 -124 -32 -124 -88v-2c0 -51 44 -80 103 -80zM294 593c-64 0 -116 51 -116 112s52 112 116 112s116 -51 116 -112s-52 -112 -116 -112zM294 638c37 0 67 30 67 67s-30 67 -67 67
s-67 -30 -67 -67s30 -67 67 -67z" />
    <glyph glyph-name="aringacute.alt" horiz-adv-x="671" 
d="M292 849l110 138l108 -49l-127 -89h-91zM341 593c-64 0 -116 51 -116 112s52 112 116 112s116 -51 116 -112s-52 -112 -116 -112zM341 638c37 0 67 30 67 67s-30 67 -67 67s-67 -30 -67 -67s30 -67 67 -67zM294 -11c-124 0 -245 98 -245 274v2c0 176 119 274 245 274
c86 0 143 -43 180 -93v82h121v-528h-121v88c-39 -55 -95 -99 -180 -99zM323 94c81 0 153 68 153 169v2c0 102 -72 169 -153 169c-83 0 -152 -65 -152 -169v-2c0 -102 69 -169 152 -169z" />
    <glyph glyph-name="aringacute.alt2" horiz-adv-x="587" 
d="M245 750l110 138l108 -49l-126 -89h-92zM228 -11c-99 0 -188 56 -188 163v2c0 115 90 170 219 170c60 0 101 -9 142 -22v13c0 76 -46 115 -131 115c-60 0 -103 -13 -151 -33l-33 95c39 17 77 30 124 37c-21 21 -31 45 -31 74c0 61 52 112 116 112s116 -51 116 -112
c0 -32 -15 -60 -38 -79c37 -9 65 -25 88 -48c39 -39 57 -94 57 -163v-313h-118v66c-36 -43 -91 -77 -172 -77zM262 77c80 0 141 45 141 113v36c-31 12 -72 21 -120 21c-79 0 -124 -32 -124 -88v-2c0 -51 44 -80 103 -80zM228 603c0 -37 30 -67 67 -67c36 0 67 30 67 67
c0 36 -31 67 -67 67c-37 0 -67 -31 -67 -67z" />
    <glyph glyph-name="Atilde" unicode="&#xc3;" horiz-adv-x="790" 
d="M30 0l308 705h114l308 -705h-130l-71 169h-331l-72 -169h-126zM273 278h241l-121 280zM478 768c-31 0 -61 11 -89 22c-23 9 -42 17 -58 17c-29 0 -41 -16 -56 -49l-67 21c21 79 51 123 112 123c29 0 61 -12 89 -23c23 -8 42 -16 58 -16c29 0 40 16 55 48l68 -20
c-23 -79 -52 -123 -112 -123z" />
    <glyph glyph-name="atilde" unicode="&#xe3;" horiz-adv-x="587" 
d="M228 -11c-99 0 -188 56 -188 163v2c0 115 90 170 219 170c60 0 101 -9 142 -22v13c0 76 -46 115 -131 115c-60 0 -103 -13 -151 -33l-33 95c59 25 116 43 200 43c79 0 137 -20 175 -59c39 -39 57 -94 57 -163v-313h-118v66c-36 -43 -91 -77 -172 -77zM262 77
c80 0 141 45 141 113v36c-31 12 -72 21 -120 21c-79 0 -124 -32 -124 -88v-2c0 -51 44 -80 103 -80zM376 595c-31 0 -59 10 -84 21c-23 11 -44 19 -60 19c-29 0 -40 -15 -55 -50l-67 21c23 80 51 124 112 124c31 0 59 -10 84 -21c23 -11 44 -19 60 -19c29 0 40 15 55 50
l67 -20c-23 -81 -51 -125 -112 -125z" />
    <glyph glyph-name="atilde.alt" horiz-adv-x="671" 
d="M294 -11c-124 0 -245 98 -245 274v2c0 176 119 274 245 274c86 0 143 -43 180 -93v82h121v-528h-121v88c-39 -55 -95 -99 -180 -99zM323 94c81 0 153 68 153 169v2c0 102 -72 169 -153 169c-83 0 -152 -65 -152 -169v-2c0 -102 69 -169 152 -169zM422 595
c-31 0 -59 10 -84 21c-23 11 -44 19 -60 19c-29 0 -40 -15 -55 -50l-67 21c23 80 51 124 112 124c31 0 59 -10 84 -21c23 -11 44 -19 60 -19c29 0 40 15 55 50l67 -20c-23 -81 -51 -125 -112 -125z" />
    <glyph glyph-name="Cacute" unicode="&#x106;" horiz-adv-x="739" 
d="M415 -12c-204 0 -356 159 -356 360v2c0 199 149 362 360 362c130 0 208 -45 275 -109l-79 -91c-57 52 -116 86 -197 86c-132 0 -230 -109 -230 -246v-2c0 -137 97 -248 231 -248c85 0 141 34 201 90l79 -80c-71 -77 -154 -124 -284 -124zM359 768l112 145l110 -48
l-128 -97h-94z" />
    <glyph glyph-name="cacute" unicode="&#x107;" horiz-adv-x="571" 
d="M267 595l104 164l110 -49l-123 -115h-91zM320 -12c-157 0 -273 123 -273 273v2c0 150 116 276 275 276c99 0 160 -37 211 -91l-76 -81c-37 39 -76 66 -136 66c-88 0 -153 -76 -153 -168v-2c0 -94 65 -169 158 -169c57 0 98 26 137 65l73 -72c-52 -59 -113 -99 -216 -99z
" />
    <glyph glyph-name="Ccaron" unicode="&#x10c;" horiz-adv-x="739" 
d="M415 -12c-204 0 -356 159 -356 360v2c0 199 149 362 360 362c130 0 208 -45 275 -109l-79 -91c-57 52 -116 86 -197 86c-132 0 -230 -109 -230 -246v-2c0 -137 97 -248 231 -248c85 0 141 34 201 90l79 -80c-71 -77 -154 -124 -284 -124zM586 903l-121 -135h-114
l-121 135h102l77 -57l77 57h100z" />
    <glyph glyph-name="ccaron" unicode="&#x10d;" horiz-adv-x="571" 
d="M488 742l-117 -147h-112l-117 147h96l78 -67l78 67h94zM320 -12c-157 0 -273 123 -273 273v2c0 150 116 276 275 276c99 0 160 -37 211 -91l-76 -81c-37 39 -76 66 -136 66c-88 0 -153 -76 -153 -168v-2c0 -94 65 -169 158 -169c57 0 98 26 137 65l73 -72
c-52 -59 -113 -99 -216 -99z" />
    <glyph glyph-name="Ccedilla" unicode="&#xc7;" horiz-adv-x="739" 
d="M371 -166l-106 45l78 116c-167 32 -284 175 -284 353v2c0 199 149 362 360 362c130 0 208 -45 275 -109l-79 -91c-57 52 -116 86 -197 86c-132 0 -230 -109 -230 -246v-2c0 -137 97 -248 231 -248c85 0 141 34 201 90l79 -80c-69 -72 -144 -118 -262 -123z" />
    <glyph glyph-name="ccedilla" unicode="&#xe7;" horiz-adv-x="571" 
d="M276 -166l-106 45l80 118c-121 30 -203 137 -203 264v2c0 150 116 276 275 276c99 0 160 -37 211 -91l-76 -81c-37 39 -76 66 -136 66c-88 0 -153 -76 -153 -168v-2c0 -94 65 -169 158 -169c57 0 98 26 137 65l73 -72c-48 -55 -103 -93 -194 -98z" />
    <glyph glyph-name="Cdotaccent" unicode="&#x10a;" horiz-adv-x="739" 
d="M344 768v112h128v-112h-128zM415 -12c-204 0 -356 159 -356 360v2c0 199 149 362 360 362c130 0 208 -45 275 -109l-79 -91c-57 52 -116 86 -197 86c-132 0 -230 -109 -230 -246v-2c0 -137 97 -248 231 -248c85 0 141 34 201 90l79 -80c-71 -77 -154 -124 -284 -124z" />
    <glyph glyph-name="cdotaccent" unicode="&#x10b;" horiz-adv-x="571" 
d="M320 -12c-157 0 -273 123 -273 273v2c0 150 116 276 275 276c99 0 160 -37 211 -91l-76 -81c-37 39 -76 66 -136 66c-88 0 -153 -76 -153 -168v-2c0 -94 65 -169 158 -169c57 0 98 26 137 65l73 -72c-52 -59 -113 -99 -216 -99zM252 595v119h126v-119h-126z" />
    <glyph glyph-name="Dcaron" unicode="&#x10e;" horiz-adv-x="782" 
d="M555 893l-121 -135h-114l-121 135h102l77 -57l77 57h100zM90 0v700h261c220 0 372 -151 372 -348v-2c0 -197 -152 -350 -372 -350h-261zM351 588h-138v-476h138c147 0 243 99 243 236v2c0 137 -96 238 -243 238z" />
    <glyph glyph-name="dcaron" unicode="&#x10f;" horiz-adv-x="671" 
d="M651 541l12 190h94v-3l-56 -187h-50zM294 -11c-124 0 -245 98 -245 274v2c0 176 119 274 245 274c86 0 143 -43 180 -93v284h121v-730h-121v88c-39 -55 -95 -99 -180 -99zM323 94c81 0 153 68 153 169v2c0 102 -72 169 -153 169c-83 0 -152 -65 -152 -169v-2
c0 -102 69 -169 152 -169z" />
    <glyph glyph-name="Dcroat" unicode="&#x110;" horiz-adv-x="812" 
d="M45 308v88h75v304h261c220 0 372 -151 372 -348v-2c0 -197 -152 -350 -372 -350h-261v308h-75zM624 348v2c0 137 -96 238 -243 238h-138v-192h175v-88h-175v-196h138c147 0 243 99 243 236z" />
    <glyph glyph-name="dcroat" unicode="&#x111;" horiz-adv-x="671" 
d="M310 600v74h164v56h121v-56h69v-74h-69v-600h-121v88c-39 -55 -95 -99 -180 -99c-124 0 -245 98 -245 274v2c0 176 119 274 245 274c86 0 143 -43 180 -93v154h-164zM323 94c81 0 153 68 153 169v2c0 102 -72 169 -153 169c-83 0 -152 -65 -152 -169v-2
c0 -102 69 -169 152 -169z" />
    <glyph glyph-name="Eacute" unicode="&#xc9;" horiz-adv-x="670" 
d="M302 758l112 145l110 -48l-128 -97h-94zM90 0v700h519v-110h-396v-182h351v-111h-351v-187h401v-110h-524z" />
    <glyph glyph-name="eacute" unicode="&#xe9;" horiz-adv-x="604" 
d="M255 595l104 164l110 -49l-123 -115h-91zM318 -12c-152 0 -271 111 -271 274v2c0 152 107 275 258 275c168 0 253 -132 253 -284c0 -11 -1 -22 -2 -34h-388c13 -87 73 -134 152 -134c60 0 100 22 143 63l71 -63c-51 -60 -119 -99 -216 -99zM167 301h271
c-8 77 -54 139 -134 139c-75 0 -126 -56 -137 -139z" />
    <glyph glyph-name="Ebreve" unicode="&#x114;" horiz-adv-x="670" 
d="M351 756c-96 0 -165 47 -173 134h86c12 -31 36 -50 87 -50s75 19 87 50h86c-8 -87 -77 -134 -173 -134zM90 0v700h519v-110h-396v-182h351v-111h-351v-187h401v-110h-524z" />
    <glyph glyph-name="ebreve" unicode="&#x115;" horiz-adv-x="604" 
d="M318 -12c-152 0 -271 111 -271 274v2c0 152 107 275 258 275c168 0 253 -132 253 -284c0 -11 -1 -22 -2 -34h-388c13 -87 73 -134 152 -134c60 0 100 22 143 63l71 -63c-51 -60 -119 -99 -216 -99zM167 301h271c-8 77 -54 139 -134 139c-75 0 -126 -56 -137 -139z
M303 593c-96 0 -164 53 -172 145h84c12 -36 37 -61 88 -61s76 25 88 61h84c-8 -92 -76 -145 -172 -145z" />
    <glyph glyph-name="Ecaron" unicode="&#x11a;" horiz-adv-x="670" 
d="M529 893l-121 -135h-114l-121 135h102l77 -57l77 57h100zM90 0v700h519v-110h-396v-182h351v-111h-351v-187h401v-110h-524z" />
    <glyph glyph-name="ecaron" unicode="&#x11b;" horiz-adv-x="604" 
d="M476 742l-117 -147h-112l-117 147h96l78 -67l78 67h94zM318 -12c-152 0 -271 111 -271 274v2c0 152 107 275 258 275c168 0 253 -132 253 -284c0 -11 -1 -22 -2 -34h-388c13 -87 73 -134 152 -134c60 0 100 22 143 63l71 -63c-51 -60 -119 -99 -216 -99zM167 301h271
c-8 77 -54 139 -134 139c-75 0 -126 -56 -137 -139z" />
    <glyph glyph-name="Ecircumflex" unicode="&#xca;" horiz-adv-x="670" 
d="M90 0v700h519v-110h-396v-182h351v-111h-351v-187h401v-110h-524zM173 758l121 135h114l121 -135h-102l-77 57l-77 -57h-100z" />
    <glyph glyph-name="ecircumflex" unicode="&#xea;" horiz-adv-x="604" 
d="M130 595l117 147h112l117 -147h-96l-78 67l-78 -67h-94zM318 -12c-152 0 -271 111 -271 274v2c0 152 107 275 258 275c168 0 253 -132 253 -284c0 -11 -1 -22 -2 -34h-388c13 -87 73 -134 152 -134c60 0 100 22 143 63l71 -63c-51 -60 -119 -99 -216 -99zM167 301h271
c-8 77 -54 139 -134 139c-75 0 -126 -56 -137 -139z" />
    <glyph glyph-name="Edieresis" unicode="&#xcb;" horiz-adv-x="670" 
d="M391 758v112h125v-112h-125zM186 758v112h125v-112h-125zM90 0v700h519v-110h-396v-182h351v-111h-351v-187h401v-110h-524z" />
    <glyph glyph-name="edieresis" unicode="&#xeb;" horiz-adv-x="604" 
d="M339 595v119h123v-119h-123zM144 595v119h123v-119h-123zM318 -12c-152 0 -271 111 -271 274v2c0 152 107 275 258 275c168 0 253 -132 253 -284c0 -11 -1 -22 -2 -34h-388c13 -87 73 -134 152 -134c60 0 100 22 143 63l71 -63c-51 -60 -119 -99 -216 -99zM167 301h271
c-8 77 -54 139 -134 139c-75 0 -126 -56 -137 -139z" />
    <glyph glyph-name="Edotaccent" unicode="&#x116;" horiz-adv-x="670" 
d="M287 758v112h128v-112h-128zM90 0v700h519v-110h-396v-182h351v-111h-351v-187h401v-110h-524z" />
    <glyph glyph-name="edotaccent" unicode="&#x117;" horiz-adv-x="604" 
d="M318 -12c-152 0 -271 111 -271 274v2c0 152 107 275 258 275c168 0 253 -132 253 -284c0 -11 -1 -22 -2 -34h-388c13 -87 73 -134 152 -134c60 0 100 22 143 63l71 -63c-51 -60 -119 -99 -216 -99zM167 301h271c-8 77 -54 139 -134 139c-75 0 -126 -56 -137 -139z
M240 595v119h126v-119h-126z" />
    <glyph glyph-name="Egrave" unicode="&#xc8;" horiz-adv-x="670" 
d="M401 758h-95l-127 97l109 48zM90 0v700h519v-110h-396v-182h351v-111h-351v-187h401v-110h-524z" />
    <glyph glyph-name="egrave" unicode="&#xe8;" horiz-adv-x="604" 
d="M318 -12c-152 0 -271 111 -271 274v2c0 152 107 275 258 275c168 0 253 -132 253 -284c0 -11 -1 -22 -2 -34h-388c13 -87 73 -134 152 -134c60 0 100 22 143 63l71 -63c-51 -60 -119 -99 -216 -99zM167 301h271c-8 77 -54 139 -134 139c-75 0 -126 -56 -137 -139z
M260 595l-123 115l110 49l104 -164h-91z" />
    <glyph glyph-name="Emacron" unicode="&#x112;" horiz-adv-x="670" 
d="M171 769v90h360v-90h-360zM90 0v700h519v-110h-396v-182h351v-111h-351v-187h401v-110h-524z" />
    <glyph glyph-name="emacron" unicode="&#x113;" horiz-adv-x="604" 
d="M318 -12c-152 0 -271 111 -271 274v2c0 152 107 275 258 275c168 0 253 -132 253 -284c0 -11 -1 -22 -2 -34h-388c13 -87 73 -134 152 -134c60 0 100 22 143 63l71 -63c-51 -60 -119 -99 -216 -99zM167 301h271c-8 77 -54 139 -134 139c-75 0 -126 -56 -137 -139z
M133 606v88h340v-88h-340z" />
    <glyph glyph-name="Eogonek" unicode="&#x118;" horiz-adv-x="670" 
d="M90 0v700h519v-110h-396v-182h351v-111h-351v-187h401v-110h-39c-24 -24 -33 -44 -33 -63c0 -29 24 -43 72 -43v-58c-12 -1 -23 -2 -32 -2c-87 1 -132 36 -132 85c0 29 15 54 40 81h-400z" />
    <glyph glyph-name="eogonek" unicode="&#x119;" horiz-adv-x="604" 
d="M167 301h271c-8 77 -54 139 -134 139c-75 0 -126 -56 -137 -139zM463 150l71 -63c-20 -23 -35 -38 -58 -58c-40 -36 -55 -63 -55 -87c0 -35 24 -48 72 -48v-58c-11 -1 -21 -2 -32 -2c-87 1 -131 35 -131 82c0 27 11 49 34 76c-13 -3 -31 -4 -46 -4
c-152 0 -271 111 -271 274v2c0 152 107 275 258 275c168 0 253 -132 253 -284c0 -11 -1 -22 -2 -34h-388c13 -87 73 -134 152 -134c60 0 100 22 143 63z" />
    <glyph glyph-name="Gbreve" unicode="&#x11e;" horiz-adv-x="784" 
d="M412 766c-96 0 -165 47 -173 134h86c12 -31 36 -50 87 -50s75 19 87 50h86c-8 -87 -77 -134 -173 -134zM422 -12c-219 0 -363 156 -363 360v2c0 196 149 362 361 362c121 0 197 -34 269 -95l-78 -93c-54 46 -108 74 -196 74c-128 0 -227 -112 -227 -246v-2
c0 -144 95 -250 238 -250c67 0 126 21 169 53v130h-179v108h298v-294c-70 -59 -168 -109 -292 -109z" />
    <glyph glyph-name="gbreve" unicode="&#x11f;" horiz-adv-x="671" 
d="M311 -162c-88 0 -167 21 -236 63l45 91c57 -35 116 -55 188 -55c108 0 167 54 167 161v40c-44 -56 -99 -96 -186 -96c-125 0 -240 92 -240 247v2c0 156 116 248 240 248c89 0 144 -41 185 -90v79h121v-420c0 -88 -22 -154 -67 -199c-48 -48 -121 -71 -217 -71zM321 145
c84 0 155 59 155 145v2c0 85 -71 144 -155 144s-150 -57 -150 -144v-2c0 -86 67 -145 150 -145zM341 593c-96 0 -164 53 -172 145h84c12 -36 37 -61 88 -61s76 25 88 61h84c-8 -92 -76 -145 -172 -145z" />
    <glyph glyph-name="Gcommaaccent" unicode="&#x122;" horiz-adv-x="784" 
d="M344 -274l-8 39c49 7 73 29 70 68h-54v102h118v-87c0 -83 -43 -118 -126 -122zM422 -12c-219 0 -363 156 -363 360v2c0 196 149 362 361 362c121 0 197 -34 269 -95l-78 -93c-54 46 -108 74 -196 74c-128 0 -227 -112 -227 -246v-2c0 -144 95 -250 238 -250
c67 0 126 21 169 53v130h-179v108h298v-294c-70 -59 -168 -109 -292 -109z" />
    <glyph glyph-name="gcommaaccent" unicode="&#x123;" horiz-adv-x="671" 
d="M406 803l8 -39c-49 -6 -73 -28 -70 -67h54v-102h-118v87c0 83 43 117 126 121zM311 -162c-88 0 -167 21 -236 63l45 91c57 -35 116 -55 188 -55c108 0 167 54 167 161v40c-44 -56 -99 -96 -186 -96c-125 0 -240 92 -240 247v2c0 156 116 248 240 248
c89 0 144 -41 185 -90v79h121v-420c0 -88 -22 -154 -67 -199c-48 -48 -121 -71 -217 -71zM321 145c84 0 155 59 155 145v2c0 85 -71 144 -155 144s-150 -57 -150 -144v-2c0 -86 67 -145 150 -145z" />
    <glyph glyph-name="Gdotaccent" unicode="&#x120;" horiz-adv-x="784" 
d="M348 768v112h128v-112h-128zM422 -12c-219 0 -363 156 -363 360v2c0 196 149 362 361 362c121 0 197 -34 269 -95l-78 -93c-54 46 -108 74 -196 74c-128 0 -227 -112 -227 -246v-2c0 -144 95 -250 238 -250c67 0 126 21 169 53v130h-179v108h298v-294
c-70 -59 -168 -109 -292 -109z" />
    <glyph glyph-name="gdotaccent" unicode="&#x121;" horiz-adv-x="671" 
d="M311 -162c-88 0 -167 21 -236 63l45 91c57 -35 116 -55 188 -55c108 0 167 54 167 161v40c-44 -56 -99 -96 -186 -96c-125 0 -240 92 -240 247v2c0 156 116 248 240 248c89 0 144 -41 185 -90v79h121v-420c0 -88 -22 -154 -67 -199c-48 -48 -121 -71 -217 -71zM321 145
c84 0 155 59 155 145v2c0 85 -71 144 -155 144s-150 -57 -150 -144v-2c0 -86 67 -145 150 -145zM278 595v119h126v-119h-126z" />
    <glyph glyph-name="Hbar" unicode="&#x126;" horiz-adv-x="778" 
d="M27 511v87h72v102h123v-102h334v102h123v-102h71v-87h-71v-511h-123v294h-334v-294h-123v511h-72zM222 407h334v106h-334v-106z" />
    <glyph glyph-name="hbar" unicode="&#x127;" horiz-adv-x="620" 
d="M361 600h-164v-153c35 49 82 92 165 92c120 0 188 -79 188 -202v-337h-121v300c0 83 -41 129 -113 129c-71 0 -119 -48 -119 -131v-298h-122v600h-68v74h68v56h122v-56h164v-74z" />
    <glyph glyph-name="Iacute" unicode="&#xcd;" horiz-adv-x="317" 
d="M97 0v700h123v-700h-123zM111 758l112 145l110 -48l-128 -97h-94z" />
    <glyph glyph-name="iacute" unicode="&#xed;" horiz-adv-x="286" 
d="M96 595l104 164l110 -49l-123 -115h-91zM82 0v528h122v-528h-122z" />
    <glyph glyph-name="Ibreve" unicode="&#x12c;" horiz-adv-x="317" 
d="M97 0v700h123v-700h-123zM160 756c-96 0 -165 47 -173 134h86c12 -31 36 -50 87 -50s75 19 87 50h86c-8 -87 -77 -134 -173 -134z" />
    <glyph glyph-name="ibreve" unicode="&#x12d;" horiz-adv-x="286" 
d="M82 0v528h122v-528h-122zM144 593c-96 0 -164 53 -172 145h84c12 -36 37 -61 88 -61s76 25 88 61h84c-8 -92 -76 -145 -172 -145z" />
    <glyph glyph-name="Icircumflex" unicode="&#xce;" horiz-adv-x="317" 
d="M97 0v700h123v-700h-123zM-18 758l121 135h114l121 -135h-102l-77 57l-77 -57h-100z" />
    <glyph glyph-name="icircumflex" unicode="&#xee;" horiz-adv-x="286" 
d="M-29 595l117 147h112l117 -147h-96l-78 67l-78 -67h-94zM82 0v528h122v-528h-122z" />
    <glyph glyph-name="Idieresis" unicode="&#xcf;" horiz-adv-x="317" 
d="M97 0v700h123v-700h-123zM200 758v112h125v-112h-125zM-5 758v112h125v-112h-125z" />
    <glyph glyph-name="idieresis" unicode="&#xef;" horiz-adv-x="286" 
d="M180 595v119h123v-119h-123zM-15 595v119h123v-119h-123zM82 0v528h122v-528h-122z" />
    <glyph glyph-name="Idotaccent" unicode="&#x130;" horiz-adv-x="317" 
d="M97 0v700h123v-700h-123zM96 758v112h128v-112h-128z" />
    <glyph glyph-name="i.dot" horiz-adv-x="286" 
d="M78 609v115h130v-115h-130zM82 0v528h122v-528h-122z" />
    <glyph glyph-name="dotlessi" unicode="&#x131;" horiz-adv-x="286" 
d="M82 0v528h122v-528h-122z" />
    <glyph glyph-name="Igrave" unicode="&#xcc;" horiz-adv-x="317" 
d="M97 0v700h123v-700h-123zM210 758h-95l-127 97l109 48z" />
    <glyph glyph-name="igrave" unicode="&#xec;" horiz-adv-x="286" 
d="M82 0v528h122v-528h-122zM101 595l-123 115l110 49l104 -164h-91z" />
    <glyph glyph-name="Imacron" unicode="&#x12a;" horiz-adv-x="317" 
d="M97 0v700h123v-700h-123zM-20 769v90h360v-90h-360z" />
    <glyph glyph-name="imacron" unicode="&#x12b;" horiz-adv-x="286" 
d="M82 0v528h122v-528h-122zM-26 606v88h340v-88h-340z" />
    <glyph glyph-name="Iogonek" unicode="&#x12e;" horiz-adv-x="317" 
d="M97 0v700h123v-700h-22c-24 -24 -33 -44 -33 -63c0 -29 24 -43 72 -43v-58c-12 -1 -23 -2 -32 -2c-87 1 -132 36 -132 85c0 29 15 54 40 81h-16z" />
    <glyph glyph-name="iogonek" unicode="&#x12f;" horiz-adv-x="286" 
d="M82 0v528h122v-528h-21c-24 -24 -33 -44 -33 -63c0 -29 24 -43 72 -43v-58c-12 -1 -23 -2 -32 -2c-87 1 -132 36 -132 85c0 29 15 54 40 81h-16zM78 609v115h130v-115h-130z" />
    <glyph glyph-name="Kcommaaccent" unicode="&#x136;" horiz-adv-x="726" 
d="M297 -267l-8 39c49 7 73 29 70 68h-54v102h118v-87c0 -83 -43 -118 -126 -122zM90 0v700h123v-352l332 352h153l-292 -301l305 -399h-150l-239 315l-109 -112v-203h-123z" />
    <glyph glyph-name="kcommaaccent" unicode="&#x137;" horiz-adv-x="582" 
d="M236 -272l-8 39c49 7 73 29 70 68h-54v102h118v-87c0 -83 -43 -118 -126 -122zM75 0v730h122v-436l219 234h147l-210 -215l217 -313h-142l-156 229l-75 -78v-151h-122z" />
    <glyph glyph-name="Lacute" unicode="&#x139;" horiz-adv-x="618" 
d="M120 758l112 145l110 -48l-128 -97h-94zM90 0v700h123v-588h368v-112h-491z" />
    <glyph glyph-name="lacute" unicode="&#x13a;" horiz-adv-x="286" 
d="M98 775l112 145l110 -48l-128 -97h-94zM82 0v730h122v-730h-122z" />
    <glyph glyph-name="Lcaron" unicode="&#x13d;" horiz-adv-x="618" 
d="M292 511l12 190h94v-3l-56 -187h-50zM90 0v700h123v-588h368v-112h-491z" />
    <glyph glyph-name="lcaron" unicode="&#x13e;" horiz-adv-x="286" 
d="M260 541l12 190h94v-3l-56 -187h-50zM82 0v730h122v-730h-122z" />
    <glyph glyph-name="Lcommaaccent" unicode="&#x13b;" horiz-adv-x="618" 
d="M266 -272l-8 39c49 7 73 29 70 68h-54v102h118v-87c0 -83 -43 -118 -126 -122zM90 0v700h123v-588h368v-112h-491z" />
    <glyph glyph-name="lcommaaccent" unicode="&#x13c;" horiz-adv-x="286" 
d="M77 -272l-8 39c49 7 73 29 70 68h-54v102h118v-87c0 -83 -43 -118 -126 -122zM82 0v730h122v-730h-122z" />
    <glyph glyph-name="Ldot" unicode="&#x13f;" horiz-adv-x="618" 
d="M413 317v119h123v-119h-123zM90 0v700h123v-588h368v-112h-491z" />
    <glyph glyph-name="ldot" unicode="&#x140;" horiz-adv-x="367" 
d="M274 319v112h106v-112h-106zM82 0v730h122v-730h-122z" />
    <glyph glyph-name="Lslash" unicode="&#x141;" horiz-adv-x="648" 
d="M403 386l-161 -73v-201h369v-112h-491v258l-75 -33v117l75 33v325h122v-270l161 73v-117z" />
    <glyph glyph-name="lslash" unicode="&#x142;" horiz-adv-x="346" 
d="M309 383l-76 -39v-344h-120v283l-76 -39v116l76 39v331h120v-270l76 39v-116z" />
    <glyph glyph-name="Nacute" unicode="&#x143;" horiz-adv-x="790" 
d="M345 758l112 145l110 -48l-128 -97h-94zM90 0v700h114l375 -484v484h121v-700h-103l-386 498v-498h-121z" />
    <glyph glyph-name="nacute" unicode="&#x144;" horiz-adv-x="620" 
d="M264 595l104 164l110 -49l-123 -115h-91zM75 0v528h122v-81c35 49 82 92 165 92c120 0 188 -79 188 -202v-337h-121v300c0 83 -41 129 -113 129c-71 0 -119 -48 -119 -131v-298h-122z" />
    <glyph glyph-name="Ncaron" unicode="&#x147;" horiz-adv-x="790" 
d="M573 893l-121 -135h-114l-121 135h102l77 -57l77 57h100zM90 0v700h114l375 -484v484h121v-700h-103l-386 498v-498h-121z" />
    <glyph glyph-name="ncaron" unicode="&#x148;" horiz-adv-x="620" 
d="M485 742l-117 -147h-112l-117 147h96l78 -67l78 67h94zM75 0v528h122v-81c35 49 82 92 165 92c120 0 188 -79 188 -202v-337h-121v300c0 83 -41 129 -113 129c-71 0 -119 -48 -119 -131v-298h-122z" />
    <glyph glyph-name="Ncommaaccent" unicode="&#x145;" horiz-adv-x="790" 
d="M327 -267l-8 39c49 7 73 29 70 68h-54v102h118v-87c0 -83 -43 -118 -126 -122zM90 0v700h114l375 -484v484h121v-700h-103l-386 498v-498h-121z" />
    <glyph glyph-name="ncommaaccent" unicode="&#x146;" horiz-adv-x="620" 
d="M245 -272l-8 39c49 7 73 29 70 68h-54v102h118v-87c0 -83 -43 -118 -126 -122zM75 0v528h122v-81c35 49 82 92 165 92c120 0 188 -79 188 -202v-337h-121v300c0 83 -41 129 -113 129c-71 0 -119 -48 -119 -131v-298h-122z" />
    <glyph glyph-name="Ntilde" unicode="&#xd1;" horiz-adv-x="790" 
d="M478 758c-31 0 -61 11 -89 22c-23 9 -42 17 -58 17c-29 0 -41 -16 -56 -49l-67 21c21 79 51 123 112 123c29 0 61 -12 89 -23c23 -8 42 -16 58 -16c29 0 40 16 55 48l68 -20c-23 -79 -52 -123 -112 -123zM90 0v700h114l375 -484v484h121v-700h-103l-386 498v-498h-121z
" />
    <glyph glyph-name="ntilde" unicode="&#xf1;" horiz-adv-x="620" 
d="M75 0v528h122v-81c35 49 82 92 165 92c120 0 188 -79 188 -202v-337h-121v300c0 83 -41 129 -113 129c-71 0 -119 -48 -119 -131v-298h-122zM393 595c-31 0 -59 10 -84 21c-23 11 -44 19 -60 19c-29 0 -40 -15 -55 -50l-67 21c23 80 51 124 112 124c31 0 59 -10 84 -21
c23 -11 44 -19 60 -19c29 0 40 15 55 50l67 -20c-23 -81 -51 -125 -112 -125z" />
    <glyph glyph-name="Oacute" unicode="&#xd3;" horiz-adv-x="850" 
d="M375 768l112 145l110 -48l-128 -97h-94zM424 -12c-215 0 -365 163 -365 360v2c0 196 152 362 367 362s365 -163 365 -360v-2c0 -196 -152 -362 -367 -362zM426 102c139 0 236 110 236 246v2c0 136 -98 248 -238 248c-139 0 -236 -110 -236 -246v-2
c0 -136 98 -248 238 -248z" />
    <glyph glyph-name="oacute" unicode="&#xf3;" horiz-adv-x="657" 
d="M280 595l104 164l110 -49l-123 -115h-91zM327 -12c-161 0 -280 123 -280 273v2c0 151 120 276 282 276c163 0 281 -123 281 -274v-2c0 -149 -120 -275 -283 -275zM329 94c99 0 160 76 160 167v2c0 93 -67 170 -162 170c-97 0 -159 -76 -159 -168v-2
c0 -92 68 -169 161 -169z" />
    <glyph glyph-name="Obreve" unicode="&#x14e;" horiz-adv-x="850" 
d="M425 766c-96 0 -165 47 -173 134h86c12 -31 36 -50 87 -50s75 19 87 50h86c-8 -87 -77 -134 -173 -134zM424 -12c-215 0 -365 163 -365 360v2c0 196 152 362 367 362s365 -163 365 -360v-2c0 -196 -152 -362 -367 -362zM426 102c139 0 236 110 236 246v2
c0 136 -98 248 -238 248c-139 0 -236 -110 -236 -246v-2c0 -136 98 -248 238 -248z" />
    <glyph glyph-name="obreve" unicode="&#x14f;" horiz-adv-x="657" 
d="M327 -12c-161 0 -280 123 -280 273v2c0 151 120 276 282 276c163 0 281 -123 281 -274v-2c0 -149 -120 -275 -283 -275zM329 94c99 0 160 76 160 167v2c0 93 -67 170 -162 170c-97 0 -159 -76 -159 -168v-2c0 -92 68 -169 161 -169zM328 593c-96 0 -164 53 -172 145h84
c12 -36 37 -61 88 -61s76 25 88 61h84c-8 -92 -76 -145 -172 -145z" />
    <glyph glyph-name="Ocircumflex" unicode="&#xd4;" horiz-adv-x="850" 
d="M424 -12c-215 0 -365 163 -365 360v2c0 196 152 362 367 362s365 -163 365 -360v-2c0 -196 -152 -362 -367 -362zM426 102c139 0 236 110 236 246v2c0 136 -98 248 -238 248c-139 0 -236 -110 -236 -246v-2c0 -136 98 -248 238 -248zM247 768l121 135h114l121 -135h-102
l-77 57l-77 -57h-100z" />
    <glyph glyph-name="ocircumflex" unicode="&#xf4;" horiz-adv-x="657" 
d="M155 595l117 147h112l117 -147h-96l-78 67l-78 -67h-94zM327 -12c-161 0 -280 123 -280 273v2c0 151 120 276 282 276c163 0 281 -123 281 -274v-2c0 -149 -120 -275 -283 -275zM329 94c99 0 160 76 160 167v2c0 93 -67 170 -162 170c-97 0 -159 -76 -159 -168v-2
c0 -92 68 -169 161 -169z" />
    <glyph glyph-name="Odieresis" unicode="&#xd6;" horiz-adv-x="850" 
d="M465 768v112h125v-112h-125zM260 768v112h125v-112h-125zM424 -12c-215 0 -365 163 -365 360v2c0 196 152 362 367 362s365 -163 365 -360v-2c0 -196 -152 -362 -367 -362zM426 102c139 0 236 110 236 246v2c0 136 -98 248 -238 248c-139 0 -236 -110 -236 -246v-2
c0 -136 98 -248 238 -248z" />
    <glyph glyph-name="odieresis" unicode="&#xf6;" horiz-adv-x="657" 
d="M364 595v119h123v-119h-123zM169 595v119h123v-119h-123zM327 -12c-161 0 -280 123 -280 273v2c0 151 120 276 282 276c163 0 281 -123 281 -274v-2c0 -149 -120 -275 -283 -275zM329 94c99 0 160 76 160 167v2c0 93 -67 170 -162 170c-97 0 -159 -76 -159 -168v-2
c0 -92 68 -169 161 -169z" />
    <glyph glyph-name="Ograve" unicode="&#xd2;" horiz-adv-x="850" 
d="M474 768h-95l-127 97l109 48zM424 -12c-215 0 -365 163 -365 360v2c0 196 152 362 367 362s365 -163 365 -360v-2c0 -196 -152 -362 -367 -362zM426 102c139 0 236 110 236 246v2c0 136 -98 248 -238 248c-139 0 -236 -110 -236 -246v-2c0 -136 98 -248 238 -248z" />
    <glyph glyph-name="ograve" unicode="&#xf2;" horiz-adv-x="657" 
d="M327 -12c-161 0 -280 123 -280 273v2c0 151 120 276 282 276c163 0 281 -123 281 -274v-2c0 -149 -120 -275 -283 -275zM329 94c99 0 160 76 160 167v2c0 93 -67 170 -162 170c-97 0 -159 -76 -159 -168v-2c0 -92 68 -169 161 -169zM285 595l-123 115l110 49l104 -164
h-91z" />
    <glyph glyph-name="Ohungarumlaut" unicode="&#x150;" horiz-adv-x="850" 
d="M424 -12c-215 0 -365 163 -365 360v2c0 196 152 362 367 362s365 -163 365 -360v-2c0 -196 -152 -362 -367 -362zM426 102c139 0 236 110 236 246v2c0 136 -98 248 -238 248c-139 0 -236 -110 -236 -246v-2c0 -136 98 -248 238 -248zM281 768l112 145l106 -48l-127 -97
h-91zM456 768l112 145l106 -48l-127 -97h-91z" />
    <glyph glyph-name="ohungarumlaut" unicode="&#x151;" horiz-adv-x="657" 
d="M358 595l105 164l106 -49l-123 -115h-88zM188 595l103 164l106 -49l-121 -115h-88zM327 -12c-161 0 -280 123 -280 273v2c0 151 120 276 282 276c163 0 281 -123 281 -274v-2c0 -149 -120 -275 -283 -275zM329 94c99 0 160 76 160 167v2c0 93 -67 170 -162 170
c-97 0 -159 -76 -159 -168v-2c0 -92 68 -169 161 -169z" />
    <glyph glyph-name="Omacron" unicode="&#x14c;" horiz-adv-x="850" 
d="M245 779v90h360v-90h-360zM424 -12c-215 0 -365 163 -365 360v2c0 196 152 362 367 362s365 -163 365 -360v-2c0 -196 -152 -362 -367 -362zM426 102c139 0 236 110 236 246v2c0 136 -98 248 -238 248c-139 0 -236 -110 -236 -246v-2c0 -136 98 -248 238 -248z" />
    <glyph glyph-name="omacron" unicode="&#x14d;" horiz-adv-x="657" 
d="M158 606v88h340v-88h-340zM327 -12c-161 0 -280 123 -280 273v2c0 151 120 276 282 276c163 0 281 -123 281 -274v-2c0 -149 -120 -275 -283 -275zM329 94c99 0 160 76 160 167v2c0 93 -67 170 -162 170c-97 0 -159 -76 -159 -168v-2c0 -92 68 -169 161 -169z" />
    <glyph glyph-name="Oslash" unicode="&#xd8;" horiz-adv-x="850" 
d="M678 705h121l-99 -112c59 -64 91 -149 91 -241v-2c0 -196 -152 -362 -367 -362c-79 0 -148 21 -205 58l-47 -51h-121l98 112c-57 64 -90 149 -90 241v2c0 196 152 362 367 362c79 0 147 -22 204 -59zM426 99c140 0 238 112 238 249v1c0 57 -16 109 -47 152l-321 -364
c36 -24 81 -38 130 -38zM186 352v-1c0 -57 17 -109 46 -152l322 364c-37 24 -81 38 -130 38c-140 0 -238 -112 -238 -249z" />
    <glyph glyph-name="oslash" unicode="&#xf8;" horiz-adv-x="657" 
d="M515 534h110l-81 -91c43 -48 66 -110 66 -178v-2c0 -149 -120 -275 -283 -275c-57 0 -109 15 -152 42l-33 -35h-110l80 89c-41 47 -65 109 -65 177v2c0 151 120 276 282 276c57 0 109 -15 152 -42zM329 90c100 0 163 78 163 171v2c0 35 -10 67 -26 94l-219 -245
c24 -15 51 -22 82 -22zM165 265v-1c0 -35 9 -66 26 -95l219 244c-25 15 -52 23 -83 23c-99 0 -162 -78 -162 -171z" />
    <glyph glyph-name="Oslashacute" unicode="&#x1fe;" horiz-adv-x="850" 
d="M678 705h121l-99 -112c59 -64 91 -149 91 -241v-2c0 -196 -152 -362 -367 -362c-79 0 -148 21 -205 58l-47 -51h-121l98 112c-57 64 -90 149 -90 241v2c0 196 152 362 367 362c79 0 147 -22 204 -59zM426 99c140 0 238 112 238 249v1c0 57 -16 109 -47 152l-321 -364
c36 -24 81 -38 130 -38zM186 352v-1c0 -57 17 -109 46 -152l322 364c-37 24 -81 38 -130 38c-140 0 -238 -112 -238 -249zM375 768l112 145l110 -48l-128 -97h-94z" />
    <glyph glyph-name="oslashacute" unicode="&#x1ff;" horiz-adv-x="657" 
d="M515 534h110l-81 -91c43 -48 66 -110 66 -178v-2c0 -149 -120 -275 -283 -275c-57 0 -109 15 -152 42l-33 -35h-110l80 89c-41 47 -65 109 -65 177v2c0 151 120 276 282 276c57 0 109 -15 152 -42zM329 90c100 0 163 78 163 171v2c0 35 -10 67 -26 94l-219 -245
c24 -15 51 -22 82 -22zM165 265v-1c0 -35 9 -66 26 -95l219 244c-25 15 -52 23 -83 23c-99 0 -162 -78 -162 -171zM280 595l104 164l110 -49l-123 -115h-91z" />
    <glyph glyph-name="Otilde" unicode="&#xd5;" horiz-adv-x="850" 
d="M508 768c-31 0 -61 11 -89 22c-23 9 -42 17 -58 17c-29 0 -41 -16 -56 -49l-67 21c21 79 51 123 112 123c29 0 61 -12 89 -23c23 -8 42 -16 58 -16c29 0 40 16 55 48l68 -20c-23 -79 -52 -123 -112 -123zM424 -12c-215 0 -365 163 -365 360v2c0 196 152 362 367 362
s365 -163 365 -360v-2c0 -196 -152 -362 -367 -362zM426 102c139 0 236 110 236 246v2c0 136 -98 248 -238 248c-139 0 -236 -110 -236 -246v-2c0 -136 98 -248 238 -248z" />
    <glyph glyph-name="otilde" unicode="&#xf5;" horiz-adv-x="657" 
d="M327 -12c-161 0 -280 123 -280 273v2c0 151 120 276 282 276c163 0 281 -123 281 -274v-2c0 -149 -120 -275 -283 -275zM329 94c99 0 160 76 160 167v2c0 93 -67 170 -162 170c-97 0 -159 -76 -159 -168v-2c0 -92 68 -169 161 -169zM409 595c-31 0 -59 10 -84 21
c-23 11 -44 19 -60 19c-29 0 -40 -15 -55 -50l-67 21c23 80 51 124 112 124c31 0 59 -10 84 -21c23 -11 44 -19 60 -19c29 0 40 15 55 50l67 -20c-23 -81 -51 -125 -112 -125z" />
    <glyph glyph-name="Racute" unicode="&#x154;" horiz-adv-x="723" 
d="M90 0v700h312c88 0 157 -26 202 -70c37 -39 58 -90 58 -151v-2c0 -115 -69 -184 -166 -212l189 -265h-146l-172 244h-154v-244h-123zM213 353h180c88 0 144 45 144 117v2c0 76 -53 116 -145 116h-179v-235zM303 758l112 145l110 -48l-128 -97h-94z" />
    <glyph glyph-name="racute" unicode="&#x155;" horiz-adv-x="413" 
d="M175 595l104 164l110 -49l-123 -115h-91zM75 0v528h122v-119c33 80 94 133 187 129v-128h-7c-107 0 -180 -69 -180 -209v-201h-122z" />
    <glyph glyph-name="Rcaron" unicode="&#x158;" horiz-adv-x="723" 
d="M530 893l-121 -135h-114l-121 135h102l77 -57l77 57h100zM90 0v700h312c88 0 157 -26 202 -70c37 -39 58 -90 58 -151v-2c0 -115 -69 -184 -166 -212l189 -265h-146l-172 244h-154v-244h-123zM213 353h180c88 0 144 45 144 117v2c0 76 -53 116 -145 116h-179v-235z" />
    <glyph glyph-name="rcaron" unicode="&#x159;" horiz-adv-x="413" 
d="M398 742l-117 -147h-112l-117 147h96l78 -67l78 67h94zM75 0v528h122v-119c33 80 94 133 187 129v-128h-7c-107 0 -180 -69 -180 -209v-201h-122z" />
    <glyph glyph-name="Rcommaaccent" unicode="&#x156;" horiz-adv-x="723" 
d="M285 -267l-8 39c49 7 73 29 70 68h-54v102h118v-87c0 -83 -43 -118 -126 -122zM90 0v700h312c88 0 157 -26 202 -70c37 -39 58 -90 58 -151v-2c0 -115 -69 -184 -166 -212l189 -265h-146l-172 244h-154v-244h-123zM213 353h180c88 0 144 45 144 117v2
c0 76 -53 116 -145 116h-179v-235z" />
    <glyph glyph-name="rcommaaccent" unicode="&#x157;" horiz-adv-x="413" 
d="M77 -272l-8 39c49 7 73 29 70 68h-54v102h118v-87c0 -83 -43 -118 -126 -122zM75 0v528h122v-119c33 80 94 133 187 129v-128h-7c-107 0 -180 -69 -180 -209v-201h-122z" />
    <glyph glyph-name="Sacute" unicode="&#x15a;" horiz-adv-x="640" 
d="M335 -10c-108 0 -208 36 -292 112l74 88c68 -59 134 -91 221 -91c76 0 124 36 124 88v2c0 49 -28 78 -158 107c-149 35 -233 81 -233 209v2c0 120 100 203 239 203c103 0 182 -31 254 -88l-66 -93c-64 47 -126 72 -190 72c-72 0 -114 -36 -114 -83v-2
c0 -54 32 -78 167 -110c147 -38 224 -88 224 -205v-2c0 -132 -103 -209 -250 -209zM275 768l112 145l110 -48l-128 -97h-94z" />
    <glyph glyph-name="sacute" unicode="&#x15b;" horiz-adv-x="501" 
d="M205 595l104 164l110 -49l-123 -115h-91zM257 -10c-76 0 -157 26 -224 79l54 82c59 -43 118 -65 173 -65c52 0 82 22 82 57v2c0 40 -56 55 -118 74c-77 21 -165 54 -165 154v2c0 101 83 162 188 162c67 0 138 -23 194 -60l-48 -86c-51 31 -105 50 -149 50
c-47 0 -74 -23 -74 -52v-2c0 -38 57 -56 119 -75c76 -24 164 -59 164 -154v-2c0 -111 -86 -166 -196 -166z" />
    <glyph glyph-name="Scaron" unicode="&#x160;" horiz-adv-x="640" 
d="M335 -10c-108 0 -208 36 -292 112l74 88c68 -59 134 -91 221 -91c76 0 124 36 124 88v2c0 49 -28 78 -158 107c-149 35 -233 81 -233 209v2c0 120 100 203 239 203c103 0 182 -31 254 -88l-66 -93c-64 47 -126 72 -190 72c-72 0 -114 -36 -114 -83v-2
c0 -54 32 -78 167 -110c147 -38 224 -88 224 -205v-2c0 -132 -103 -209 -250 -209zM503 903l-121 -135h-114l-121 135h102l77 -57l77 57h100z" />
    <glyph glyph-name="scaron" unicode="&#x161;" horiz-adv-x="501" 
d="M426 742l-117 -147h-112l-117 147h96l78 -67l78 67h94zM257 -10c-76 0 -157 26 -224 79l54 82c59 -43 118 -65 173 -65c52 0 82 22 82 57v2c0 40 -56 55 -118 74c-77 21 -165 54 -165 154v2c0 101 83 162 188 162c67 0 138 -23 194 -60l-48 -86c-51 31 -105 50 -149 50
c-47 0 -74 -23 -74 -52v-2c0 -38 57 -56 119 -75c76 -24 164 -59 164 -154v-2c0 -111 -86 -166 -196 -166z" />
    <glyph glyph-name="Scedilla" unicode="&#x15e;" horiz-adv-x="640" 
d="M307 -166l-106 45l78 115c-87 11 -167 45 -236 108l74 88c68 -59 134 -91 221 -91c76 0 124 36 124 88v2c0 49 -28 78 -158 107c-149 35 -233 81 -233 209v2c0 120 100 203 239 203c103 0 182 -31 254 -88l-66 -93c-64 47 -126 72 -190 72c-72 0 -114 -36 -114 -83v-2
c0 -54 32 -78 167 -110c147 -38 224 -88 224 -205v-2c0 -120 -86 -194 -211 -207z" />
    <glyph glyph-name="scedilla" unicode="&#x15f;" horiz-adv-x="501" 
d="M226 -166l-106 45l79 116c-59 11 -117 34 -166 74l54 82c59 -43 118 -65 173 -65c52 0 82 22 82 57v2c0 40 -56 55 -118 74c-77 21 -165 54 -165 154v2c0 101 83 162 188 162c67 0 138 -23 194 -60l-48 -86c-51 31 -105 50 -149 50c-47 0 -74 -23 -74 -52v-2
c0 -38 57 -56 119 -75c76 -24 164 -59 164 -154v-2c0 -99 -68 -153 -160 -164z" />
    <glyph glyph-name="Scommaaccent" unicode="&#x218;" horiz-adv-x="640" 
d="M257 -274l-8 39c49 7 73 29 70 68h-54v102h118v-87c0 -83 -43 -118 -126 -122zM335 -10c-108 0 -208 36 -292 112l74 88c68 -59 134 -91 221 -91c76 0 124 36 124 88v2c0 49 -28 78 -158 107c-149 35 -233 81 -233 209v2c0 120 100 203 239 203c103 0 182 -31 254 -88
l-66 -93c-64 47 -126 72 -190 72c-72 0 -114 -36 -114 -83v-2c0 -54 32 -78 167 -110c147 -38 224 -88 224 -205v-2c0 -132 -103 -209 -250 -209z" />
    <glyph glyph-name="scommaaccent" unicode="&#x219;" horiz-adv-x="501" 
d="M186 -272l-8 39c49 7 73 29 70 68h-54v102h118v-87c0 -83 -43 -118 -126 -122zM257 -10c-76 0 -157 26 -224 79l54 82c59 -43 118 -65 173 -65c52 0 82 22 82 57v2c0 40 -56 55 -118 74c-77 21 -165 54 -165 154v2c0 101 83 162 188 162c67 0 138 -23 194 -60l-48 -86
c-51 31 -105 50 -149 50c-47 0 -74 -23 -74 -52v-2c0 -38 57 -56 119 -75c76 -24 164 -59 164 -154v-2c0 -111 -86 -166 -196 -166z" />
    <glyph glyph-name="Tcaron" unicode="&#x164;" horiz-adv-x="645" 
d="M500 893l-121 -135h-114l-121 135h102l77 -57l77 57h100zM261 0v586h-223v114h569v-114h-223v-586h-123z" />
    <glyph glyph-name="tcaron" unicode="&#x165;" horiz-adv-x="411" 
d="M295 589l12 190h94v-3l-56 -187h-50zM253 -9c-89 0 -152 39 -152 155v278h-67v104h67v145h121v-145h142v-104h-142v-259c0 -47 24 -66 65 -66c26 0 51 6 75 18v-99c-31 -17 -62 -27 -109 -27z" />
    <glyph glyph-name="Tcommaaccent" unicode="&#x162;" horiz-adv-x="645" 
d="M255 -272l-8 39c49 7 73 29 70 68h-54v102h118v-87c0 -83 -43 -118 -126 -122zM261 0v586h-223v114h569v-114h-223v-586h-123z" />
    <glyph glyph-name="Tcommaaccent" unicode="&#x21a;" horiz-adv-x="645" 
d="M255 -272l-8 39c49 7 73 29 70 68h-54v102h118v-87c0 -83 -43 -118 -126 -122zM261 0v586h-223v114h569v-114h-223v-586h-123z" />
    <glyph glyph-name="tcommaaccent" unicode="&#x163;" horiz-adv-x="411" 
d="M157 -272l-8 39c49 7 73 29 70 68h-54v102h118v-87c0 -83 -43 -118 -126 -122zM253 -9c-89 0 -152 39 -152 155v278h-67v104h67v145h121v-145h142v-104h-142v-259c0 -47 24 -66 65 -66c26 0 51 6 75 18v-99c-31 -17 -62 -27 -109 -27z" />
    <glyph glyph-name="tcommaaccent" unicode="&#x21b;" horiz-adv-x="411" 
d="M157 -272l-8 39c49 7 73 29 70 68h-54v102h118v-87c0 -83 -43 -118 -126 -122zM253 -9c-89 0 -152 39 -152 155v278h-67v104h67v145h121v-145h142v-104h-142v-259c0 -47 24 -66 65 -66c26 0 51 6 75 18v-99c-31 -17 -62 -27 -109 -27z" />
    <glyph glyph-name="Uacute" unicode="&#xda;" horiz-adv-x="757" 
d="M329 758l112 145l110 -48l-128 -97h-94zM377 -11c-181 0 -298 105 -298 308v403h123v-398c0 -131 66 -199 177 -199c109 0 176 65 176 194v403h123v-397c0 -209 -118 -314 -301 -314z" />
    <glyph glyph-name="uacute" unicode="&#xfa;" horiz-adv-x="620" 
d="M258 595l104 164l110 -49l-123 -115h-91zM258 -11c-120 0 -188 79 -188 203v336h121v-300c0 -83 41 -128 113 -128c71 0 119 47 119 130v298h122v-528h-122v82c-35 -51 -84 -93 -165 -93z" />
    <glyph glyph-name="Ubreve" unicode="&#x16c;" horiz-adv-x="757" 
d="M378 749c-96 0 -165 47 -173 134h86c12 -31 36 -50 87 -50s75 19 87 50h86c-8 -87 -77 -134 -173 -134zM377 -11c-181 0 -298 105 -298 308v403h123v-398c0 -131 66 -199 177 -199c109 0 176 65 176 194v403h123v-397c0 -209 -118 -314 -301 -314z" />
    <glyph glyph-name="ubreve" unicode="&#x16d;" horiz-adv-x="620" 
d="M258 -11c-120 0 -188 79 -188 203v336h121v-300c0 -83 41 -128 113 -128c71 0 119 47 119 130v298h122v-528h-122v82c-35 -51 -84 -93 -165 -93zM306 593c-96 0 -164 53 -172 145h84c12 -36 37 -61 88 -61s76 25 88 61h84c-8 -92 -76 -145 -172 -145z" />
    <glyph glyph-name="Ucircumflex" unicode="&#xdb;" horiz-adv-x="757" 
d="M377 -11c-181 0 -298 105 -298 308v403h123v-398c0 -131 66 -199 177 -199c109 0 176 65 176 194v403h123v-397c0 -209 -118 -314 -301 -314zM200 758l121 135h114l121 -135h-102l-77 57l-77 -57h-100z" />
    <glyph glyph-name="ucircumflex" unicode="&#xfb;" horiz-adv-x="620" 
d="M133 595l117 147h112l117 -147h-96l-78 67l-78 -67h-94zM258 -11c-120 0 -188 79 -188 203v336h121v-300c0 -83 41 -128 113 -128c71 0 119 47 119 130v298h122v-528h-122v82c-35 -51 -84 -93 -165 -93z" />
    <glyph glyph-name="Udieresis" unicode="&#xdc;" horiz-adv-x="757" 
d="M418 758v112h125v-112h-125zM213 758v112h125v-112h-125zM377 -11c-181 0 -298 105 -298 308v403h123v-398c0 -131 66 -199 177 -199c109 0 176 65 176 194v403h123v-397c0 -209 -118 -314 -301 -314z" />
    <glyph glyph-name="udieresis" unicode="&#xfc;" horiz-adv-x="620" 
d="M342 595v119h123v-119h-123zM147 595v119h123v-119h-123zM258 -11c-120 0 -188 79 -188 203v336h121v-300c0 -83 41 -128 113 -128c71 0 119 47 119 130v298h122v-528h-122v82c-35 -51 -84 -93 -165 -93z" />
    <glyph glyph-name="Ugrave" unicode="&#xd9;" horiz-adv-x="757" 
d="M428 758h-95l-127 97l109 48zM377 -11c-181 0 -298 105 -298 308v403h123v-398c0 -131 66 -199 177 -199c109 0 176 65 176 194v403h123v-397c0 -209 -118 -314 -301 -314z" />
    <glyph glyph-name="ugrave" unicode="&#xf9;" horiz-adv-x="620" 
d="M258 -11c-120 0 -188 79 -188 203v336h121v-300c0 -83 41 -128 113 -128c71 0 119 47 119 130v298h122v-528h-122v82c-35 -51 -84 -93 -165 -93zM263 595l-123 115l110 49l104 -164h-91z" />
    <glyph glyph-name="Uhungarumlaut" unicode="&#x170;" horiz-adv-x="757" 
d="M377 -11c-181 0 -298 105 -298 308v403h123v-398c0 -131 66 -199 177 -199c109 0 176 65 176 194v403h123v-397c0 -209 -118 -314 -301 -314zM234 758l112 145l106 -48l-127 -97h-91zM409 758l112 145l106 -48l-127 -97h-91z" />
    <glyph glyph-name="uhungarumlaut" unicode="&#x171;" horiz-adv-x="620" 
d="M258 -11c-120 0 -188 79 -188 203v336h121v-300c0 -83 41 -128 113 -128c71 0 119 47 119 130v298h122v-528h-122v82c-35 -51 -84 -93 -165 -93zM336 595l105 164l106 -49l-123 -115h-88zM166 595l103 164l106 -49l-121 -115h-88z" />
    <glyph glyph-name="Umacron" unicode="&#x16a;" horiz-adv-x="757" 
d="M198 769v90h360v-90h-360zM377 -11c-181 0 -298 105 -298 308v403h123v-398c0 -131 66 -199 177 -199c109 0 176 65 176 194v403h123v-397c0 -209 -118 -314 -301 -314z" />
    <glyph glyph-name="umacron" unicode="&#x16b;" horiz-adv-x="620" 
d="M258 -11c-120 0 -188 79 -188 203v336h121v-300c0 -83 41 -128 113 -128c71 0 119 47 119 130v298h122v-528h-122v82c-35 -51 -84 -93 -165 -93zM136 606v88h340v-88h-340z" />
    <glyph glyph-name="Uogonek" unicode="&#x172;" horiz-adv-x="757" 
d="M458 -106v-58c-12 -1 -23 -2 -32 -2c-87 1 -132 36 -132 85c0 25 11 49 33 73c-153 19 -248 120 -248 305v403h123v-398c0 -131 66 -199 177 -199c109 0 176 65 176 194v403h123v-397c0 -196 -104 -301 -268 -312c-19 -20 -24 -37 -24 -54c0 -29 24 -43 72 -43z" />
    <glyph glyph-name="uogonek" unicode="&#x173;" horiz-adv-x="620" 
d="M258 -11c-120 0 -188 79 -188 203v336h121v-300c0 -83 41 -128 113 -128c71 0 119 47 119 130v298h122v-528h-28c-24 -24 -33 -44 -33 -63c0 -29 24 -43 72 -43v-58c-12 -1 -23 -2 -32 -2c-87 1 -132 36 -132 85c0 29 15 54 40 81h-9v82c-35 -51 -84 -93 -165 -93z" />
    <glyph glyph-name="Uring" unicode="&#x16e;" horiz-adv-x="757" 
d="M377 -11c-181 0 -298 105 -298 308v403h123v-398c0 -131 66 -199 177 -199c109 0 176 65 176 194v403h123v-397c0 -209 -118 -314 -301 -314zM378 735c-64 0 -119 45 -119 106c0 60 55 105 119 105s119 -45 119 -105c0 -61 -55 -106 -119 -106zM378 782c39 0 64 26 64 59
c0 32 -25 58 -64 58s-64 -26 -64 -58c0 -33 25 -59 64 -59z" />
    <glyph glyph-name="uring" unicode="&#x16f;" horiz-adv-x="620" 
d="M306 581c-64 0 -116 51 -116 112s52 112 116 112s116 -51 116 -112s-52 -112 -116 -112zM306 626c37 0 67 30 67 67s-30 67 -67 67s-67 -30 -67 -67s30 -67 67 -67zM258 -11c-120 0 -188 79 -188 203v336h121v-300c0 -83 41 -128 113 -128c71 0 119 47 119 130v298h122
v-528h-122v82c-35 -51 -84 -93 -165 -93z" />
    <glyph glyph-name="Wacute" unicode="&#x1e82;" horiz-adv-x="1116" 
d="M508 758l112 145l110 -48l-128 -97h-94zM279 -5l-243 705h133l167 -519l172 521h104l172 -521l167 519h129l-243 -705h-107l-172 503l-172 -503h-107z" />
    <glyph glyph-name="wacute" unicode="&#x1e83;" horiz-adv-x="861" 
d="M381 595l104 164l110 -49l-123 -115h-91zM203 -4l-172 532h125l106 -362l117 364h104l117 -364l108 362h122l-173 -532h-109l-118 361l-119 -361h-108z" />
    <glyph glyph-name="Wcircumflex" unicode="&#x174;" horiz-adv-x="1116" 
d="M279 -5l-243 705h133l167 -519l172 521h104l172 -521l167 519h129l-243 -705h-107l-172 503l-172 -503h-107zM380 758l121 135h114l121 -135h-102l-77 57l-77 -57h-100z" />
    <glyph glyph-name="wcircumflex" unicode="&#x175;" horiz-adv-x="861" 
d="M257 595l117 147h112l117 -147h-96l-78 67l-78 -67h-94zM203 -4l-172 532h125l106 -362l117 364h104l117 -364l108 362h122l-173 -532h-109l-118 361l-119 -361h-108z" />
    <glyph glyph-name="Wdieresis" unicode="&#x1e84;" horiz-adv-x="1116" 
d="M598 758v112h125v-112h-125zM393 758v112h125v-112h-125zM279 -5l-243 705h133l167 -519l172 521h104l172 -521l167 519h129l-243 -705h-107l-172 503l-172 -503h-107z" />
    <glyph glyph-name="wdieresis" unicode="&#x1e85;" horiz-adv-x="861" 
d="M466 595v119h123v-119h-123zM271 595v119h123v-119h-123zM203 -4l-172 532h125l106 -362l117 364h104l117 -364l108 362h122l-173 -532h-109l-118 361l-119 -361h-108z" />
    <glyph glyph-name="Wgrave" unicode="&#x1e80;" horiz-adv-x="1116" 
d="M607 758h-95l-127 97l109 48zM279 -5l-243 705h133l167 -519l172 521h104l172 -521l167 519h129l-243 -705h-107l-172 503l-172 -503h-107z" />
    <glyph glyph-name="wgrave" unicode="&#x1e81;" horiz-adv-x="861" 
d="M203 -4l-172 532h125l106 -362l117 364h104l117 -364l108 362h122l-173 -532h-109l-118 361l-119 -361h-108zM387 595l-123 115l110 49l104 -164h-91z" />
    <glyph glyph-name="Yacute" unicode="&#xdd;" horiz-adv-x="716" 
d="M296 0v276l-278 424h146l195 -309l198 309h141l-278 -421v-279h-124zM308 758l112 145l110 -48l-128 -97h-94z" />
    <glyph glyph-name="yacute" unicode="&#xfd;" horiz-adv-x="596" 
d="M304 136l138 392h126l-210 -542c-43 -109 -89 -149 -174 -149c-51 0 -88 12 -125 33l41 89c23 -12 46 -20 71 -20c35 0 55 15 75 60l-220 529h130zM250 595l104 164l110 -49l-123 -115h-91z" />
    <glyph glyph-name="Ycircumflex" unicode="&#x176;" horiz-adv-x="716" 
d="M296 0v276l-278 424h146l195 -309l198 309h141l-278 -421v-279h-124zM180 758l121 135h114l121 -135h-102l-77 57l-77 -57h-100z" />
    <glyph glyph-name="ycircumflex" unicode="&#x177;" horiz-adv-x="596" 
d="M304 136l138 392h126l-210 -542c-43 -109 -89 -149 -174 -149c-51 0 -88 12 -125 33l41 89c23 -12 46 -20 71 -20c35 0 55 15 75 60l-220 529h130zM125 595l117 147h112l117 -147h-96l-78 67l-78 -67h-94z" />
    <glyph glyph-name="Ydieresis" unicode="&#x178;" horiz-adv-x="716" 
d="M296 0v276l-278 424h146l195 -309l198 309h141l-278 -421v-279h-124zM398 758v112h125v-112h-125zM193 758v112h125v-112h-125z" />
    <glyph glyph-name="ydieresis" unicode="&#xff;" horiz-adv-x="596" 
d="M304 136l138 392h126l-210 -542c-43 -109 -89 -149 -174 -149c-51 0 -88 12 -125 33l41 89c23 -12 46 -20 71 -20c35 0 55 15 75 60l-220 529h130zM334 595v119h123v-119h-123zM139 595v119h123v-119h-123z" />
    <glyph glyph-name="Ygrave" unicode="&#x1ef2;" horiz-adv-x="716" 
d="M296 0v276l-278 424h146l195 -309l198 309h141l-278 -421v-279h-124zM407 758h-95l-127 97l109 48z" />
    <glyph glyph-name="ygrave" unicode="&#x1ef3;" horiz-adv-x="596" 
d="M304 136l138 392h126l-210 -542c-43 -109 -89 -149 -174 -149c-51 0 -88 12 -125 33l41 89c23 -12 46 -20 71 -20c35 0 55 15 75 60l-220 529h130zM255 595l-123 115l110 49l104 -164h-91z" />
    <glyph glyph-name="Zacute" unicode="&#x179;" horiz-adv-x="702" 
d="M64 0v91l414 500h-400v109h561v-91l-414 -500h414v-109h-575zM308 758l112 145l110 -48l-128 -97h-94z" />
    <glyph glyph-name="zacute" unicode="&#x17a;" horiz-adv-x="560" 
d="M234 595l104 164l110 -49l-123 -115h-91zM52 0v83l305 346h-294v99h448v-83l-305 -346h305v-99h-459z" />
    <glyph glyph-name="Zcaron" unicode="&#x17d;" horiz-adv-x="702" 
d="M535 893l-121 -135h-114l-121 135h102l77 -57l77 57h100zM64 0v91l414 500h-400v109h561v-91l-414 -500h414v-109h-575z" />
    <glyph glyph-name="zcaron" unicode="&#x17e;" horiz-adv-x="560" 
d="M455 742l-117 -147h-112l-117 147h96l78 -67l78 67h94zM52 0v83l305 346h-294v99h448v-83l-305 -346h305v-99h-459z" />
    <glyph glyph-name="Zdotaccent" unicode="&#x17b;" horiz-adv-x="702" 
d="M293 758v112h128v-112h-128zM64 0v91l414 500h-400v109h561v-91l-414 -500h414v-109h-575z" />
    <glyph glyph-name="zdotaccent" unicode="&#x17c;" horiz-adv-x="560" 
d="M52 0v83l305 346h-294v99h448v-83l-305 -346h305v-99h-459zM219 595v119h126v-119h-126z" />
    <glyph glyph-name="AE" unicode="&#xc6;" horiz-adv-x="1045" 
d="M12 0l391 700h581v-110h-374v-182h329v-111h-329v-187h379v-110h-502v169h-254l-94 -169h-127zM291 278h196v315h-20z" />
    <glyph glyph-name="ae" unicode="&#xe6;" horiz-adv-x="952" 
d="M239 -11c-108 0 -199 59 -199 163v2c0 115 90 170 217 170c59 0 97 -9 140 -22v13c0 76 -45 115 -129 115c-60 0 -101 -13 -149 -33l-33 95c59 25 114 43 198 43c92 0 153 -30 186 -86c43 56 106 90 185 90c164 0 250 -132 250 -284c0 -11 0 -22 -1 -34h-388
c13 -87 74 -134 151 -134c60 0 101 22 144 63l71 -63c-51 -60 -118 -99 -217 -99c-83 0 -156 34 -204 90c-60 -51 -131 -89 -222 -89zM514 301h272c-8 78 -55 139 -134 139c-75 0 -127 -56 -138 -139zM260 78c59 0 110 25 157 68c-11 25 -17 52 -20 81
c-31 11 -71 20 -116 20c-77 0 -122 -32 -122 -88v-2c0 -49 45 -79 101 -79z" />
    <glyph glyph-name="AEacute" unicode="&#x1fc;" horiz-adv-x="1045" 
d="M572 758l112 145l110 -48l-128 -97h-94zM12 0l391 700h581v-110h-374v-182h329v-111h-329v-187h379v-110h-502v169h-254l-94 -169h-127zM291 278h196v315h-20z" />
    <glyph glyph-name="aeacute" unicode="&#x1fd;" horiz-adv-x="952" 
d="M424 595l104 164l110 -49l-123 -115h-91zM239 -11c-108 0 -199 59 -199 163v2c0 115 90 170 217 170c59 0 97 -9 140 -22v13c0 76 -45 115 -129 115c-60 0 -101 -13 -149 -33l-33 95c59 25 114 43 198 43c92 0 153 -30 186 -86c43 56 106 90 185 90
c164 0 250 -132 250 -284c0 -11 0 -22 -1 -34h-388c13 -87 74 -134 151 -134c60 0 101 22 144 63l71 -63c-51 -60 -118 -99 -217 -99c-83 0 -156 34 -204 90c-60 -51 -131 -89 -222 -89zM514 301h272c-8 78 -55 139 -134 139c-75 0 -127 -56 -138 -139zM260 78
c59 0 110 25 157 68c-11 25 -17 52 -20 81c-31 11 -71 20 -116 20c-77 0 -122 -32 -122 -88v-2c0 -49 45 -79 101 -79z" />
    <glyph glyph-name="OE" unicode="&#x152;" horiz-adv-x="1098" 
d="M1042 0h-611c-220 0 -372 151 -372 348v2c0 197 152 350 372 350h606v-110h-374v-182h329v-111h-329v-187h379v-110zM431 112h109v476h-109c-147 0 -243 -99 -243 -236v-2c0 -137 96 -238 243 -238z" />
    <glyph glyph-name="oe" unicode="&#x153;" horiz-adv-x="1040" 
d="M321 -12c-152 0 -274 123 -274 273v2c0 151 122 276 279 276c91 0 166 -42 211 -109c44 67 116 109 203 109c168 0 253 -132 253 -284c0 -11 -1 -22 -2 -34h-388c15 -87 73 -134 152 -134c60 0 101 22 144 63l71 -63c-51 -60 -120 -99 -216 -99c-92 0 -171 42 -218 111
c-47 -68 -123 -111 -215 -111zM602 301h272c-8 77 -56 139 -134 139c-76 0 -127 -56 -138 -139zM326 94c95 0 156 76 156 167v2c0 93 -67 170 -158 170c-95 0 -156 -77 -156 -168v-2c0 -92 65 -169 158 -169z" />
    <glyph glyph-name="Eth" unicode="&#xd0;" horiz-adv-x="812" 
d="M45 308v88h75v304h261c220 0 372 -151 372 -348v-2c0 -197 -152 -350 -372 -350h-261v308h-75zM624 348v2c0 137 -96 238 -243 238h-138v-192h175v-88h-175v-196h138c147 0 243 99 243 236z" />
    <glyph glyph-name="eth" unicode="&#xf0;" horiz-adv-x="657" 
d="M519 666l-79 -25c96 -96 169 -216 169 -352v-2c0 -165 -108 -299 -283 -299c-160 0 -279 122 -279 280v2c0 147 109 257 240 257c64 0 105 -21 146 -50c-24 41 -62 86 -106 129l-121 -37l-24 67l84 25c-29 24 -59 46 -88 69h164l39 -33l114 35zM329 94
c97 0 159 74 159 166v2c0 92 -67 165 -163 165c-97 0 -157 -72 -157 -164v-2c0 -91 68 -167 161 -167z" />
    <glyph glyph-name="Thorn" unicode="&#xde;" horiz-adv-x="668" 
d="M90 0v700h123v-109h153c164 0 266 -93 266 -234v-2c0 -157 -125 -240 -280 -240h-139v-115h-123zM213 226h143c93 0 151 53 151 126v2c0 81 -59 125 -151 125h-143v-253z" />
    <glyph glyph-name="thorn" unicode="&#xfe;" horiz-adv-x="671" 
d="M75 -160v890h122v-290c39 55 93 99 180 99c124 0 245 -98 245 -274v-2c0 -176 -120 -274 -245 -274c-88 0 -143 44 -180 93v-242h-122zM348 94c83 0 151 65 151 169v2c0 102 -70 169 -151 169c-83 0 -154 -68 -154 -169v-2c0 -101 71 -169 154 -169z" />
    <glyph glyph-name="uni018F" unicode="&#x18f;" horiz-adv-x="797" 
d="M170 501l-80 80c68 77 164 131 296 131c203 0 352 -148 352 -360v-3c0 -200 -144 -361 -344 -361c-222 0 -335 174 -335 373c0 19 0 28 1 44h545c-20 121 -104 193 -219 193c-88 0 -153 -32 -216 -97zM394 100c114 0 195 82 211 199h-415c11 -117 89 -199 204 -199z" />
    <glyph glyph-name="schwa" unicode="&#x259;" horiz-adv-x="604" 
d="M287 540c152 0 271 -111 271 -273v-2c0 -153 -107 -276 -259 -276c-168 0 -253 132 -253 284c0 11 1 22 2 34h388c-13 88 -74 134 -151 134c-60 0 -101 -22 -144 -63l-71 63c51 61 118 99 217 99zM438 227h-272c8 -78 54 -139 134 -139c75 0 126 56 138 139z" />
    <glyph glyph-name="germandbls" unicode="&#xdf;" horiz-adv-x="620" 
d="M296 -2v93c97 3 154 40 154 108v2c0 65 -62 102 -154 114v82c64 31 113 74 113 139v2c0 59 -40 96 -101 96c-67 0 -112 -49 -112 -128v-506h-121v502c0 144 93 235 239 235c136 0 216 -83 216 -188v-2c0 -91 -52 -139 -111 -171c77 -27 152 -78 152 -178v-2
c0 -129 -107 -203 -275 -198z" />
    <glyph glyph-name="uni0386" unicode="&#x386;" horiz-adv-x="790" 
d="M30 0l308 705h114l308 -705h-130l-71 169h-331l-72 -169h-126zM273 278h241l-121 280zM61 503l13 197h120l-69 -197h-64z" />
    <glyph glyph-name="uni0388" unicode="&#x388;" horiz-adv-x="670" 
d="M-87 503l13 197h120l-69 -197h-64zM90 0v700h519v-110h-396v-182h351v-111h-351v-187h401v-110h-524z" />
    <glyph glyph-name="uni0389" unicode="&#x389;" horiz-adv-x="760" 
d="M90 0v700h123v-291h334v291h123v-700h-123v295h-334v-295h-123zM-87 503l13 197h120l-69 -197h-64z" />
    <glyph glyph-name="uni038A" unicode="&#x38a;" horiz-adv-x="317" 
d="M97 0v700h123v-700h-123zM-83 503l13 197h120l-69 -197h-64z" />
    <glyph glyph-name="uni038C" unicode="&#x38c;" horiz-adv-x="850" 
d="M-57 503l13 197h120l-69 -197h-64zM424 -12c-215 0 -365 163 -365 360v2c0 196 152 362 367 362s365 -163 365 -360v-2c0 -196 -152 -362 -367 -362zM426 102c139 0 236 110 236 246v2c0 136 -98 248 -238 248c-139 0 -236 -110 -236 -246v-2c0 -136 98 -248 238 -248z
" />
    <glyph glyph-name="uni038E" unicode="&#x38e;" horiz-adv-x="716" 
d="M296 0v276l-278 424h146l195 -309l198 309h141l-278 -421v-279h-124zM-135 503l13 197h120l-69 -197h-64z" />
    <glyph glyph-name="uni038F" unicode="&#x38f;" horiz-adv-x="869" 
d="M435 712c221 0 356 -141 356 -326v-1c0 -126 -67 -212 -158 -279h177v-106h-306v104c91 61 158 133 158 266v1c0 134 -88 227 -228 227c-139 0 -227 -92 -227 -224v-1c0 -125 65 -205 158 -269v-104h-306v106h177c-93 67 -158 153 -158 280v1c0 176 135 325 357 325z
M-55 503l13 197h120l-69 -197h-64z" />
    <glyph glyph-name="uni0386.calt" horiz-adv-x="790" 
d="M30 0l308 705h114l308 -705h-130l-71 169h-331l-72 -169h-126zM273 278h241l-121 280z" />
    <glyph glyph-name="uni0388.calt" horiz-adv-x="670" 
d="M90 0v700h519v-110h-396v-182h351v-111h-351v-187h401v-110h-524z" />
    <glyph glyph-name="uni0389.calt" horiz-adv-x="760" 
d="M90 0v700h123v-291h334v291h123v-700h-123v295h-334v-295h-123z" />
    <glyph glyph-name="uni038A.calt" horiz-adv-x="317" 
d="M97 0v700h123v-700h-123z" />
    <glyph glyph-name="uni038C.calt" horiz-adv-x="850" 
d="M424 -12c-215 0 -365 163 -365 360v2c0 196 152 362 367 362s365 -163 365 -360v-2c0 -196 -152 -362 -367 -362zM426 102c139 0 236 110 236 246v2c0 136 -98 248 -238 248c-139 0 -236 -110 -236 -246v-2c0 -136 98 -248 238 -248z" />
    <glyph glyph-name="uni038E.calt" horiz-adv-x="716" 
d="M296 0v276l-278 424h146l195 -309l198 309h141l-278 -421v-279h-124z" />
    <glyph glyph-name="uni038F.calt" horiz-adv-x="869" 
d="M435 712c221 0 356 -141 356 -326v-1c0 -126 -67 -212 -158 -279h177v-106h-306v104c91 61 158 133 158 266v1c0 134 -88 227 -228 227c-139 0 -227 -92 -227 -224v-1c0 -125 65 -205 158 -269v-104h-306v106h177c-93 67 -158 153 -158 280v1c0 176 135 325 357 325z" />
    <glyph glyph-name="uni0399.calt" horiz-adv-x="317" 
d="M97 0v700h123v-700h-123zM200 758v112h125v-112h-125zM-5 758v112h125v-112h-125z" />
    <glyph glyph-name="uni03A5.calt" horiz-adv-x="716" 
d="M296 0v276l-278 424h146l195 -309l198 309h141l-278 -421v-279h-124zM398 758v112h125v-112h-125zM193 758v112h125v-112h-125z" />
    <glyph glyph-name="uni03AA" unicode="&#x3aa;" horiz-adv-x="317" 
d="M97 0v700h123v-700h-123zM200 758v112h125v-112h-125zM-5 758v112h125v-112h-125z" />
    <glyph glyph-name="uni03AB" unicode="&#x3ab;" horiz-adv-x="716" 
d="M296 0v276l-278 424h146l195 -309l198 309h141l-278 -421v-279h-124zM398 758v112h125v-112h-125zM193 758v112h125v-112h-125z" />
    <glyph glyph-name="uni03AC" unicode="&#x3ac;" horiz-adv-x="710" 
d="M316 595l68 171l108 -47l-96 -124h-80zM687 98v-95c-19 -5 -39 -10 -71 -10c-72 0 -114 27 -131 88c-40 -51 -98 -92 -185 -92c-130 0 -251 98 -251 274v2c0 176 119 274 245 274c86 0 143 -43 180 -93v82h121v-370c0 -45 19 -64 58 -64c15 0 25 1 34 4zM323 94
c81 0 153 68 153 169v2c0 102 -72 169 -153 169c-83 0 -152 -65 -152 -169v-2c0 -102 69 -169 152 -169z" />
    <glyph glyph-name="uni03AD" unicode="&#x3ad;" horiz-adv-x="564" 
d="M249 595l68 171l108 -47l-96 -124h-80zM396 221h-115c-76 0 -112 -25 -112 -64v-1c0 -41 41 -69 122 -69c64 0 130 22 186 57l52 -81c-72 -48 -154 -74 -242 -74c-156 0 -236 63 -236 155v1c0 67 48 103 100 122c-51 21 -86 56 -86 116v2c0 84 78 152 227 152
c96 0 167 -27 231 -72l-61 -83c-47 35 -105 58 -166 58c-76 0 -113 -30 -113 -66v-1c0 -42 33 -63 98 -63h115v-89z" />
    <glyph glyph-name="uni03AE" unicode="&#x3ae;" horiz-adv-x="620" 
d="M272 595l68 171l108 -47l-96 -124h-80zM197 0h-122v528h122v-81c35 49 82 92 165 92c120 0 188 -79 188 -202v-497h-121v460c0 83 -41 129 -113 129c-71 0 -119 -48 -119 -131v-298z" />
    <glyph glyph-name="uni03AF" unicode="&#x3af;" horiz-adv-x="309" 
d="M98 595l68 171l108 -47l-96 -124h-80zM73 152v376h122v-370c0 -45 19 -64 58 -64c13 0 25 1 34 4v-95c-19 -5 -40 -10 -72 -10c-96 0 -142 47 -142 159z" />
    <glyph glyph-name="uni03CC" unicode="&#x3cc;" horiz-adv-x="657" 
d="M288 595l68 171l108 -47l-96 -124h-80zM327 -12c-161 0 -280 123 -280 273v2c0 151 120 276 282 276c163 0 281 -123 281 -274v-2c0 -149 -120 -275 -283 -275zM329 94c99 0 160 76 160 167v2c0 93 -67 170 -162 170c-97 0 -159 -76 -159 -168v-2c0 -92 68 -169 161 -169
z" />
    <glyph glyph-name="uni03CD" unicode="&#x3cd;" horiz-adv-x="622" 
d="M270 595l68 171l108 -47l-96 -124h-80zM310 -12c-147 0 -241 80 -241 235v305h121v-301c0 -88 42 -134 122 -134s120 45 120 132v303h121v-302c0 -159 -96 -238 -243 -238z" />
    <glyph glyph-name="uni03CE" unicode="&#x3ce;" horiz-adv-x="880" 
d="M399 595l68 171l108 -47l-96 -124h-80zM381 426h118v-171c0 -100 39 -159 106 -159c64 0 103 51 103 155v1c0 101 -46 184 -122 276h131c65 -75 110 -165 110 -281v-1c0 -155 -75 -258 -207 -258c-102 0 -154 62 -181 137c-27 -75 -79 -137 -181 -137
c-132 0 -205 102 -205 259v1c0 113 46 207 110 280h130c-77 -92 -121 -173 -121 -277v-1c0 -100 39 -155 103 -154c68 0 106 59 106 159v171z" />
    <glyph glyph-name="uni03CA" unicode="&#x3ca;" horiz-adv-x="309" 
d="M174 595v119h123v-119h-123zM-21 595v119h123v-119h-123zM73 152v376h122v-370c0 -45 19 -64 58 -64c13 0 25 1 34 4v-95c-19 -5 -40 -10 -72 -10c-96 0 -142 47 -142 159z" />
    <glyph glyph-name="uni03CB" unicode="&#x3cb;" horiz-adv-x="622" 
d="M346 595v119h123v-119h-123zM151 595v119h123v-119h-123zM310 -12c-147 0 -241 80 -241 235v305h121v-301c0 -88 42 -134 122 -134s120 45 120 132v303h121v-302c0 -159 -96 -238 -243 -238z" />
    <glyph glyph-name="uni0390" unicode="&#x390;" horiz-adv-x="309" 
d="M232 595v117h110v-117h-110zM-56 595v117h110v-117h-110zM83 595l44 193l104 -23l-79 -170h-69zM73 152v376h122v-370c0 -45 19 -64 58 -64c13 0 25 1 34 4v-95c-19 -5 -40 -10 -72 -10c-96 0 -142 47 -142 159z" />
    <glyph glyph-name="uni03B0" unicode="&#x3b0;" horiz-adv-x="622" 
d="M399 595v117h110v-117h-110zM111 595v117h110v-117h-110zM250 595l44 193l104 -23l-79 -170h-69zM310 -12c-147 0 -241 80 -241 235v305h121v-301c0 -88 42 -134 122 -134s120 45 120 132v303h121v-302c0 -159 -96 -238 -243 -238z" />
    <glyph glyph-name="uni0462" unicode="&#x462;" horiz-adv-x="834" 
d="M375 710v-91h238v-101h-238v-119h178c147 0 241 -67 241 -195v-1c0 -123 -93 -203 -246 -203h-295v517h-216v102h216v91h122zM374 109h178c73 0 119 35 119 92v1c0 56 -38 89 -118 89h-179v-182z" />
    <glyph glyph-name="uni0472" unicode="&#x472;" horiz-adv-x="846" 
d="M422 -12c-212 0 -363 163 -363 360v2c0 196 152 362 365 362c212 0 363 -163 363 -360v-2c0 -196 -152 -362 -365 -362zM424 96c124 0 217 85 236 202h-474c19 -117 113 -202 238 -202zM422 604c-125 0 -215 -83 -236 -197h473c-21 114 -114 197 -237 197z" />
    <glyph glyph-name="uni0474" unicode="&#x474;" horiz-adv-x="791" 
d="M316 -5l-286 705h136l208 -538l138 353c54 140 118 187 243 187h18v-111h-6c-65 0 -104 -25 -139 -107l-203 -489h-109z" />
    <glyph glyph-name="uni0490" unicode="&#x490;" horiz-adv-x="618" 
d="M90 0v700h375v137h116v-249h-368v-588h-123z" />
    <glyph glyph-name="uni0404" unicode="&#x404;" horiz-adv-x="737" 
d="M412 -12c-204 0 -353 159 -353 360v2c0 199 147 362 358 362c130 0 208 -45 275 -109l-79 -90c-56 53 -114 87 -195 87c-120 0 -209 -82 -228 -195h339v-105h-340c19 -116 108 -200 228 -200c87 0 141 34 201 91l78 -79c-71 -76 -153 -124 -284 -124z" />
    <glyph glyph-name="uni0406" unicode="&#x406;" horiz-adv-x="317" 
d="M97 0v700h123v-700h-123z" />
    <glyph glyph-name="uni0407" unicode="&#x407;" horiz-adv-x="317" 
d="M97 0v700h123v-700h-123zM200 758v112h125v-112h-125zM-5 758v112h125v-112h-125z" />
    <glyph glyph-name="uni0402" unicode="&#x402;" horiz-adv-x="833" 
d="M601 700v-114h-228v-167c55 12 107 18 158 18c167 0 260 -77 260 -216v-1c0 -132 -92 -222 -260 -222h-21v109h6c105 0 151 44 151 109v1c0 67 -44 111 -151 110c-45 0 -87 -5 -143 -16v-311h-123v586h-213v114h564z" />
    <glyph glyph-name="uni0408" unicode="&#x408;" horiz-adv-x="560" 
d="M245 -10c-108 0 -177 49 -224 113l81 84c41 -53 81 -83 141 -83c67 0 111 43 111 138v458h127v-462c0 -84 -25 -145 -66 -186s-99 -62 -170 -62z" />
    <glyph glyph-name="uni0409" unicode="&#x409;" horiz-adv-x="1041" 
d="M470 0v597h-5l-326 -597h-127l386 700h195v-233h137c164 0 271 -81 271 -230v-1c0 -148 -108 -236 -279 -236h-252zM593 112h132c92 0 152 43 152 123v1c0 76 -57 121 -149 120h-135v-244z" />
    <glyph glyph-name="uni040A" unicode="&#x40a;" horiz-adv-x="1107" 
d="M537 0v295h-324v-295h-123v700h123v-291h324v291h122v-233h138c163 0 271 -81 271 -230v-1c0 -148 -108 -236 -279 -236h-252zM659 112h133c92 0 151 43 151 123v1c0 76 -56 121 -149 120h-135v-244z" />
    <glyph glyph-name="uni040B" unicode="&#x40b;" horiz-adv-x="859" 
d="M601 700v-114h-228v-167c51 11 107 18 155 18c164 0 263 -71 263 -239v-198h-123v183c0 101 -49 143 -153 143c-46 0 -93 -6 -142 -17v-309h-123v586h-213v114h564z" />
    <glyph glyph-name="uni040F" unicode="&#x40f;" horiz-adv-x="756" 
d="M320 -144v144h-230v700h123v-588h330v588h124v-700h-231v-144h-116z" />
    <glyph glyph-name="uni040E" unicode="&#x40e;" horiz-adv-x="718" 
d="M369 756c-96 0 -165 47 -173 134h86c12 -31 36 -50 87 -50s75 19 87 50h86c-8 -87 -77 -134 -173 -134zM303 0h-137l140 241l-280 459h140l208 -349l190 349h137z" />
    <glyph glyph-name="uni0403" unicode="&#x403;" horiz-adv-x="618" 
d="M279 758l112 145l110 -48l-128 -97h-94zM90 0v700h491v-112h-368v-588h-123z" />
    <glyph glyph-name="uni0405" unicode="&#x405;" horiz-adv-x="640" 
d="M335 -10c-108 0 -208 36 -292 112l74 88c68 -59 134 -91 221 -91c76 0 124 36 124 88v2c0 49 -28 78 -158 107c-149 35 -233 81 -233 209v2c0 120 100 203 239 203c103 0 182 -31 254 -88l-66 -93c-64 47 -126 72 -190 72c-72 0 -114 -36 -114 -83v-2
c0 -54 32 -78 167 -110c147 -38 224 -88 224 -205v-2c0 -132 -103 -209 -250 -209z" />
    <glyph glyph-name="uni040C" unicode="&#x40c;" horiz-adv-x="733" 
d="M320 758l112 145l110 -48l-128 -97h-94zM90 0v700h123l-1 -291h77l263 291h155l-319 -338l336 -362h-158l-274 300h-80l1 -300h-123z" />
    <glyph glyph-name="uni0400" unicode="&#x400;" horiz-adv-x="670" 
d="M401 758h-95l-127 97l109 48zM90 0v700h519v-110h-396v-182h351v-111h-351v-187h401v-110h-524z" />
    <glyph glyph-name="uni040D" unicode="&#x40d;" horiz-adv-x="790" 
d="M444 758h-95l-127 97l109 48zM700 0h-123v506l-380 -506h-107v700h123v-493l369 493h118v-700z" />
    <glyph glyph-name="uni0492" unicode="&#x492;" horiz-adv-x="648" 
d="M120 0v291h-75v89h75v320h491v-112h-368v-208h180v-89h-180v-291h-123z" />
    <glyph glyph-name="uni0496" unicode="&#x496;" horiz-adv-x="1089" 
d="M1050 700l-292 -341l214 -247h106v-256h-116v144h-41l-259 302h-62l1 -302h-122l1 302h-65l-258 -302h-145l311 359l-293 341h148l246 -293h56l-1 293h122l-1 -293h56l247 293h147z" />
    <glyph glyph-name="uni0498" unicode="&#x498;" horiz-adv-x="664" 
d="M265 -144l4 135c-97 11 -171 50 -230 101l73 89c60 -48 128 -83 216 -83c92 0 157 39 157 104v1c0 64 -60 99 -160 98h-126v104h128c85 0 140 37 140 101v1c0 59 -51 95 -135 95c-81 0 -147 -37 -206 -86l-75 84c72 64 158 112 284 112c159 0 257 -74 257 -188v-1
c0 -87 -47 -137 -128 -164c87 -21 146 -70 146 -165v-1c0 -104 -85 -186 -230 -202l5 -135h-120z" />
    <glyph glyph-name="uni049A" unicode="&#x49a;" horiz-adv-x="740" 
d="M707 700l-319 -338l232 -250h112v-256h-116v144h-50l-274 300h-80l1 -300h-123v700h123l-1 -291h77l263 291h155z" />
    <glyph glyph-name="uni049C" unicode="&#x49c;" horiz-adv-x="767" 
d="M383 610l-2 -194l207 284h143l-259 -334l272 -366h-148l-215 298l2 -194h-79l2 198h-93v-302h-123v700h123v-291h93l-2 201h79z" />
    <glyph glyph-name="uni04A0" unicode="&#x4a0;" horiz-adv-x="898" 
d="M37 590v110h341l-1 -291h77l263 291h155l-319 -338l336 -362h-158l-274 300h-80l1 -300h-123v590h-218z" />
    <glyph glyph-name="uni04A2" unicode="&#x4a2;" horiz-adv-x="786" 
d="M637 -144v144h-90v295h-334v-295h-123v700h123v-291h334v291h123v-588h83v-256h-116z" />
    <glyph glyph-name="uni04A4" unicode="&#x4a4;" horiz-adv-x="1032" 
d="M537 0v295h-324v-295h-123v700h123v-291h324v291h458v-112h-335v-588h-123z" />
    <glyph glyph-name="uni04AA" unicode="&#x4aa;" horiz-adv-x="739" 
d="M351 -144l4 137c-173 27 -296 175 -296 355v2c0 199 149 362 360 362c130 0 208 -45 275 -109l-79 -91c-57 52 -116 86 -197 86c-132 0 -230 -109 -230 -246v-2c0 -137 97 -248 231 -248c85 0 141 34 201 90l79 -80c-64 -67 -130 -110 -233 -121l5 -135h-120z" />
    <glyph glyph-name="uni04AE" unicode="&#x4ae;" horiz-adv-x="716" 
d="M296 0v276l-278 424h146l195 -309l198 309h141l-278 -421v-279h-124z" />
    <glyph glyph-name="uni04B0" unicode="&#x4b0;" horiz-adv-x="716" 
d="M296 0v197h-171v88h165l-272 415h146l195 -309l198 309h141l-274 -415h166v-88h-170v-197h-124z" />
    <glyph glyph-name="uni04B2" unicode="&#x4b2;" horiz-adv-x="749" 
d="M547 0l-185 267l-184 -267h-141l253 356l-243 344h145l173 -253l176 253h141l-244 -342l174 -246h113v-256h-116v144h-62z" />
    <glyph glyph-name="uni04B6" unicode="&#x4b6;" horiz-adv-x="735" 
d="M495 0v246c-51 -13 -112 -21 -163 -21c-161 0 -263 72 -263 240v235h123v-220c0 -101 49 -143 153 -143c49 0 102 7 150 22v341h124v-588h83v-256h-116v144h-91z" />
    <glyph glyph-name="uni04B8" unicode="&#x4b8;" horiz-adv-x="709" 
d="M495 0v246c-35 -9 -74 -15 -111 -19l1 -155h-79l1 153c-147 7 -238 81 -238 240v235h123v-220c0 -88 38 -130 115 -141l-1 201h79l-1 -202c39 3 76 10 111 21v341h124v-700h-124z" />
    <glyph glyph-name="uni04BA" unicode="&#x4ba;" horiz-adv-x="709" 
d="M213 700v-246c52 13 114 21 163 21c162 0 264 -72 264 -240v-235h-124v220c0 101 -48 143 -152 143c-49 0 -102 -7 -151 -22v-341h-123v700h123z" />
    <glyph glyph-name="uni04C0" unicode="&#x4c0;" horiz-adv-x="317" 
d="M97 0v700h123v-700h-123z" />
    <glyph glyph-name="uni04C1" unicode="&#x4c1;" horiz-adv-x="1080" 
d="M540 756c-96 0 -165 47 -173 134h86c12 -31 36 -50 87 -50s75 19 87 50h86c-8 -87 -77 -134 -173 -134zM30 700h148l246 -293h56l-1 293h122l-1 -293h56l247 293h147l-292 -341l311 -359h-148l-259 302h-62l1 -302h-122l1 302h-65l-258 -302h-145l311 359z" />
    <glyph glyph-name="uni04D0" unicode="&#x4d0;" horiz-adv-x="790" 
d="M30 0l308 705h114l308 -705h-130l-71 169h-331l-72 -169h-126zM273 278h241l-121 280zM395 766c-96 0 -165 47 -173 134h86c12 -31 36 -50 87 -50s75 19 87 50h86c-8 -87 -77 -134 -173 -134z" />
    <glyph glyph-name="uni04D2" unicode="&#x4d2;" horiz-adv-x="790" 
d="M30 0l308 705h114l308 -705h-130l-71 169h-331l-72 -169h-126zM273 278h241l-121 280zM435 768v112h125v-112h-125zM230 768v112h125v-112h-125z" />
    <glyph glyph-name="uni04D4" unicode="&#x4d4;" horiz-adv-x="1045" 
d="M12 0l391 700h581v-110h-374v-182h329v-111h-329v-187h379v-110h-502v169h-254l-94 -169h-127zM291 278h196v315h-20z" />
    <glyph glyph-name="uni04D6" unicode="&#x4d6;" horiz-adv-x="670" 
d="M351 756c-96 0 -165 47 -173 134h86c12 -31 36 -50 87 -50s75 19 87 50h86c-8 -87 -77 -134 -173 -134zM90 0v700h519v-110h-396v-182h351v-111h-351v-187h401v-110h-524z" />
    <glyph glyph-name="uni04D8" unicode="&#x4d8;" horiz-adv-x="797" 
d="M170 501l-80 80c68 77 164 131 296 131c203 0 352 -148 352 -360v-3c0 -200 -144 -361 -344 -361c-222 0 -335 174 -335 373c0 19 0 28 1 44h545c-20 121 -104 193 -219 193c-88 0 -153 -32 -216 -97zM394 100c114 0 195 82 211 199h-415c11 -117 89 -199 204 -199z" />
    <glyph glyph-name="uni04DC" unicode="&#x4dc;" horiz-adv-x="1080" 
d="M580 758v112h125v-112h-125zM375 758v112h125v-112h-125zM30 700h148l246 -293h56l-1 293h122l-1 -293h56l247 293h147l-292 -341l311 -359h-148l-259 302h-62l1 -302h-122l1 302h-65l-258 -302h-145l311 359z" />
    <glyph glyph-name="uni04DE" unicode="&#x4de;" horiz-adv-x="664" 
d="M367 760v112h125v-112h-125zM162 760v112h125v-112h-125zM126 516l-75 84c72 64 158 112 284 112c159 0 257 -74 257 -188v-1c0 -87 -47 -137 -128 -164c87 -21 146 -70 146 -165v-1c0 -117 -106 -205 -285 -205c-125 0 -217 44 -286 104l73 89c60 -48 128 -83 216 -83
c92 0 157 39 157 104v1c0 64 -60 99 -160 98h-126v104h128c85 0 140 37 140 101v1c0 59 -51 95 -135 95c-81 0 -147 -37 -206 -86z" />
    <glyph glyph-name="uni04E2" unicode="&#x4e2;" horiz-adv-x="790" 
d="M215 769v90h360v-90h-360zM700 0h-123v506l-380 -506h-107v700h123v-493l369 493h118v-700z" />
    <glyph glyph-name="uni04E4" unicode="&#x4e4;" horiz-adv-x="790" 
d="M435 758v112h125v-112h-125zM230 758v112h125v-112h-125zM700 0h-123v506l-380 -506h-107v700h123v-493l369 493h118v-700z" />
    <glyph glyph-name="uni04E6" unicode="&#x4e6;" horiz-adv-x="850" 
d="M465 768v112h125v-112h-125zM260 768v112h125v-112h-125zM424 -12c-215 0 -365 163 -365 360v2c0 196 152 362 367 362s365 -163 365 -360v-2c0 -196 -152 -362 -367 -362zM426 102c139 0 236 110 236 246v2c0 136 -98 248 -238 248c-139 0 -236 -110 -236 -246v-2
c0 -136 98 -248 238 -248z" />
    <glyph glyph-name="uni04E8" unicode="&#x4e8;" horiz-adv-x="846" 
d="M422 -12c-212 0 -363 163 -363 360v2c0 196 152 362 365 362c212 0 363 -163 363 -360v-2c0 -196 -152 -362 -365 -362zM424 96c124 0 217 85 236 202h-474c19 -117 113 -202 238 -202zM422 604c-125 0 -215 -83 -236 -197h473c-21 114 -114 197 -237 197z" />
    <glyph glyph-name="uni04EE" unicode="&#x4ee;" horiz-adv-x="718" 
d="M189 769v90h360v-90h-360zM303 0h-137l140 241l-280 459h140l208 -349l190 349h137z" />
    <glyph glyph-name="uni04F0" unicode="&#x4f0;" horiz-adv-x="718" 
d="M409 758v112h125v-112h-125zM204 758v112h125v-112h-125zM303 0h-137l140 241l-280 459h140l208 -349l190 349h137z" />
    <glyph glyph-name="uni04F2" unicode="&#x4f2;" horiz-adv-x="718" 
d="M303 0h-137l140 241l-280 459h140l208 -349l190 349h137zM225 758l112 145l106 -48l-127 -97h-91zM400 758l112 145l106 -48l-127 -97h-91z" />
    <glyph glyph-name="uni04F4" unicode="&#x4f4;" horiz-adv-x="709" 
d="M495 0v246c-51 -13 -112 -21 -163 -21c-161 0 -263 72 -263 240v235h123v-220c0 -101 49 -143 153 -143c49 0 102 7 150 22v341h124v-700h-124zM384 758v112h125v-112h-125zM179 758v112h125v-112h-125z" />
    <glyph glyph-name="uni04F8" unicode="&#x4f8;" horiz-adv-x="961" 
d="M90 0v700h123v-233h148c163 0 271 -81 271 -229v-2c0 -148 -108 -236 -279 -236h-263zM747 0v700h124v-700h-124zM213 112h143c92 0 151 43 151 122v1c0 79 -56 121 -149 121h-145v-244zM520 758v112h125v-112h-125zM315 758v112h125v-112h-125z" />
    <glyph glyph-name="uni0431.srb" horiz-adv-x="643" 
d="M318 -12c-160 0 -272 111 -272 252v1c0 120 76 211 208 230l-41 23c-68 37 -106 69 -106 130c0 57 45 106 156 106h272v-104l-273 2c-27 0 -39 -11 -39 -26c0 -16 10 -24 37 -39l153 -79c111 -55 183 -123 183 -240v-1c0 -140 -109 -255 -278 -255zM322 91
c92 0 155 64 155 153v1c0 89 -69 151 -155 151c-95 0 -156 -71 -156 -154v-1c0 -86 65 -150 156 -150z" />
    <glyph glyph-name="uni0463" unicode="&#x463;" horiz-adv-x="675" 
d="M511 426h-203v-91h133c123 0 200 -57 200 -165v-1c0 -104 -76 -169 -208 -169h-246v425h-159v103h159v202h121v-202h203v-102zM307 242v-147h123c59 0 91 27 91 74v1c0 43 -30 73 -89 72h-125z" />
    <glyph glyph-name="uni0473" unicode="&#x473;" horiz-adv-x="653" 
d="M325 -12c-159 0 -278 123 -278 273v2c0 151 119 276 280 276c160 0 279 -123 279 -274v-2c0 -149 -121 -275 -281 -275zM327 87c85 0 146 52 162 131h-325c17 -79 82 -131 163 -131zM325 440c-84 0 -145 -53 -162 -129h325c-19 76 -82 129 -163 129z" />
    <glyph glyph-name="uni0475" unicode="&#x475;" horiz-adv-x="612" 
d="M236 -4l-210 532h130l137 -388l82 222c46 126 96 169 202 169h17v-102h-2c-51 0 -77 -22 -108 -94l-139 -339h-109z" />
    <glyph glyph-name="uni0491" unicode="&#x491;" horiz-adv-x="503" 
d="M75 0v528h283v128h113v-237h-274v-419h-122z" />
    <glyph glyph-name="uni0454" unicode="&#x454;" horiz-adv-x="575" 
d="M410 314v-98l-242 1c15 -77 75 -128 160 -128c59 0 104 25 147 62l64 -76c-56 -53 -121 -87 -218 -87c-161 0 -274 122 -274 273v2c0 151 112 276 276 276c97 0 158 -32 211 -81l-64 -83c-41 37 -82 62 -145 62c-80 0 -141 -50 -157 -124z" />
    <glyph glyph-name="uni0456" unicode="&#x456;" horiz-adv-x="286" 
d="M78 609v115h130v-115h-130zM82 0v528h122v-528h-122z" />
    <glyph glyph-name="uni0457" unicode="&#x457;" horiz-adv-x="286" 
d="M180 595v119h123v-119h-123zM-15 595v119h123v-119h-123zM82 0v528h122v-528h-122z" />
    <glyph glyph-name="uni0452" unicode="&#x452;" horiz-adv-x="602" 
d="M366 559h-167v-130c33 9 80 17 124 17c136 0 215 -60 215 -197v-217c0 -133 -63 -195 -184 -195c-28 0 -46 2 -69 7v97c16 -3 31 -5 47 -5c51 0 82 25 85 94v208c0 72 -36 99 -111 99c-41 0 -72 -6 -107 -17v-320h-121v559h-104v96h104v75h121v-75h167v-96z" />
    <glyph glyph-name="uni0458" unicode="&#x458;" horiz-adv-x="286" 
d="M78 609v115h130v-115h-130zM51 -163c-24 0 -40 2 -59 5v97c12 -2 23 -3 34 -3c35 0 56 17 56 64v528h122v-535c0 -108 -54 -156 -153 -156z" />
    <glyph glyph-name="uni0459" unicode="&#x459;" horiz-adv-x="844" 
d="M366 0v433h-2l-230 -433h-127l280 528h200v-163h113c127 0 210 -65 210 -180v-1c0 -112 -78 -184 -219 -184h-225zM486 100h102c68 0 102 28 102 83v1c0 49 -33 83 -100 83h-104v-167z" />
    <glyph glyph-name="uni045A" unicode="&#x45a;" horiz-adv-x="910" 
d="M552 528v-163h113c128 0 211 -65 211 -180v-1c0 -112 -79 -184 -219 -184h-225v210h-235v-210h-122v528h122v-206h235v206h120zM552 267v-167h102c67 0 102 28 102 83v1c0 49 -34 83 -101 83h-103z" />
    <glyph glyph-name="uni045B" unicode="&#x45b;" horiz-adv-x="602" 
d="M366 559h-167v-130c33 9 80 17 124 17c136 0 215 -60 215 -197v-249h-121v238c0 72 -36 99 -111 99c-41 0 -72 -6 -107 -17v-320h-121v559h-104v96h104v75h121v-75h167v-96z" />
    <glyph glyph-name="uni045F" unicode="&#x45f;" horiz-adv-x="637" 
d="M258 -132v132h-183v528h122v-419h243v419h121v-528h-193v-132h-110z" />
    <glyph glyph-name="uni045E" unicode="&#x45e;" horiz-adv-x="596" 
d="M304 136l138 392h126l-210 -542c-43 -109 -89 -149 -174 -149c-51 0 -88 12 -125 33l41 89c23 -12 46 -20 71 -20c35 0 55 15 75 60l-220 529h130zM298 593c-96 0 -164 53 -172 145h84c12 -36 37 -61 88 -61s76 25 88 61h84c-8 -92 -76 -145 -172 -145z" />
    <glyph glyph-name="uni0453" unicode="&#x453;" horiz-adv-x="503" 
d="M219 595l104 164l110 -49l-123 -115h-91zM75 0v528h396v-109h-274v-419h-122z" />
    <glyph glyph-name="uni0455" unicode="&#x455;" horiz-adv-x="501" 
d="M257 -10c-76 0 -157 26 -224 79l54 82c59 -43 118 -65 173 -65c52 0 82 22 82 57v2c0 40 -56 55 -118 74c-77 21 -165 54 -165 154v2c0 101 83 162 188 162c67 0 138 -23 194 -60l-48 -86c-51 31 -105 50 -149 50c-47 0 -74 -23 -74 -52v-2c0 -38 57 -56 119 -75
c76 -24 164 -59 164 -154v-2c0 -111 -86 -166 -196 -166z" />
    <glyph glyph-name="uni045C" unicode="&#x45c;" horiz-adv-x="592" 
d="M256 595l104 164l110 -49l-123 -115h-91zM197 528v-209h60l168 209h149l-222 -258l229 -270h-146l-176 214h-62v-214h-122v528h122z" />
    <glyph glyph-name="uni0450" unicode="&#x450;" horiz-adv-x="604" 
d="M318 -12c-152 0 -271 111 -271 274v2c0 152 107 275 258 275c168 0 253 -132 253 -284c0 -11 -1 -22 -2 -34h-388c13 -87 73 -134 152 -134c60 0 100 22 143 63l71 -63c-51 -60 -119 -99 -216 -99zM167 301h271c-8 77 -54 139 -134 139c-75 0 -126 -56 -137 -139z
M260 595l-123 115l110 49l104 -164h-91z" />
    <glyph glyph-name="uni045D" unicode="&#x45d;" horiz-adv-x="638" 
d="M275 595l-123 115l110 49l104 -164h-91zM75 0v528h121v-338l252 338h115v-528h-121v346l-257 -346h-110z" />
    <glyph glyph-name="uni0493" unicode="&#x493;" horiz-adv-x="522" 
d="M94 0v209h-68v73h68v246h396v-109h-274v-137h131v-73h-131v-209h-122z" />
    <glyph glyph-name="uni0497" unicode="&#x497;" horiz-adv-x="901" 
d="M505 528l-1 -209h59l167 209h142l-218 -258l135 -161h101v-241h-110v132h-43l-173 215h-60l1 -215h-118l1 215h-62l-172 -215h-143l226 265l-217 263h143l167 -209h58l-1 209h118z" />
    <glyph glyph-name="uni0499" unicode="&#x499;" horiz-adv-x="559" 
d="M36 64l61 82c52 -37 114 -59 178 -59c76 0 118 27 118 70v1c0 39 -39 64 -111 63h-115v89h114c65 0 98 24 98 65v1c0 39 -37 65 -104 64c-63 0 -116 -21 -169 -60l-64 77c64 51 138 82 239 82c133 0 217 -61 217 -149v-1c0 -64 -40 -99 -93 -120c61 -16 107 -55 107 -123
v-1c0 -76 -66 -141 -187 -154l5 -123h-114l4 123c-72 9 -132 34 -184 73z" />
    <glyph glyph-name="uni049B" unicode="&#x49b;" horiz-adv-x="595" 
d="M197 528v-209h60l168 209h149l-222 -258l136 -161h95v-241h-110v132h-38l-176 214h-62v-214h-122v528h122z" />
    <glyph glyph-name="uni049D" unicode="&#x49d;" horiz-adv-x="639" 
d="M615 0h-137l-152 225h-7l1 -152h-64l1 152h-60v-225h-122v528h122v-209h60l-1 148h64l-1 -148h8l151 209h136l-195 -251z" />
    <glyph glyph-name="uni04A1" unicode="&#x4a1;" horiz-adv-x="703" 
d="M28 422v106h280v-209h60l168 209h149l-222 -258l229 -270h-146l-176 214h-62v-214h-122v422h-158z" />
    <glyph glyph-name="uni04A3" unicode="&#x4a3;" horiz-adv-x="654" 
d="M514 -132v132h-73v210h-244v-210h-122v528h122v-207h244v207h121v-419h62v-241h-110z" />
    <glyph glyph-name="uni04A5" unicode="&#x4a5;" horiz-adv-x="849" 
d="M197 528v-206h235v206h386v-109h-266v-419h-120v210h-235v-210h-122v528h122z" />
    <glyph glyph-name="uni04AB" unicode="&#x4ab;" horiz-adv-x="571" 
d="M257 -132l5 126c-128 27 -215 135 -215 267v2c0 150 116 276 275 276c99 0 160 -37 211 -91l-76 -81c-37 39 -76 66 -136 66c-88 0 -153 -76 -153 -168v-2c0 -94 65 -169 158 -169c57 0 98 26 137 65l73 -72c-44 -49 -94 -85 -170 -96l5 -123h-114z" />
    <glyph glyph-name="uni04AF" unicode="&#x4af;" horiz-adv-x="595" 
d="M358 -160h-121v178l-211 510h131l141 -380l142 380h128l-210 -510v-178z" />
    <glyph glyph-name="uni04B1" unicode="&#x4b1;" horiz-adv-x="595" 
d="M298 148l142 380h128l-188 -455h131v-73h-153v-160h-121v160h-153v73h130l-188 455h131z" />
    <glyph glyph-name="uni04B3" unicode="&#x4b3;" horiz-adv-x="590" 
d="M169 528l121 -177l123 177h129l-186 -258l115 -161h100v-241h-110v132h-43l-130 188l-129 -188h-129l193 269l-186 259h132z" />
    <glyph glyph-name="uni04B7" unicode="&#x4b7;" horiz-adv-x="610" 
d="M397 0v170c-35 -9 -81 -18 -124 -18c-135 0 -215 61 -215 197v179h120v-168c0 -72 36 -98 112 -98c40 0 72 6 107 17v249h121v-419h62v-241h-110v132h-73z" />
    <glyph glyph-name="uni04B9" unicode="&#x4b9;" horiz-adv-x="593" 
d="M319 49h-64l1 103c-120 5 -198 62 -198 196v180h120v-166c0 -64 27 -91 78 -98l-1 140h64v-141c28 3 51 8 78 16v249h121v-528h-121v170c-23 -7 -50 -12 -78 -15v-106z" />
    <glyph glyph-name="uni04BB" unicode="&#x4bb;" horiz-adv-x="620" 
d="M75 0v730h122v-283c35 49 82 92 165 92c120 0 188 -79 188 -202v-337h-121v300c0 83 -41 129 -113 129c-71 0 -119 -48 -119 -131v-298h-122z" />
    <glyph glyph-name="uni04CF" unicode="&#x4cf;" horiz-adv-x="286" 
d="M82 0v730h122v-730h-122z" />
    <glyph glyph-name="uni04C2" unicode="&#x4c2;" horiz-adv-x="892" 
d="M505 528l-1 -209h59l167 209h142l-218 -258l226 -270h-143l-173 215h-60l1 -215h-118l1 215h-62l-172 -215h-143l226 265l-217 263h143l167 -209h58l-1 209h118zM445 593c-96 0 -164 53 -172 145h84c12 -36 37 -61 88 -61s76 25 88 61h84c-8 -92 -76 -145 -172 -145z" />
    <glyph glyph-name="uni04D1" unicode="&#x4d1;" horiz-adv-x="587" 
d="M228 -11c-99 0 -188 56 -188 163v2c0 115 90 170 219 170c60 0 101 -9 142 -22v13c0 76 -46 115 -131 115c-60 0 -103 -13 -151 -33l-33 95c59 25 116 43 200 43c79 0 137 -20 175 -59c39 -39 57 -94 57 -163v-313h-118v66c-36 -43 -91 -77 -172 -77zM262 77
c80 0 141 45 141 113v36c-31 12 -72 21 -120 21c-79 0 -124 -32 -124 -88v-2c0 -51 44 -80 103 -80zM294 593c-96 0 -164 53 -172 145h84c12 -36 37 -61 88 -61s76 25 88 61h84c-8 -92 -76 -145 -172 -145z" />
    <glyph glyph-name="uni04D3" unicode="&#x4d3;" horiz-adv-x="587" 
d="M228 -11c-99 0 -188 56 -188 163v2c0 115 90 170 219 170c60 0 101 -9 142 -22v13c0 76 -46 115 -131 115c-60 0 -103 -13 -151 -33l-33 95c59 25 116 43 200 43c79 0 137 -20 175 -59c39 -39 57 -94 57 -163v-313h-118v66c-36 -43 -91 -77 -172 -77zM262 77
c80 0 141 45 141 113v36c-31 12 -72 21 -120 21c-79 0 -124 -32 -124 -88v-2c0 -51 44 -80 103 -80zM330 595v119h123v-119h-123zM135 595v119h123v-119h-123z" />
    <glyph glyph-name="uni04D5" unicode="&#x4d5;" horiz-adv-x="952" 
d="M239 -11c-108 0 -199 59 -199 163v2c0 115 90 170 217 170c59 0 97 -9 140 -22v13c0 76 -45 115 -129 115c-60 0 -101 -13 -149 -33l-33 95c59 25 114 43 198 43c92 0 153 -30 186 -86c43 56 106 90 185 90c164 0 250 -132 250 -284c0 -11 0 -22 -1 -34h-388
c13 -87 74 -134 151 -134c60 0 101 22 144 63l71 -63c-51 -60 -118 -99 -217 -99c-83 0 -156 34 -204 90c-60 -51 -131 -89 -222 -89zM514 301h272c-8 78 -55 139 -134 139c-75 0 -127 -56 -138 -139zM260 78c59 0 110 25 157 68c-11 25 -17 52 -20 81
c-31 11 -71 20 -116 20c-77 0 -122 -32 -122 -88v-2c0 -49 45 -79 101 -79z" />
    <glyph glyph-name="uni04D7" unicode="&#x4d7;" horiz-adv-x="604" 
d="M318 -12c-152 0 -271 111 -271 274v2c0 152 107 275 258 275c168 0 253 -132 253 -284c0 -11 -1 -22 -2 -34h-388c13 -87 73 -134 152 -134c60 0 100 22 143 63l71 -63c-51 -60 -119 -99 -216 -99zM167 301h271c-8 77 -54 139 -134 139c-75 0 -126 -56 -137 -139z
M303 593c-96 0 -164 53 -172 145h84c12 -36 37 -61 88 -61s76 25 88 61h84c-8 -92 -76 -145 -172 -145z" />
    <glyph glyph-name="uni04D9" unicode="&#x4d9;" horiz-adv-x="604" 
d="M287 540c152 0 271 -111 271 -273v-2c0 -153 -107 -276 -259 -276c-168 0 -253 132 -253 284c0 11 1 22 2 34h388c-13 88 -74 134 -151 134c-60 0 -101 -22 -144 -63l-71 63c51 61 118 99 217 99zM438 227h-272c8 -78 54 -139 134 -139c75 0 126 56 138 139z" />
    <glyph glyph-name="uni04DD" unicode="&#x4dd;" horiz-adv-x="892" 
d="M481 595v119h123v-119h-123zM286 595v119h123v-119h-123zM505 528l-1 -209h59l167 209h142l-218 -258l226 -270h-143l-173 215h-60l1 -215h-118l1 215h-62l-172 -215h-143l226 265l-217 263h143l167 -209h58l-1 209h118z" />
    <glyph glyph-name="uni04DF" unicode="&#x4df;" horiz-adv-x="559" 
d="M314 595v119h123v-119h-123zM119 595v119h123v-119h-123zM36 64l61 82c52 -37 114 -59 178 -59c76 0 118 27 118 70v1c0 39 -39 64 -111 63h-115v89h114c65 0 98 24 98 65v1c0 39 -37 65 -104 64c-63 0 -116 -21 -169 -60l-64 77c64 51 138 82 239 82
c133 0 217 -61 217 -149v-1c0 -64 -40 -99 -93 -120c61 -16 107 -55 107 -123v-1c0 -85 -85 -157 -237 -157c-99 0 -174 28 -239 76z" />
    <glyph glyph-name="uni04E3" unicode="&#x4e3;" horiz-adv-x="638" 
d="M148 606v88h340v-88h-340zM75 0v528h121v-338l252 338h115v-528h-121v346l-257 -346h-110z" />
    <glyph glyph-name="uni04E5" unicode="&#x4e5;" horiz-adv-x="638" 
d="M354 595v119h123v-119h-123zM159 595v119h123v-119h-123zM75 0v528h121v-338l252 338h115v-528h-121v346l-257 -346h-110z" />
    <glyph glyph-name="uni04E7" unicode="&#x4e7;" horiz-adv-x="657" 
d="M364 595v119h123v-119h-123zM169 595v119h123v-119h-123zM327 -12c-161 0 -280 123 -280 273v2c0 151 120 276 282 276c163 0 281 -123 281 -274v-2c0 -149 -120 -275 -283 -275zM329 94c99 0 160 76 160 167v2c0 93 -67 170 -162 170c-97 0 -159 -76 -159 -168v-2
c0 -92 68 -169 161 -169z" />
    <glyph glyph-name="uni04E9" unicode="&#x4e9;" horiz-adv-x="653" 
d="M325 -12c-159 0 -278 123 -278 273v2c0 151 119 276 280 276c160 0 279 -123 279 -274v-2c0 -149 -121 -275 -281 -275zM327 87c85 0 146 52 162 131h-325c17 -79 82 -131 163 -131zM325 440c-84 0 -145 -53 -162 -129h325c-19 76 -82 129 -163 129z" />
    <glyph glyph-name="uni04EF" unicode="&#x4ef;" horiz-adv-x="596" 
d="M304 136l138 392h126l-210 -542c-43 -109 -89 -149 -174 -149c-51 0 -88 12 -125 33l41 89c23 -12 46 -20 71 -20c35 0 55 15 75 60l-220 529h130zM128 606v88h340v-88h-340z" />
    <glyph glyph-name="uni04F1" unicode="&#x4f1;" horiz-adv-x="596" 
d="M304 136l138 392h126l-210 -542c-43 -109 -89 -149 -174 -149c-51 0 -88 12 -125 33l41 89c23 -12 46 -20 71 -20c35 0 55 15 75 60l-220 529h130zM334 595v119h123v-119h-123zM139 595v119h123v-119h-123z" />
    <glyph glyph-name="uni04F3" unicode="&#x4f3;" horiz-adv-x="596" 
d="M304 136l138 392h126l-210 -542c-43 -109 -89 -149 -174 -149c-51 0 -88 12 -125 33l41 89c23 -12 46 -20 71 -20c35 0 55 15 75 60l-220 529h130zM328 595l105 164l106 -49l-123 -115h-88zM158 595l103 164l106 -49l-121 -115h-88z" />
    <glyph glyph-name="uni04F5" unicode="&#x4f5;" horiz-adv-x="593" 
d="M323 595v119h123v-119h-123zM128 595v119h123v-119h-123zM397 0v170c-35 -9 -81 -18 -124 -18c-135 0 -215 61 -215 197v179h120v-168c0 -72 36 -98 112 -98c40 0 72 6 107 17v249h121v-528h-121z" />
    <glyph glyph-name="uni04F9" unicode="&#x4f9;" horiz-adv-x="810" 
d="M440 595v119h123v-119h-123zM245 595v119h123v-119h-123zM196 528v-163h123c129 0 210 -65 210 -180v-1c0 -112 -78 -184 -219 -184h-235v528h121zM195 267v-167h113c67 0 101 28 101 83v1c0 49 -33 83 -100 83h-114zM613 0v528h121v-528h-121z" />
    <glyph glyph-name="zero" unicode="0" horiz-adv-x="724" 
d="M361 -12c-184 0 -304 160 -304 360v2c0 200 122 362 306 362c183 0 304 -160 304 -360v-2c0 -200 -122 -362 -306 -362zM363 99c108 0 177 112 177 249v2c0 138 -71 251 -179 251s-177 -111 -177 -249v-2c0 -138 70 -251 179 -251z" />
    <glyph glyph-name="one" unicode="1" horiz-adv-x="396" 
d="M178 0v580l-126 -35l-26 100l189 60h85v-705h-122z" />
    <glyph glyph-name="two" unicode="2" horiz-adv-x="613" 
d="M49 0v97l241 205c95 82 131 125 131 189c0 68 -49 109 -113 109s-108 -34 -161 -105l-88 69c67 93 134 146 258 146c136 0 231 -84 231 -209v-2c0 -111 -58 -169 -182 -271l-144 -120h333v-108h-506z" />
    <glyph glyph-name="three" unicode="3" horiz-adv-x="618" 
d="M311 -12c-123 0 -208 50 -268 122l86 81c51 -60 105 -92 184 -92c68 0 121 42 121 106v2c0 69 -62 108 -161 108h-57l-20 77l189 201h-303v107h463v-92l-195 -200c106 -13 206 -67 206 -196v-2c0 -129 -99 -222 -245 -222z" />
    <glyph glyph-name="three.alt" horiz-adv-x="610" 
d="M311 -12c-115 0 -208 49 -272 122l85 79c49 -56 108 -90 189 -90c76 0 125 39 125 102v2c0 64 -57 98 -154 98h-75v104h78c81 0 132 40 132 100v2c0 56 -45 94 -121 94c-68 0 -113 -33 -158 -89l-87 71c60 79 131 129 247 129c144 0 241 -79 241 -187v-2
c0 -88 -47 -136 -104 -164c69 -27 123 -73 123 -158v-2c0 -120 -93 -211 -249 -211z" />
    <glyph glyph-name="four" unicode="4" horiz-adv-x="682" 
d="M412 0v157h-353l-23 88l389 460h105v-447h100v-101h-100v-157h-118zM182 258h230v277z" />
    <glyph glyph-name="five" unicode="5" horiz-adv-x="623" 
d="M304 -12c-108 0 -190 43 -257 107l76 89c56 -52 115 -84 180 -84c84 0 139 48 139 121v2c0 72 -60 116 -145 116c-51 0 -93 -14 -129 -31l-74 49l20 343h419v-110h-313l-11 -163c33 12 64 20 111 20c136 0 244 -72 244 -220v-2c0 -143 -105 -237 -260 -237z" />
    <glyph glyph-name="six" unicode="6" horiz-adv-x="656" 
d="M337 -12c-87 0 -148 27 -195 74c-53 53 -85 126 -85 267v2c0 213 102 381 300 381c91 0 153 -29 214 -78l-66 -96c-49 39 -89 62 -152 62c-123 0 -165 -127 -168 -223c41 43 92 71 168 71c136 0 244 -80 244 -220v-2c0 -140 -113 -238 -260 -238zM334 95
c88 0 140 54 140 126v2c0 71 -55 122 -143 122c-87 0 -142 -56 -142 -123v-2c0 -72 57 -125 145 -125z" />
    <glyph glyph-name="seven" unicode="7" horiz-adv-x="609" 
d="M106 0l314 592h-352v108h492v-93l-315 -607h-139z" />
    <glyph glyph-name="eight" unicode="8" horiz-adv-x="630" 
d="M315 -10c-153 0 -267 80 -267 201v2c0 84 46 137 126 170c-60 31 -102 77 -102 156v2c0 107 103 189 243 189s243 -81 243 -189v-2c0 -79 -42 -125 -102 -156c77 -35 126 -84 126 -168v-2c0 -126 -114 -203 -267 -203zM315 404c72 0 125 43 125 103v2
c0 55 -49 98 -125 98s-125 -43 -125 -98v-2c0 -60 53 -103 125 -103zM315 93c92 0 146 46 146 105v2c0 64 -62 105 -146 105s-146 -41 -146 -105v-2c0 -57 54 -105 146 -105z" />
    <glyph glyph-name="nine" unicode="9" horiz-adv-x="656" 
d="M302 100c123 0 167 128 170 220c-39 -47 -93 -74 -165 -74c-148 0 -248 86 -248 222v2c0 137 106 242 261 242c88 0 144 -24 195 -75s84 -129 84 -266v-2c0 -225 -112 -381 -300 -381c-97 0 -164 35 -224 84l67 94c53 -44 100 -66 160 -66zM325 349c89 0 142 58 142 126
v2c0 73 -57 128 -146 128c-88 0 -139 -57 -139 -130v-2c0 -72 55 -124 143 -124z" />
    <glyph glyph-name="period" unicode="." horiz-adv-x="269" 
d="M68 0v138h133v-138h-133z" />
    <glyph glyph-name="comma" unicode="," horiz-adv-x="269" 
d="M47 -146l-13 52c61 12 90 43 86 94h-52v138h133v-117c0 -112 -53 -158 -154 -167z" />
    <glyph glyph-name="colon" unicode=":" horiz-adv-x="279" 
d="M73 391v137h133v-137h-133zM73 0v138h133v-138h-133z" />
    <glyph glyph-name="semicolon" unicode=";" horiz-adv-x="279" 
d="M73 391v137h133v-137h-133zM52 -146l-13 52c61 12 90 43 86 94h-52v138h133v-117c0 -112 -53 -158 -154 -167z" />
    <glyph glyph-name="ellipsis" unicode="&#x2026;" horiz-adv-x="792" 
d="M594 0v134h130v-134h-130zM331 0v134h130v-134h-130zM68 0v134h130v-134h-130z" />
    <glyph glyph-name="periodcentered" unicode="&#xb7;" horiz-adv-x="269" 
d="M68 237v138h133v-138h-133z" />
    <glyph glyph-name="ampersand" unicode="&#x26;" horiz-adv-x="696" 
d="M575 -14l-93 95c-60 -56 -130 -91 -214 -91c-131 0 -230 79 -230 200v2c0 91 54 155 150 195c-40 52 -58 95 -58 146v2c0 95 77 177 201 177c111 0 186 -75 186 -169v-2c0 -92 -61 -147 -154 -182l120 -122c27 40 52 86 75 135l93 -49c-28 -56 -59 -111 -95 -159
l111 -112zM298 425c72 27 110 58 110 109v2c0 47 -32 79 -79 79c-51 0 -84 -36 -84 -84v-2c0 -35 14 -61 53 -104zM280 92c48 0 92 22 132 61l-156 159c-65 -28 -93 -71 -93 -116v-2c0 -60 49 -102 117 -102z" />
    <glyph glyph-name="exclam" unicode="!" horiz-adv-x="302" 
d="M118 222l-38 443v35h142v-35l-37 -443h-67zM85 0v138h133v-138h-133z" />
    <glyph glyph-name="exclamdown" unicode="&#xa1;" horiz-adv-x="302" 
d="M85 562v138h133v-138h-133zM80 0v35l38 443h67l37 -443v-35h-142z" />
    <glyph glyph-name="question" unicode="?" horiz-adv-x="541" 
d="M207 222l-20 162l5 5c128 4 184 44 184 111v2c0 56 -42 95 -114 95c-64 0 -115 -28 -163 -79l-75 80c59 67 133 111 241 111c140 0 235 -78 235 -203v-2c0 -127 -91 -184 -202 -202l-10 -80h-81zM178 0v138h134v-138h-134z" />
    <glyph glyph-name="questiondown" unicode="&#xbf;" horiz-adv-x="541" 
d="M229 562v138h134v-138h-134zM276 -9c-140 0 -235 78 -235 203v2c0 127 91 184 202 202l10 80h81l20 -162l-5 -5c-128 -4 -184 -44 -184 -111v-2c0 -56 42 -95 114 -95c64 0 115 28 163 79l75 -80c-59 -67 -133 -111 -241 -111z" />
    <glyph glyph-name="quotedblleft" unicode="&#x201c;" horiz-adv-x="501" 
d="M295 422v117c0 112 53 158 154 166l13 -52c-61 -11 -90 -43 -85 -94h51v-137h-133zM63 422v117c0 112 53 158 154 166l13 -52c-61 -11 -90 -43 -85 -94h51v-137h-133z" />
    <glyph glyph-name="quotedblright" unicode="&#x201d;" horiz-adv-x="501" 
d="M284 417l-13 52c61 11 90 42 85 93h-51v138h133v-117c0 -112 -53 -158 -154 -166zM52 417l-13 52c61 11 90 42 86 93h-52v138h133v-117c0 -112 -53 -158 -154 -166z" />
    <glyph glyph-name="quoteleft" unicode="&#x2018;" horiz-adv-x="269" 
d="M63 422v117c0 112 53 158 154 166l13 -52c-61 -11 -90 -43 -85 -94h51v-137h-133z" />
    <glyph glyph-name="quoteright" unicode="&#x2019;" horiz-adv-x="269" 
d="M52 417l-13 52c61 11 90 42 86 93h-52v138h133v-117c0 -112 -53 -158 -154 -166z" />
    <glyph glyph-name="quotedblbase" unicode="&#x201e;" horiz-adv-x="501" 
d="M279 -146l-13 52c61 12 90 43 85 94h-51v138h133v-117c0 -112 -53 -158 -154 -167zM47 -146l-13 52c61 12 90 43 86 94h-52v138h133v-117c0 -112 -53 -158 -154 -167z" />
    <glyph glyph-name="quotesinglbase" unicode="&#x201a;" horiz-adv-x="269" 
d="M47 -146l-13 52c61 12 90 43 86 94h-52v138h133v-117c0 -112 -53 -158 -154 -167z" />
    <glyph glyph-name="guillemotleft" unicode="&#xab;" horiz-adv-x="606" 
d="M468 42l-172 218v8l172 218l86 -43l-126 -178l126 -178zM217 42l-173 218v8l173 218l85 -43l-125 -178l125 -178z" />
    <glyph glyph-name="guillemotright" unicode="&#xbb;" horiz-adv-x="606" 
d="M389 42l-85 44l125 177l-125 178l85 45l173 -218v-8zM138 42l-86 44l126 177l-126 178l86 45l172 -218v-8z" />
    <glyph glyph-name="guilsinglleft" unicode="&#x2039;" horiz-adv-x="354" 
d="M217 42l-173 218v8l173 218l85 -43l-125 -178l125 -178z" />
    <glyph glyph-name="guilsinglright" unicode="&#x203a;" horiz-adv-x="354" 
d="M138 42l-86 44l126 177l-126 178l86 45l172 -218v-8z" />
    <glyph glyph-name="hyphen" unicode="-" horiz-adv-x="408" 
d="M56 247v119h296v-119h-296z" />
    <glyph glyph-name="endash" unicode="&#x2013;" horiz-adv-x="528" 
d="M56 249v115h416v-115h-416z" />
    <glyph glyph-name="emdash" unicode="&#x2014;" horiz-adv-x="898" 
d="M56 249v115h786v-115h-786z" />
    <glyph glyph-name="underscore" unicode="_" horiz-adv-x="600" 
d="M-2 -160v94h604v-94h-604z" />
    <glyph glyph-name="slash" unicode="/" horiz-adv-x="521" 
d="M-25 -128l452 926h105l-452 -926h-105z" />
    <glyph glyph-name="backslash" unicode="\" horiz-adv-x="521" 
d="M441 -128l-452 926h105l452 -926h-105z" />
    <glyph glyph-name="bar" unicode="|" horiz-adv-x="331" 
d="M117 -128v926h97v-926h-97z" />
    <glyph glyph-name="parenleft" unicode="(" horiz-adv-x="441" 
d="M393 -60l-53 -81c-183 100 -277 237 -277 428v1c0 188 94 327 277 427l53 -81c-142 -96 -209 -196 -209 -347v-1c0 -148 66 -251 209 -346z" />
    <glyph glyph-name="parenright" unicode=")" horiz-adv-x="441" 
d="M101 -141l-53 81c142 96 209 196 209 347v1c0 148 -66 251 -209 346l53 81c183 -100 277 -237 277 -428v-1c0 -188 -94 -327 -277 -427z" />
    <glyph glyph-name="bracketleft" unicode="[" horiz-adv-x="455" 
d="M87 -130v830h309v-95h-192v-640h192v-95h-309z" />
    <glyph glyph-name="bracketright" unicode="]" horiz-adv-x="455" 
d="M59 -130v95h192v640h-192v95h308v-830h-308z" />
    <glyph glyph-name="braceleft" unicode="{" horiz-adv-x="487" 
d="M437 -61l-21 -80c-181 32 -227 98 -227 199c0 15 2 55 2 72c0 79 -29 111 -113 111h-26v92h26c84 0 113 32 113 111c0 17 -2 57 -2 72c0 101 46 167 227 199l21 -80c-120 -32 -136 -65 -136 -137c0 -20 2 -53 2 -74c0 -79 -37 -116 -104 -137c68 -23 104 -58 104 -137
c0 -21 -2 -54 -2 -74c0 -72 16 -105 136 -137z" />
    <glyph glyph-name="braceright" unicode="}" horiz-adv-x="487" 
d="M71 -141l-21 80c120 32 136 65 136 137c0 20 -2 53 -2 74c0 79 37 116 104 137c-68 23 -104 58 -104 137c0 21 2 54 2 74c0 72 -16 105 -136 137l21 80c181 -32 227 -98 227 -199c0 -15 -2 -55 -2 -72c0 -79 29 -111 113 -111h26v-92h-26c-84 0 -113 -32 -113 -111
c0 -17 2 -57 2 -72c0 -101 -46 -167 -227 -199z" />
    <glyph glyph-name="at" unicode="@" horiz-adv-x="980" 
d="M499 -162c-256 0 -446 197 -446 436s193 438 438 438s436 -189 436 -396c0 -168 -91 -249 -194 -249c-79 0 -125 33 -148 70c-36 -37 -86 -70 -155 -70c-100 0 -181 74 -181 189c0 142 111 250 227 250c72 0 114 -34 141 -74l12 60l97 -16l-44 -251c-3 -19 -5 -34 -5 -43
c0 -43 29 -71 78 -71c72 0 132 69 132 205c0 184 -169 358 -396 358s-398 -180 -398 -400c0 -221 169 -398 406 -398c100 0 170 23 246 67l19 -30c-77 -47 -161 -75 -265 -75zM457 154c35 0 64 13 89 39c29 29 48 72 48 119c0 64 -44 108 -104 108c-35 0 -66 -15 -91 -40
c-29 -29 -47 -70 -47 -118c0 -69 42 -108 105 -108z" />
    <glyph glyph-name="copyright" unicode="&#xa9;" horiz-adv-x="830" 
d="M414 -12c-203 0 -361 163 -361 360v2c0 196 159 362 363 362c203 0 361 -163 361 -360v-2c0 -196 -159 -362 -363 -362zM414 24c184 0 325 147 325 326v2c0 179 -139 324 -323 324s-325 -147 -325 -326v-2c0 -179 139 -324 323 -324zM419 159c-110 0 -193 86 -193 194v2
c0 107 82 196 195 196c72 0 113 -24 149 -59l-47 -54c-29 27 -62 45 -102 45c-68 0 -118 -58 -118 -127v-2c0 -69 50 -127 118 -127c45 0 73 18 104 47l48 -48c-40 -41 -82 -67 -154 -67z" />
    <glyph glyph-name="published" unicode="&#x2117;" horiz-adv-x="830" 
d="M414 -12c-203 0 -361 163 -361 360v2c0 196 159 362 363 362c203 0 361 -163 361 -360v-2c0 -196 -159 -362 -363 -362zM414 24c184 0 325 147 325 326v2c0 179 -139 324 -323 324s-325 -147 -325 -326v-2c0 -179 139 -324 323 -324zM286 167v380h153
c91 0 147 -51 147 -128v-2c0 -86 -71 -130 -155 -130h-71v-120h-74zM360 352h73c48 0 78 25 78 64v2c0 41 -30 63 -78 63h-73v-129z" />
    <glyph glyph-name="registered.alt" horiz-adv-x="830" 
d="M414 -12c-203 0 -361 163 -361 360v2c0 196 159 362 363 362c203 0 361 -163 361 -360v-2c0 -196 -159 -362 -363 -362zM414 24c184 0 325 147 325 326v2c0 179 -139 324 -323 324s-325 -147 -325 -326v-2c0 -179 139 -324 323 -324zM269 171v379h169
c51 0 90 -15 115 -40c21 -21 31 -47 31 -80v-2c0 -61 -36 -99 -88 -115l102 -142h-86l-92 131h-79v-131h-72zM341 365h94c47 0 75 23 75 59v2c0 39 -28 59 -75 59h-94v-120z" />
    <glyph glyph-name="registered" unicode="&#xae;" horiz-adv-x="382" 
d="M191 360c-98 0 -174 79 -174 174v1c0 95 77 175 174 175c98 0 174 -79 174 -174v-1c0 -95 -77 -175 -174 -175zM191 379c87 0 154 71 154 156v1c0 84 -66 155 -154 155c-87 0 -154 -71 -154 -156v-1c0 -84 66 -155 154 -155zM118 447v182h85c43 0 74 -19 74 -60v-1
c0 -27 -16 -48 -40 -55l46 -66h-53l-39 58h-28v-58h-45zM163 541h37c21 0 32 8 32 25v1c0 15 -12 24 -32 23h-37v-49z" />
    <glyph glyph-name="servicemark" unicode="&#x2120;" horiz-adv-x="704" 
d="M356 392v308h63l93 -146l92 146h61v-308h-56v219l-95 -147h-6l-95 147v-219h-57zM168 386c-49 0 -101 19 -138 51l32 40c32 -25 66 -43 109 -43c39 0 60 16 60 40c0 23 -17 32 -73 47c-68 15 -113 35 -113 91s45 94 114 94c47 0 89 -14 120 -41l-31 -42
c-28 20 -57 33 -90 33c-36 0 -56 -15 -56 -38s18 -34 75 -47c68 -15 111 -38 111 -91c0 -59 -49 -94 -120 -94z" />
    <glyph glyph-name="trademark" unicode="&#x2122;" horiz-adv-x="690" 
d="M341 392v308h63l93 -146l93 146h61v-308h-57v219l-95 -147h-6l-95 147v-219h-57zM121 392v254h-95v54h249v-54h-95v-254h-59z" />
    <glyph glyph-name="asterisk" unicode="*" horiz-adv-x="430" 
d="M180 382l14 122l-100 -73l-36 61l114 50l-114 50l36 61l100 -73l-14 122h70l-14 -122l100 73l36 -61l-114 -50l114 -50l-36 -61l-100 73l14 -122h-70z" />
    <glyph glyph-name="dagger" unicode="&#x2020;" horiz-adv-x="410" 
d="M169 238l8 275l-121 -9v71l120 -9l-11 134h80l-11 -134l120 9v-71l-121 9l8 -275h-72z" />
    <glyph glyph-name="daggerdbl" unicode="&#x2021;" horiz-adv-x="430" 
d="M175 0l11 134l-120 -9v71l121 -9l-8 163l8 163l-121 -9v71l120 -9l-11 134h80l-11 -134l120 9v-71l-121 9l8 -163l-8 -163l121 9v-71l-120 9l11 -134h-80z" />
    <glyph glyph-name="bullet" unicode="&#x2022;" horiz-adv-x="491" 
d="M246 210c-78 0 -142 63 -142 141v2c0 78 66 141 142 141s141 -63 141 -141v-2c0 -78 -64 -141 -141 -141z" />
    <glyph glyph-name="dollar" unicode="$" horiz-adv-x="642" 
d="M560 622l-56 -94c-44 32 -89 54 -136 65v-192c151 -39 218 -97 217 -205v-2c0 -107 -86 -183 -213 -194v-98h-87v100c-88 11 -168 44 -236 99l64 92c57 -47 111 -77 176 -88v197c-146 37 -214 92 -214 205v1c0 108 85 181 210 192v58h87v-60c72 -9 132 -35 188 -76z
M467 187v2c0 44 -22 71 -99 94v-182c64 7 99 38 99 86zM193 516v-1c0 -42 19 -69 96 -93v177c-64 -7 -97 -40 -96 -83z" />
    <glyph glyph-name="sterling" unicode="&#xa3;" horiz-adv-x="644" 
d="M63 0v78l79 24v176h-79v104h79v92c0 73 22 134 61 174c41 41 98 62 169 62c112 0 173 -48 221 -112l-94 -75c-36 47 -69 73 -125 73c-32 0 -55 -10 -74 -29c-22 -22 -33 -54 -33 -96v-89h249v-104h-249v-171h325v-107h-529z" />
    <glyph glyph-name="Euro" unicode="&#x20ac;" horiz-adv-x="720" 
d="M674 580l-93 -69c-43 60 -85 91 -154 91c-72 0 -126 -46 -154 -122h215v-85h-234c-3 -15 -2 -29 -2 -44v-1c0 -13 0 -26 1 -39h235v-86h-217c28 -80 85 -128 164 -127c66 0 107 34 153 96l88 -65c-56 -83 -128 -141 -242 -141c-149 0 -251 95 -291 237h-91v86h77
c-1 12 -1 25 -1 38v1c0 15 -1 30 2 45h-78v85h94c41 135 140 232 284 232c123 0 190 -56 244 -132z" />
    <glyph glyph-name="yen" unicode="&#xa5;" horiz-adv-x="686" 
d="M91 264v89h158l-230 347h143l182 -293l184 293h139l-232 -347h160v-89h-193v-73h193v-89h-193v-102h-118v102h-193v89h193v73h-193z" />
    <glyph glyph-name="cent" unicode="&#xa2;" horiz-adv-x="581" 
d="M437 706l-18 -89c45 -14 84 -40 118 -78l-73 -79c-24 24 -47 41 -70 50l-63 -325c56 1 98 27 137 66l70 -70c-52 -59 -118 -101 -217 -101h-7l-16 -86h-88l20 102c-105 38 -179 137 -179 257v2c0 152 117 275 275 275h8l15 76h88zM170 357v-2c0 -69 32 -126 84 -153
l64 323c-85 -3 -148 -77 -148 -168z" />
    <glyph glyph-name="numbersign" unicode="#" horiz-adv-x="700" 
d="M624 265v-104h-119l-27 -161h-107l27 161h-163l-27 -161h-107l27 161h-89v104h107l30 174h-100v104h118l27 157h107l-27 -157h163l27 157h107l-27 -157h90v-104h-108l-30 -174h101zM282 442l-31 -180h167l31 180h-167z" />
    <glyph glyph-name="paragraph" unicode="&#xb6;" horiz-adv-x="557" 
d="M346 0v244h-18c-164 0 -288 78 -288 226v2c0 143 111 228 271 228h159v-700h-124z" />
    <glyph glyph-name="section" unicode="&#xa7;" horiz-adv-x="632" 
d="M467 233c35 -21 56 -56 56 -95v-2c0 -88 -73 -146 -197 -146c-99 0 -175 35 -231 95l69 68c47 -43 97 -71 161 -71c56 0 81 21 81 49v2c0 29 -28 46 -132 70c-155 35 -216 74 -216 146v2c0 65 46 100 107 116c-37 24 -56 56 -56 95v2c0 89 74 146 197 146
c99 0 175 -35 231 -95l-69 -68c-47 43 -97 71 -161 71c-53 0 -81 -20 -81 -49v-2c0 -27 24 -46 132 -70c155 -35 216 -74 216 -146v-2c0 -64 -46 -100 -107 -116zM388 278c45 0 77 23 77 54v2c0 29 -31 49 -118 70c-51 13 -80 18 -103 18c-45 0 -77 -23 -77 -54v-2
c0 -29 31 -49 118 -70c51 -13 80 -18 103 -18z" />
    <glyph glyph-name="ordfeminine" unicode="&#xaa;" horiz-adv-x="390" 
d="M159 403c-55 0 -103 31 -103 90v2c0 63 48 93 120 93c31 0 53 -4 76 -11v5c0 40 -23 60 -70 60c-31 0 -55 -7 -83 -18l-19 54c35 16 64 25 111 25c43 0 76 -11 97 -33c21 -21 31 -51 31 -90v-171h-68v34c-21 -25 -49 -40 -92 -40zM53 282v58h270v-58h-270zM177 454
c43 0 75 24 75 59v19c-17 7 -36 11 -63 11c-40 0 -64 -17 -64 -45v-2c0 -27 21 -42 52 -42z" />
    <glyph glyph-name="ordmasculine" unicode="&#xba;" horiz-adv-x="390" 
d="M194 402c-88 0 -150 67 -150 150v2c0 83 65 151 152 151c88 0 150 -67 150 -150v-2c0 -83 -65 -151 -152 -151zM51 282v58h288v-58h-288zM196 464c48 0 80 40 80 88v2c0 48 -34 89 -82 89s-80 -40 -80 -88v-2c0 -48 34 -89 82 -89z" />
    <glyph glyph-name="degree" unicode="&#xb0;" horiz-adv-x="471" 
d="M236 381c-88 0 -167 74 -167 162v2c0 87 79 161 167 161s166 -74 166 -161v-2c0 -88 -78 -162 -166 -162zM236 447c54 0 94 45 94 96v2c0 50 -40 95 -94 95c-56 0 -95 -44 -95 -95v-2c0 -51 40 -96 95 -96z" />
    <glyph glyph-name="percent" unicode="%" horiz-adv-x="849" 
d="M212 350c-98 0 -164 80 -164 177v2c0 99 67 179 166 179c100 0 164 -81 164 -177v-2c0 -96 -66 -179 -166 -179zM212 631c-47 0 -75 -45 -75 -100v-2c0 -57 32 -102 77 -102c47 0 75 45 75 100v2c0 56 -32 102 -77 102zM394 372l237 328h99l-276 -373l-236 -327h-99z
M635 -8c-98 0 -164 80 -164 177v2c0 99 67 179 166 179c98 0 164 -81 164 -177v-2c0 -96 -67 -179 -166 -179zM637 69c47 0 75 45 75 100v2c0 56 -32 102 -77 102c-47 0 -75 -45 -75 -100v-2c0 -57 32 -102 77 -102z" />
    <glyph glyph-name="perthousand" unicode="&#x2030;" horiz-adv-x="1228" 
d="M214 427c47 0 75 45 75 100v2c0 56 -32 102 -77 102c-47 0 -75 -45 -75 -100v-2c0 -57 32 -102 77 -102zM212 350c-98 0 -164 80 -164 177v2c0 99 67 179 166 179c100 0 164 -81 164 -177v-2c0 -96 -66 -179 -166 -179zM730 700l-276 -373l-236 -327h-99l275 372l237 328
h99zM637 69c47 0 75 45 75 100v2c0 56 -32 102 -77 102c-47 0 -75 -45 -75 -100v-2c0 -57 32 -102 77 -102zM635 -8c-98 0 -164 80 -164 177v2c0 99 67 179 166 179c98 0 164 -81 164 -177v-2c0 -96 -67 -179 -166 -179zM1016 69c47 0 75 45 75 100v2c0 56 -32 102 -77 102
c-47 0 -75 -45 -75 -100v-2c0 -57 32 -102 77 -102zM1014 -8c-98 0 -164 80 -164 177v2c0 99 67 179 166 179c98 0 164 -81 164 -177v-2c0 -96 -67 -179 -166 -179z" />
    <glyph glyph-name="quotedbl" unicode="&#x22;" horiz-adv-x="487" 
d="M280 400l23 300h137v-5l-98 -295h-62zM60 400l23 300h138v-5l-98 -295h-63z" />
    <glyph glyph-name="quotesingle" unicode="'" horiz-adv-x="269" 
d="M60 400l23 300h139v-5l-98 -295h-64z" />
    <glyph glyph-name="plus" unicode="+" horiz-adv-x="634" 
d="M260 106v190h-192v112h192v190h114v-190h192v-112h-192v-190h-114z" />
    <glyph glyph-name="minus" unicode="&#x2212;" horiz-adv-x="634" 
d="M566 295h-498v114h498v-114z" />
    <glyph glyph-name="divide" unicode="&#xf7;" horiz-adv-x="634" 
d="M250 496v128h134v-128h-134zM566 300h-498v104h498v-104zM250 80v128h134v-128h-134z" />
    <glyph glyph-name="equal" unicode="=" horiz-adv-x="634" 
d="M76 421v112h482v-112h-482zM76 171v112h482v-112h-482z" />
    <glyph glyph-name="multiply" unicode="&#xd7;" horiz-adv-x="634" 
d="M479 113l-163 166l-163 -166l-75 75l166 163l-166 163l77 77l163 -166l163 166l75 -75l-166 -163l166 -163z" />
    <glyph glyph-name="less" unicode="&#x3c;" horiz-adv-x="634" 
d="M545 77l-478 221v108l478 221v-115l-358 -159l358 -160v-116z" />
    <glyph glyph-name="greater" unicode="&#x3e;" horiz-adv-x="634" 
d="M89 77v115l358 159l-358 160v116l479 -221v-108z" />
    <glyph glyph-name="plusminus" unicode="&#xb1;" horiz-adv-x="634" 
d="M560 373h-189l1 -184h-110l1 184h-189v107l189 -1l-1 185h110l-1 -185l189 1v-107zM560 0h-486v103h486v-103z" />
    <glyph glyph-name="zero.sup" unicode="&#x2070;" 
d="M199 411c-90 0 -157 80 -157 202v4c0 123 67 203 158 203s158 -80 158 -202v-4c0 -123 -68 -203 -159 -203zM199 752c-47 0 -81 -48 -81 -133v-7c0 -84 34 -133 82 -133c47 0 82 48 82 133v7c0 84 -36 133 -83 133z" />
    <glyph glyph-name="one.sup" unicode="&#xb9;" horiz-adv-x="325" 
d="M222 421h-72v318l-79 -30l-20 61l116 45h55v-394z" />
    <glyph glyph-name="one.sup_alt" 
d="M352 421h-280v63h109v255l-95 -35l-20 61l132 50h55v-331h99v-63z" />
    <glyph glyph-name="two.sup" unicode="&#xb2;" 
d="M55 421v62l137 116c51 41 71 64 71 99c0 33 -26 55 -61 55c-33 0 -64 -20 -93 -59l-52 41c37 52 77 85 149 85c80 0 133 -48 133 -116c0 -53 -25 -88 -85 -137l-100 -82h188v-64h-287z" />
    <glyph glyph-name="three.sup" unicode="&#xb3;" 
d="M197 411c-68 0 -114 25 -153 64l45 53c31 -31 68 -51 109 -51c36 0 68 23 68 58c0 37 -35 57 -84 57h-42l-12 46l113 106h-172v66h264v-57l-116 -106c68 -7 122 -39 122 -110c0 -76 -57 -126 -142 -126z" />
    <glyph glyph-name="four.sup" unicode="&#x2074;" 
d="M308 504v-85h-67v85h-188l-10 67l190 243h75v-252h53v-58h-53zM242 562v171l-133 -171h133z" />
    <glyph glyph-name="five.sup" unicode="&#x2075;" 
d="M196 411c-63 0 -109 24 -150 60l44 54c35 -31 68 -47 107 -47c45 0 76 25 76 64s-31 61 -78 61c-28 0 -57 -7 -77 -16l-47 28l16 195h241v-67h-181l-7 -88c19 7 45 11 70 11c76 0 137 -43 137 -120c0 -83 -60 -135 -151 -135z" />
    <glyph glyph-name="six.sup" unicode="&#x2076;" 
d="M201 411c-43 0 -79 16 -103 39c-28 29 -50 70 -50 153v2c0 129 60 215 168 215c52 0 83 -14 115 -41l-36 -57c-24 19 -48 32 -81 32c-49 0 -86 -45 -90 -113c23 19 47 31 90 31c69 0 129 -43 129 -124s-59 -137 -142 -137zM199 474c43 0 74 27 74 70s-29 69 -73 69
c-45 0 -75 -26 -75 -69v-1c0 -40 33 -70 74 -69z" />
    <glyph glyph-name="seven.sup" unicode="&#x2077;" 
d="M170 419h-82l169 322h-192v69h276v-57z" />
    <glyph glyph-name="eight.sup" unicode="&#x2078;" 
d="M200 411c-88 0 -148 44 -148 116c0 47 26 77 66 96c-32 17 -55 45 -55 88c0 63 55 109 138 109c80 0 136 -48 136 -109c0 -44 -23 -69 -55 -88c39 -19 66 -48 66 -95c0 -72 -62 -117 -148 -117zM200 761c-41 0 -69 -23 -69 -56c0 -35 29 -58 69 -58c39 0 69 23 69 58
c0 33 -29 56 -69 56zM200 591c-47 0 -79 -24 -79 -61c0 -36 31 -61 79 -61s78 24 78 61s-33 61 -78 61z" />
    <glyph glyph-name="nine.sup" unicode="&#x2079;" 
d="M199 820c43 0 79 -16 103 -40c28 -28 50 -69 50 -152v-2c0 -132 -60 -215 -168 -215c-52 0 -90 17 -121 44l36 57c24 -21 52 -35 87 -35c48 0 86 42 89 109c-23 -19 -45 -32 -88 -32c-69 0 -130 43 -130 127c0 80 59 139 142 139zM200 613c45 0 75 27 75 72v1
c0 41 -33 72 -74 71c-43 0 -74 -29 -74 -72c0 -44 29 -72 73 -72z" />
    <glyph glyph-name="zero.inf" unicode="&#x2080;" 
d="M199 -141c-90 0 -157 80 -157 202v4c0 123 67 203 158 203s158 -80 158 -202v-4c0 -123 -68 -203 -159 -203zM199 200c-47 0 -81 -48 -81 -133v-7c0 -84 34 -133 82 -133c47 0 82 48 82 133v7c0 84 -36 133 -83 133z" />
    <glyph glyph-name="one.inf" unicode="&#x2081;" horiz-adv-x="325" 
d="M222 -131h-72v318l-79 -30l-20 61l116 45h55v-394z" />
    <glyph glyph-name="one.inf_alt" 
d="M352 -131h-280v63h109v255l-95 -35l-20 61l132 50h55v-331h99v-63z" />
    <glyph glyph-name="two.inf" unicode="&#x2082;" 
d="M55 -131v62l137 116c51 41 71 64 71 99c0 33 -26 55 -61 55c-33 0 -64 -20 -93 -59l-52 41c37 52 77 85 149 85c80 0 133 -48 133 -116c0 -53 -25 -88 -85 -137l-100 -82h188v-64h-287z" />
    <glyph glyph-name="three.inf" unicode="&#x2083;" 
d="M197 -141c-68 0 -114 25 -153 64l45 53c31 -31 68 -51 109 -51c36 0 68 23 68 58c0 37 -35 57 -84 57h-42l-12 46l113 106h-172v66h264v-57l-116 -106c68 -7 122 -39 122 -110c0 -76 -57 -126 -142 -126z" />
    <glyph glyph-name="four.inf" unicode="&#x2084;" 
d="M308 -48v-85h-67v85h-188l-10 67l190 243h75v-252h53v-58h-53zM242 10v171l-133 -171h133z" />
    <glyph glyph-name="five.inf" unicode="&#x2085;" 
d="M196 -141c-63 0 -109 24 -150 60l44 54c35 -31 68 -47 107 -47c45 0 76 25 76 64s-31 61 -78 61c-28 0 -57 -7 -77 -16l-47 28l16 195h241v-67h-181l-7 -88c19 7 45 11 70 11c76 0 137 -43 137 -120c0 -83 -60 -135 -151 -135z" />
    <glyph glyph-name="six.inf" unicode="&#x2086;" 
d="M201 -141c-43 0 -79 16 -103 39c-28 29 -50 70 -50 153v2c0 129 60 215 168 215c52 0 83 -14 115 -41l-36 -57c-24 19 -48 32 -81 32c-49 0 -86 -45 -90 -113c23 19 47 31 90 31c69 0 129 -43 129 -124s-59 -137 -142 -137zM199 -78c43 0 74 27 74 70s-29 69 -73 69
c-45 0 -75 -26 -75 -69v-1c0 -40 33 -70 74 -69z" />
    <glyph glyph-name="seven.inf" unicode="&#x2087;" 
d="M170 -133h-82l169 322h-192v69h276v-57z" />
    <glyph glyph-name="eight.inf" unicode="&#x2088;" 
d="M200 -141c-88 0 -148 44 -148 116c0 47 26 77 66 96c-32 17 -55 45 -55 88c0 63 55 109 138 109c80 0 136 -48 136 -109c0 -44 -23 -69 -55 -88c39 -19 66 -48 66 -95c0 -72 -62 -117 -148 -117zM200 209c-41 0 -69 -23 -69 -56c0 -35 29 -58 69 -58c39 0 69 23 69 58
c0 33 -29 56 -69 56zM200 39c-47 0 -79 -24 -79 -61c0 -36 31 -61 79 -61s78 24 78 61s-33 61 -78 61z" />
    <glyph glyph-name="nine.inf" unicode="&#x2089;" 
d="M199 268c43 0 79 -16 103 -40c28 -28 50 -69 50 -152v-2c0 -132 -60 -215 -168 -215c-52 0 -90 17 -121 44l36 57c24 -21 52 -35 87 -35c48 0 86 42 89 109c-23 -19 -45 -32 -88 -32c-69 0 -130 43 -130 127c0 80 59 139 142 139zM200 61c45 0 75 27 75 72v1
c0 41 -33 72 -74 71c-43 0 -74 -29 -74 -72c0 -44 29 -72 73 -72z" />
    <glyph glyph-name="zero.num" 
d="M199 301c-90 0 -157 80 -157 202v4c0 123 67 203 158 203s158 -80 158 -202v-4c0 -123 -68 -203 -159 -203zM199 642c-47 0 -81 -48 -81 -133v-7c0 -84 34 -133 82 -133c47 0 82 48 82 133v7c0 84 -36 133 -83 133z" />
    <glyph glyph-name="one.num" horiz-adv-x="325" 
d="M222 311h-72v318l-79 -30l-20 61l116 46h55v-395z" />
    <glyph glyph-name="one.num_alt" 
d="M352 311h-280v64h109v254l-95 -35l-20 61l132 51h55v-331h99v-64z" />
    <glyph glyph-name="two.num" 
d="M55 311v63l137 115c51 41 71 64 71 99c0 33 -26 55 -61 55c-33 0 -64 -20 -93 -59l-52 41c37 53 77 85 149 85c80 0 133 -48 133 -116c0 -53 -25 -88 -85 -137l-100 -81h188v-65h-287z" />
    <glyph glyph-name="three.num" 
d="M197 301c-68 0 -114 27 -153 64l45 53c31 -31 68 -51 109 -51c36 0 68 23 68 58c0 39 -35 57 -84 57h-42l-12 46l113 106h-172v66h264v-57l-116 -106c68 -5 122 -39 122 -110c0 -76 -57 -126 -142 -126z" />
    <glyph glyph-name="four.num" 
d="M308 394v-85h-67v85h-188l-10 68l190 243h75v-253h53v-58h-53zM242 452v171l-133 -171h133z" />
    <glyph glyph-name="five.num" 
d="M196 301c-63 0 -109 25 -150 60l44 55c35 -31 68 -48 107 -48c45 0 76 25 76 64s-31 61 -78 61c-28 0 -57 -5 -77 -16l-47 28l16 195h241v-67h-181l-7 -88c19 7 45 11 70 11c76 0 137 -43 137 -120c0 -81 -60 -135 -151 -135z" />
    <glyph glyph-name="six.num" 
d="M201 301c-43 0 -79 16 -103 40c-28 28 -50 69 -50 152v2c0 130 60 215 168 215c52 0 83 -14 115 -41l-36 -57c-24 20 -48 32 -81 32c-49 0 -86 -45 -90 -113c23 19 47 32 90 32c69 0 129 -44 129 -125s-59 -137 -142 -137zM199 364c43 0 74 27 74 70s-29 70 -73 70
c-45 0 -75 -27 -75 -70v-1c0 -40 33 -70 74 -69z" />
    <glyph glyph-name="seven.num" 
d="M170 309h-82l169 323h-192v68h276v-56z" />
    <glyph glyph-name="eight.num" 
d="M200 301c-88 0 -148 44 -148 116c0 47 26 77 66 96c-32 17 -55 45 -55 89c0 61 55 108 138 108c80 0 136 -48 136 -108c0 -44 -23 -70 -55 -89c39 -19 66 -48 66 -95c0 -72 -62 -117 -148 -117zM200 651c-41 0 -69 -23 -69 -56c0 -35 29 -58 69 -58c39 0 69 23 69 58
c0 33 -29 56 -69 56zM200 481c-47 0 -79 -24 -79 -61c0 -36 31 -61 79 -61s78 25 78 61c0 37 -33 61 -78 61z" />
    <glyph glyph-name="nine.num" 
d="M199 710c43 0 79 -16 103 -39c28 -29 50 -70 50 -153v-2c0 -132 -60 -215 -168 -215c-52 0 -90 17 -121 44l36 57c24 -20 52 -35 87 -35c48 0 86 44 89 109c-23 -19 -45 -31 -88 -31c-69 0 -130 43 -130 126c0 80 59 139 142 139zM200 504c45 0 75 27 75 71v1
c0 41 -33 72 -74 71c-43 0 -74 -29 -74 -72c0 -44 29 -71 73 -71z" />
    <glyph glyph-name="zero.den" 
d="M199 -10c-90 0 -157 80 -157 202v4c0 123 67 203 158 203s158 -80 158 -202v-4c0 -123 -68 -203 -159 -203zM199 331c-47 0 -81 -48 -81 -133v-7c0 -84 34 -133 82 -133c47 0 82 48 82 133v7c0 84 -36 133 -83 133z" />
    <glyph glyph-name="one.den" horiz-adv-x="325" 
d="M222 0h-72v318l-79 -30l-20 61l116 45h55v-394z" />
    <glyph glyph-name="one.den_alt" 
d="M352 0h-280v63h109v255l-95 -35l-20 61l132 50h55v-331h99v-63z" />
    <glyph glyph-name="two.den" 
d="M55 0v62l137 116c51 41 71 64 71 99c0 33 -26 55 -61 55c-33 0 -64 -20 -93 -59l-52 41c37 52 77 85 149 85c80 0 133 -48 133 -116c0 -53 -25 -88 -85 -137l-100 -82h188v-64h-287z" />
    <glyph glyph-name="three.den" 
d="M197 -10c-68 0 -114 25 -153 64l45 53c31 -31 68 -51 109 -51c36 0 68 23 68 58c0 37 -35 57 -84 57h-42l-12 46l113 106h-172v66h264v-57l-116 -106c68 -7 122 -39 122 -110c0 -76 -57 -126 -142 -126z" />
    <glyph glyph-name="four.den" 
d="M308 83v-85h-67v85h-188l-10 67l190 243h75v-252h53v-58h-53zM242 141v171l-133 -171h133z" />
    <glyph glyph-name="five.den" 
d="M196 -10c-63 0 -109 24 -150 60l44 54c35 -31 68 -47 107 -47c45 0 76 25 76 64s-31 61 -78 61c-28 0 -57 -7 -77 -16l-47 28l16 195h241v-67h-181l-7 -88c19 7 45 11 70 11c76 0 137 -43 137 -120c0 -83 -60 -135 -151 -135z" />
    <glyph glyph-name="six.den" 
d="M201 -10c-43 0 -79 16 -103 39c-28 29 -50 70 -50 153v2c0 129 60 215 168 215c52 0 83 -14 115 -41l-36 -57c-24 19 -48 32 -81 32c-49 0 -86 -45 -90 -113c23 19 47 31 90 31c69 0 129 -43 129 -124s-59 -137 -142 -137zM199 53c43 0 74 27 74 70s-29 69 -73 69
c-45 0 -75 -26 -75 -69v-1c0 -40 33 -70 74 -69z" />
    <glyph glyph-name="seven.den" 
d="M170 -2h-82l169 322h-192v69h276v-57z" />
    <glyph glyph-name="eight.den" 
d="M200 -10c-88 0 -148 44 -148 116c0 47 26 77 66 96c-32 17 -55 45 -55 88c0 63 55 109 138 109c80 0 136 -48 136 -109c0 -44 -23 -69 -55 -88c39 -19 66 -48 66 -95c0 -72 -62 -117 -148 -117zM200 340c-41 0 -69 -23 -69 -56c0 -35 29 -58 69 -58c39 0 69 23 69 58
c0 33 -29 56 -69 56zM200 170c-47 0 -79 -24 -79 -61c0 -36 31 -61 79 -61s78 24 78 61s-33 61 -78 61z" />
    <glyph glyph-name="nine.den" 
d="M199 399c43 0 79 -16 103 -40c28 -28 50 -69 50 -152v-2c0 -132 -60 -215 -168 -215c-52 0 -90 17 -121 44l36 57c24 -21 52 -35 87 -35c48 0 86 42 89 109c-23 -19 -45 -32 -88 -32c-69 0 -130 43 -130 127c0 80 59 139 142 139zM200 192c45 0 75 27 75 72v1
c0 41 -33 72 -74 71c-43 0 -74 -29 -74 -72c0 -44 29 -72 73 -72z" />
    <glyph glyph-name="fraction" unicode="&#x2044;" horiz-adv-x="100" 
d="M-223 0l251 364l224 336h71l-251 -364l-224 -336h-71z" />
    <glyph glyph-name="onehalf" unicode="&#xbd;" horiz-adv-x="825" 
d="M490 0v62l137 116c51 41 71 64 71 99c0 33 -26 55 -61 55c-33 0 -64 -20 -93 -59l-52 41c37 52 77 85 149 85c80 0 133 -48 133 -116c0 -53 -25 -88 -85 -137l-100 -82h188v-64h-287zM117 0l251 364l224 336h71l-251 -364l-224 -336h-71zM222 311h-72v318l-79 -30l-20 61
l116 46h55v-395z" />
    <glyph glyph-name="onehalf.alt" horiz-adv-x="900" 
d="M348 311h-280v64h109v254l-95 -35l-20 61l132 51h55v-331h99v-64zM565 0v62l137 116c51 41 71 64 71 99c0 33 -26 55 -61 55c-33 0 -64 -20 -93 -59l-52 41c37 52 77 85 149 85c80 0 133 -48 133 -116c0 -53 -25 -88 -85 -137l-100 -82h188v-64h-287zM197 0l251 364
l224 336h71l-251 -364l-224 -336h-71z" />
    <glyph glyph-name="onethird" unicode="&#x2153;" horiz-adv-x="825" 
d="M632 -10c-68 0 -114 25 -153 64l45 53c31 -31 68 -51 109 -51c36 0 68 23 68 58c0 37 -35 57 -84 57h-42l-12 46l113 106h-172v66h264v-57l-116 -106c68 -7 122 -39 122 -110c0 -76 -57 -126 -142 -126zM222 311h-72v318l-79 -30l-20 61l116 46h55v-395zM106 0l251 364
l224 336h71l-251 -364l-224 -336h-71z" />
    <glyph glyph-name="onethird.alt" horiz-adv-x="900" 
d="M348 311h-280v64h109v254l-95 -35l-20 61l132 51h55v-331h99v-64zM707 -10c-68 0 -114 25 -153 64l45 53c31 -31 68 -51 109 -51c36 0 68 23 68 58c0 37 -35 57 -84 57h-42l-12 46l113 106h-172v66h264v-57l-116 -106c68 -7 122 -39 122 -110c0 -76 -57 -126 -142 -126z
M187 0l251 364l224 336h71l-251 -364l-224 -336h-71z" />
    <glyph glyph-name="twothirds" unicode="&#x2154;" horiz-adv-x="900" 
d="M707 -10c-68 0 -114 25 -153 64l45 53c31 -31 68 -51 109 -51c36 0 68 23 68 58c0 37 -35 57 -84 57h-42l-12 46l113 106h-172v66h264v-57l-116 -106c68 -7 122 -39 122 -110c0 -76 -57 -126 -142 -126zM46 311v63l137 115c51 41 71 64 71 99c0 33 -26 55 -61 55
c-33 0 -64 -20 -93 -59l-52 41c37 53 77 85 149 85c80 0 133 -48 133 -116c0 -53 -25 -88 -85 -137l-100 -81h188v-65h-287zM177 0l251 364l224 336h71l-251 -364l-224 -336h-71z" />
    <glyph glyph-name="onequarter" unicode="&#xbc;" horiz-adv-x="825" 
d="M222 311h-72v318l-79 -30l-20 61l116 46h55v-395zM127 0l251 364l224 336h71l-251 -364l-224 -336h-71zM733 83v-85h-67v85h-188l-10 67l190 243h75v-252h53v-58h-53zM667 141v171l-133 -171h133z" />
    <glyph glyph-name="onequarter.alt" horiz-adv-x="900" 
d="M348 311h-280v64h109v254l-95 -35l-20 61l132 51h55v-331h99v-64zM202 0l251 364l224 336h71l-251 -364l-224 -336h-71zM808 83v-85h-67v85h-188l-10 67l190 243h75v-252h53v-58h-53zM742 141v171l-133 -171h133z" />
    <glyph glyph-name="threequarters" unicode="&#xbe;" horiz-adv-x="900" 
d="M808 83v-85h-67v85h-188l-10 67l190 243h75v-252h53v-58h-53zM742 141v171l-133 -171h133zM197 0l251 364l224 336h71l-251 -364l-224 -336h-71zM197 301c-68 0 -114 27 -153 64l45 53c31 -31 68 -51 109 -51c36 0 68 23 68 58c0 39 -35 57 -84 57h-42l-12 46l113 106
h-172v66h264v-57l-116 -106c68 -5 122 -39 122 -110c0 -76 -57 -126 -142 -126z" />
    <glyph glyph-name="onefifth" unicode="&#x2155;" horiz-adv-x="825" 
d="M631 -10c-63 0 -109 24 -150 60l44 54c35 -31 68 -47 107 -47c45 0 76 25 76 64s-31 61 -78 61c-28 0 -57 -7 -77 -16l-47 28l16 195h241v-67h-181l-7 -88c19 7 45 11 70 11c76 0 137 -43 137 -120c0 -83 -60 -135 -151 -135zM222 311h-72v318l-79 -30l-20 61l116 46h55
v-395zM111 0l251 364l224 336h71l-251 -364l-224 -336h-71z" />
    <glyph glyph-name="onefifth.alt" horiz-adv-x="900" 
d="M348 311h-280v64h109v254l-95 -35l-20 61l132 51h55v-331h99v-64zM706 -10c-63 0 -109 24 -150 60l44 54c35 -31 68 -47 107 -47c45 0 76 25 76 64s-31 61 -78 61c-28 0 -57 -7 -77 -16l-47 28l16 195h241v-67h-181l-7 -88c19 7 45 11 70 11c76 0 137 -43 137 -120
c0 -83 -60 -135 -151 -135zM192 0l251 364l224 336h71l-251 -364l-224 -336h-71z" />
    <glyph glyph-name="twofifths" unicode="&#x2156;" horiz-adv-x="900" 
d="M706 -10c-63 0 -109 24 -150 60l44 54c35 -31 68 -47 107 -47c45 0 76 25 76 64s-31 61 -78 61c-28 0 -57 -7 -77 -16l-47 28l16 195h241v-67h-181l-7 -88c19 7 45 11 70 11c76 0 137 -43 137 -120c0 -83 -60 -135 -151 -135zM187 0l251 364l224 336h71l-251 -364
l-224 -336h-71zM46 311v63l137 115c51 41 71 64 71 99c0 33 -26 55 -61 55c-33 0 -64 -20 -93 -59l-52 41c37 53 77 85 149 85c80 0 133 -48 133 -116c0 -53 -25 -88 -85 -137l-100 -81h188v-65h-287z" />
    <glyph glyph-name="threefifths" unicode="&#x2157;" horiz-adv-x="900" 
d="M706 -10c-63 0 -109 24 -150 60l44 54c35 -31 68 -47 107 -47c45 0 76 25 76 64s-31 61 -78 61c-28 0 -57 -7 -77 -16l-47 28l16 195h241v-67h-181l-7 -88c19 7 45 11 70 11c76 0 137 -43 137 -120c0 -83 -60 -135 -151 -135zM172 0l251 364l224 336h71l-251 -364
l-224 -336h-71zM188 301c-68 0 -114 27 -153 64l45 53c31 -31 68 -51 109 -51c36 0 68 23 68 58c0 39 -35 57 -84 57h-42l-12 46l113 106h-172v66h264v-57l-116 -106c68 -5 122 -39 122 -110c0 -76 -57 -126 -142 -126z" />
    <glyph glyph-name="fourfifths" unicode="&#x2158;" horiz-adv-x="900" 
d="M299 394v-85h-67v85h-188l-10 68l190 243h75v-253h53v-58h-53zM233 452v171l-133 -171h133zM706 -10c-63 0 -109 24 -150 60l44 54c35 -31 68 -47 107 -47c45 0 76 25 76 64s-31 61 -78 61c-28 0 -57 -7 -77 -16l-47 28l16 195h241v-67h-181l-7 -88c19 7 45 11 70 11
c76 0 137 -43 137 -120c0 -83 -60 -135 -151 -135zM187 0l251 364l224 336h71l-251 -364l-224 -336h-71z" />
    <glyph glyph-name="onesixth" unicode="&#x2159;" horiz-adv-x="825" 
d="M636 -10c-43 0 -79 16 -103 39c-28 29 -50 70 -50 153v2c0 129 60 215 168 215c52 0 83 -14 115 -41l-36 -57c-24 19 -48 32 -81 32c-49 0 -86 -45 -90 -113c23 19 47 31 90 31c69 0 129 -43 129 -124s-59 -137 -142 -137zM634 53c43 0 74 27 74 70s-29 69 -73 69
c-45 0 -75 -26 -75 -69v-1c0 -40 33 -70 74 -69zM222 311h-72v318l-79 -30l-20 61l116 46h55v-395zM117 0l251 364l224 336h71l-251 -364l-224 -336h-71z" />
    <glyph glyph-name="onesixth.alt" horiz-adv-x="900" 
d="M348 311h-280v64h109v254l-95 -35l-20 61l132 51h55v-331h99v-64zM711 -10c-43 0 -79 16 -103 39c-28 29 -50 70 -50 153v2c0 129 60 215 168 215c52 0 83 -14 115 -41l-36 -57c-24 19 -48 32 -81 32c-49 0 -86 -45 -90 -113c23 19 47 31 90 31c69 0 129 -43 129 -124
s-59 -137 -142 -137zM709 53c43 0 74 27 74 70s-29 69 -73 69c-45 0 -75 -26 -75 -69v-1c0 -40 33 -70 74 -69zM192 0l251 364l224 336h71l-251 -364l-224 -336h-71z" />
    <glyph glyph-name="fivesixths" unicode="&#x215a;" horiz-adv-x="900" 
d="M711 -10c-43 0 -79 16 -103 39c-28 29 -50 70 -50 153v2c0 129 60 215 168 215c52 0 83 -14 115 -41l-36 -57c-24 19 -48 32 -81 32c-49 0 -86 -45 -90 -113c23 19 47 31 90 31c69 0 129 -43 129 -124s-59 -137 -142 -137zM709 53c43 0 74 27 74 70s-29 69 -73 69
c-45 0 -75 -26 -75 -69v-1c0 -40 33 -70 74 -69zM177 0l251 364l224 336h71l-251 -364l-224 -336h-71zM187 301c-63 0 -109 25 -150 60l44 55c35 -31 68 -48 107 -48c45 0 76 25 76 64s-31 61 -78 61c-28 0 -57 -5 -77 -16l-47 28l16 195h241v-67h-181l-7 -88
c19 7 45 11 70 11c76 0 137 -43 137 -120c0 -81 -60 -135 -151 -135z" />
    <glyph glyph-name="oneeighth" unicode="&#x215b;" horiz-adv-x="825" 
d="M635 -10c-88 0 -148 44 -148 116c0 47 26 77 66 96c-32 17 -55 45 -55 88c0 63 55 109 138 109c80 0 136 -48 136 -109c0 -44 -23 -69 -55 -88c39 -19 66 -48 66 -95c0 -72 -62 -117 -148 -117zM635 340c-41 0 -69 -23 -69 -56c0 -35 29 -58 69 -58c39 0 69 23 69 58
c0 33 -29 56 -69 56zM635 170c-47 0 -79 -24 -79 -61c0 -36 31 -61 79 -61s78 24 78 61s-33 61 -78 61zM222 311h-72v318l-79 -30l-20 61l116 46h55v-395zM113 0l251 364l224 336h71l-251 -364l-224 -336h-71z" />
    <glyph glyph-name="oneeighth.alt" horiz-adv-x="900" 
d="M348 311h-280v64h109v254l-95 -35l-20 61l132 51h55v-331h99v-64zM710 -10c-88 0 -148 44 -148 116c0 47 26 77 66 96c-32 17 -55 45 -55 88c0 63 55 109 138 109c80 0 136 -48 136 -109c0 -44 -23 -69 -55 -88c39 -19 66 -48 66 -95c0 -72 -62 -117 -148 -117zM710 340
c-41 0 -69 -23 -69 -56c0 -35 29 -58 69 -58c39 0 69 23 69 58c0 33 -29 56 -69 56zM710 170c-47 0 -79 -24 -79 -61c0 -36 31 -61 79 -61s78 24 78 61s-33 61 -78 61zM192 0l251 364l224 336h71l-251 -364l-224 -336h-71z" />
    <glyph glyph-name="threeeighths" unicode="&#x215c;" horiz-adv-x="900" 
d="M710 -10c-88 0 -148 44 -148 116c0 47 26 77 66 96c-32 17 -55 45 -55 88c0 63 55 109 138 109c80 0 136 -48 136 -109c0 -44 -23 -69 -55 -88c39 -19 66 -48 66 -95c0 -72 -62 -117 -148 -117zM710 340c-41 0 -69 -23 -69 -56c0 -35 29 -58 69 -58c39 0 69 23 69 58
c0 33 -29 56 -69 56zM710 170c-47 0 -79 -24 -79 -61c0 -36 31 -61 79 -61s78 24 78 61s-33 61 -78 61zM177 0l251 364l224 336h71l-251 -364l-224 -336h-71zM188 301c-68 0 -114 27 -153 64l45 53c31 -31 68 -51 109 -51c36 0 68 23 68 58c0 39 -35 57 -84 57h-42l-12 46
l113 106h-172v66h264v-57l-116 -106c68 -5 122 -39 122 -110c0 -76 -57 -126 -142 -126z" />
    <glyph glyph-name="fiveeighths" unicode="&#x215d;" horiz-adv-x="900" 
d="M710 -10c-88 0 -148 44 -148 116c0 47 26 77 66 96c-32 17 -55 45 -55 88c0 63 55 109 138 109c80 0 136 -48 136 -109c0 -44 -23 -69 -55 -88c39 -19 66 -48 66 -95c0 -72 -62 -117 -148 -117zM710 340c-41 0 -69 -23 -69 -56c0 -35 29 -58 69 -58c39 0 69 23 69 58
c0 33 -29 56 -69 56zM710 170c-47 0 -79 -24 -79 -61c0 -36 31 -61 79 -61s78 24 78 61s-33 61 -78 61zM177 0l251 364l224 336h71l-251 -364l-224 -336h-71zM187 301c-63 0 -109 25 -150 60l44 55c35 -31 68 -48 107 -48c45 0 76 25 76 64s-31 61 -78 61
c-28 0 -57 -5 -77 -16l-47 28l16 195h241v-67h-181l-7 -88c19 7 45 11 70 11c76 0 137 -43 137 -120c0 -81 -60 -135 -151 -135z" />
    <glyph glyph-name="seveneighths" unicode="&#x215e;" horiz-adv-x="900" 
d="M710 -10c-88 0 -148 44 -148 116c0 47 26 77 66 96c-32 17 -55 45 -55 88c0 63 55 109 138 109c80 0 136 -48 136 -109c0 -44 -23 -69 -55 -88c39 -19 66 -48 66 -95c0 -72 -62 -117 -148 -117zM710 340c-41 0 -69 -23 -69 -56c0 -35 29 -58 69 -58c39 0 69 23 69 58
c0 33 -29 56 -69 56zM710 170c-47 0 -79 -24 -79 -61c0 -36 31 -61 79 -61s78 24 78 61s-33 61 -78 61zM170 309h-82l169 323h-192v68h276v-56zM147 0l251 364l224 336h71l-251 -364l-224 -336h-71z" />
    <glyph glyph-name="zero.tab" horiz-adv-x="600" 
d="M299 -11c-152 0 -254 134 -254 353v14c0 220 103 355 255 355c151 0 255 -134 255 -353v-14c0 -220 -105 -355 -256 -355zM299 606c-80 0 -135 -81 -135 -249v-13c0 -167 56 -250 136 -250s136 82 136 249v13c0 167 -56 250 -137 250z" />
    <glyph glyph-name="one.tab" horiz-adv-x="600" 
d="M562 0h-484v101h192v478l-170 -61l-29 100l233 87h84v-604h174v-101z" />
    <glyph glyph-name="two.tab" horiz-adv-x="600" 
d="M542 0h-493v96l235 209c92 84 127 127 127 189c0 68 -49 106 -114 106s-110 -34 -162 -106l-83 71c64 91 132 145 253 145c139 0 230 -83 230 -206v-2c0 -99 -49 -158 -140 -238l-178 -157h325v-107z" />
    <glyph glyph-name="three.tab" horiz-adv-x="600" 
d="M294 -12c-116 0 -194 43 -258 110l78 88c52 -55 106 -88 182 -88c68 0 126 41 126 109v2c0 68 -58 103 -154 103h-64l-24 76l200 206h-308v106h460v-97l-203 -201c114 -8 214 -61 214 -188v-2c0 -131 -104 -224 -249 -224z" />
    <glyph glyph-name="three.tab_alt" horiz-adv-x="600" 
d="M298 -12c-108 0 -198 46 -259 118l81 79c47 -56 104 -89 183 -89s128 42 128 106c0 67 -56 101 -155 101h-72v101h81c83 0 133 39 133 103c0 57 -47 97 -120 97c-75 0 -121 -33 -166 -88l-81 70c56 73 132 126 249 126c145 0 239 -75 239 -192c0 -83 -51 -134 -110 -161
c70 -27 122 -71 122 -165c0 -123 -102 -206 -253 -206z" />
    <glyph glyph-name="four.tab" horiz-adv-x="600" 
d="M372 0v153h-323l-22 111l319 440h138v-455h91v-96h-91v-153h-112zM373 248v327l-236 -327h236z" />
    <glyph glyph-name="five.tab" horiz-adv-x="600" 
d="M290 -12c-109 0 -187 42 -252 101l71 89c57 -51 114 -82 183 -82c80 0 138 45 138 121v2c0 71 -54 117 -143 117c-56 0 -99 -15 -134 -31l-74 48l24 347h415v-109h-315l-12 -170c35 11 68 19 115 19c132 0 244 -69 244 -216v-2c0 -141 -110 -234 -260 -234z" />
    <glyph glyph-name="six.tab" horiz-adv-x="600" 
d="M330 450c119 0 222 -79 222 -220v-3c0 -141 -105 -239 -244 -239c-76 0 -134 27 -173 66c-53 53 -84 123 -84 273v4c0 227 96 380 284 380c79 0 139 -25 190 -68l-56 -95c-41 33 -81 55 -137 55c-120 0 -158 -125 -161 -220c39 43 91 67 159 67zM304 90
c77 0 130 56 130 132v1c0 77 -52 128 -128 128c-83 0 -132 -54 -132 -130v-1c0 -76 55 -130 130 -130z" />
    <glyph glyph-name="seven.tab" horiz-adv-x="600" 
d="M413 590h-347v110h484v-94l-304 -606h-137z" />
    <glyph glyph-name="eight.tab" horiz-adv-x="600" 
d="M300 -10c-147 0 -254 80 -254 200v3c0 84 44 139 120 170c-57 32 -100 80 -100 157v2c0 108 100 188 234 188c133 0 233 -80 233 -188v-2c0 -77 -41 -125 -100 -157c73 -33 120 -84 120 -168v-2c0 -126 -108 -203 -253 -203zM300 403c67 0 118 45 118 105v2
c0 57 -47 101 -118 101s-119 -43 -119 -100v-3c0 -60 51 -105 119 -105zM300 89c87 0 135 46 135 109v2c0 67 -58 108 -135 108c-79 0 -136 -41 -136 -108v-2c0 -63 49 -109 136 -109z" />
    <glyph glyph-name="nine.tab" horiz-adv-x="600" 
d="M269 244c-117 0 -221 78 -221 223v3c0 144 105 242 244 242c76 0 134 -27 173 -66c53 -53 84 -123 84 -273v-4c0 -227 -96 -380 -284 -380c-83 0 -149 29 -200 72l56 95c47 -36 91 -59 147 -59c116 0 155 119 160 213c-39 -43 -91 -66 -159 -66zM296 610
c-79 0 -130 -56 -130 -135v-1c0 -78 52 -131 128 -131c83 0 132 56 132 133v1c0 78 -55 133 -130 133z" />
    <glyph glyph-name="dollar.tab" horiz-adv-x="600" 
d="M404 780l-11 -88c55 -11 101 -32 144 -63l-48 -90c-37 26 -75 45 -112 56l-24 -199c135 -37 198 -97 198 -197v-1c0 -123 -100 -200 -240 -200h-3l-14 -116h-83l16 124c-72 15 -135 47 -188 88l54 87c45 -36 94 -65 149 -78l26 206c-135 37 -198 94 -198 195v1
c0 121 98 197 233 197h8l10 78h83zM443 191v1c0 43 -24 75 -103 98l-24 -196c80 0 127 36 127 97zM178 513v-1c0 -41 22 -73 102 -98l24 193h-8h-1c-76 0 -117 -38 -117 -94z" />
    <glyph glyph-name="sterling.tab" horiz-adv-x="600" 
d="M131 382v92c0 75 19 131 64 176c37 37 89 60 161 60c96 0 156 -42 199 -97l-81 -79c-33 40 -68 64 -115 64c-35 0 -56 -10 -75 -29c-21 -20 -32 -52 -32 -95v-92h229v-100h-229v-177h302v-105h-497v76l74 23v183h-74v100h74z" />
    <glyph glyph-name="Euro.tab" horiz-adv-x="600" 
d="M33 396v81h81c35 140 129 234 263 234c89 0 149 -38 193 -91l-70 -81c-35 43 -73 68 -124 68c-68 0 -119 -47 -143 -130h188v-81h-201c-3 -15 -2 -27 -2 -42v-6c0 -13 0 -26 1 -39h202v-81h-190c23 -85 74 -135 143 -135c56 0 90 26 129 71l71 -74
c-48 -59 -112 -101 -205 -101c-130 0 -224 91 -256 239h-80v81h70c-1 12 -1 25 -1 37v7c0 15 0 28 1 43h-70z" />
    <glyph glyph-name="yen.tab" horiz-adv-x="600" 
d="M80 181h163v84h-163v81h142l-210 354h132l158 -287l158 287h128l-211 -354h143v-81h-162v-84h162v-81h-162v-100h-115v100h-163v81z" />
    <glyph glyph-name="cent.tab" horiz-adv-x="600" 
d="M445 706l-19 -95c51 -15 86 -43 119 -79l-68 -73c-24 25 -46 44 -74 56l-66 -333c60 3 104 31 144 71l65 -65c-52 -60 -124 -102 -220 -102h-4l-18 -92h-88l21 106c-104 35 -177 128 -177 249v2c0 152 115 273 272 273h9l16 82h88zM170 350v-2c0 -73 34 -128 90 -152
l66 332c-88 -3 -156 -74 -156 -178z" />
    <glyph glyph-name="numbersign.tab" horiz-adv-x="600" 
d="M30 262h92l27 180h-88v99h102l24 159h94l-24 -159h141l23 159h94l-24 -159h79v-99h-93l-27 -180h89v-99h-103l-24 -163h-94l24 163h-141l-23 -163h-94l24 163h-78v99zM241 444l-27 -184h144l27 184h-144z" />
    <glyph glyph-name="paragraph.tab" horiz-adv-x="600" 
d="M378 0v244h-42c-164 0 -285 78 -285 227v1c0 142 112 228 276 228h174v-700h-123z" />
    <glyph glyph-name="section.tab" horiz-adv-x="600" 
d="M306 -10c-89 0 -162 31 -217 82l61 74c47 -41 97 -65 156 -65c51 0 72 21 72 48v1c0 28 -22 48 -122 75c-151 42 -207 77 -207 150v1c0 60 47 100 116 113c-35 24 -56 54 -56 101v1c0 76 73 139 185 139c89 0 162 -31 217 -82l-61 -74c-47 41 -97 65 -156 65
c-51 0 -72 -21 -72 -48v-1c0 -28 22 -48 122 -75c151 -42 207 -78 207 -150v-1c0 -60 -47 -100 -116 -113c35 -24 56 -54 56 -101v-1c0 -76 -73 -139 -185 -139zM225 423c-43 1 -71 -20 -71 -51v-1c0 -31 27 -50 104 -70c74 -21 93 -24 117 -24c43 -1 71 20 71 51v1
c0 31 -27 50 -104 70c-75 19 -94 24 -117 24z" />
    <glyph glyph-name="degree.tab" horiz-adv-x="600" 
d="M299 302c-112 0 -206 92 -206 204v1c0 110 95 202 208 202c112 0 206 -91 206 -203v-1c0 -110 -97 -203 -208 -203zM301 374c76 0 129 57 129 132v1c0 71 -55 131 -131 131s-129 -60 -129 -132v-1c0 -73 55 -131 131 -131z" />
    <glyph glyph-name="percent.tab" horiz-adv-x="600" 
d="M444 700h66l-190 -362v-1l-164 -337h-66l190 362v1zM148 639c-31 0 -49 -35 -49 -106v-15c0 -71 18 -106 49 -106s49 35 49 106v15c0 71 -18 106 -49 106zM148 707c72 0 119 -69 119 -177v-8c0 -108 -47 -177 -119 -177s-119 68 -119 176v8c0 108 47 178 119 178z
M452 355c72 0 119 -68 119 -176v-8c0 -108 -47 -178 -119 -178s-119 69 -119 177v8c0 108 47 177 119 177zM452 288c-31 0 -49 -35 -49 -106v-15c0 -71 18 -106 49 -106s49 35 49 106v15c0 71 -18 106 -49 106z" />
    <glyph glyph-name="quotedbl.tab" horiz-adv-x="600" 
d="M339 400l46 300h137v-5l-120 -295h-63zM104 400l46 300h137v-5l-120 -295h-63z" />
    <glyph glyph-name="quotesingle.tab" horiz-adv-x="300" 
d="M71 400l46 300h139v-5l-121 -295h-64z" />
    <glyph glyph-name="period.tab" horiz-adv-x="300" 
d="M80 0v143h140v-143h-140z" />
    <glyph glyph-name="comma.tab" horiz-adv-x="300" 
d="M62 -146l-13 52c61 12 90 43 86 94h-55v143h140v-122c0 -112 -55 -158 -158 -167z" />
    <glyph glyph-name="colon.tab" horiz-adv-x="300" 
d="M81 388v140h138v-140h-138zM81 0v141h138v-141h-138z" />
    <glyph glyph-name="semicolon.tab" horiz-adv-x="300" 
d="M81 388v140h138v-140h-138zM62 -146l-13 52c61 12 90 43 86 94h-54v141h138v-120c0 -112 -54 -158 -157 -167z" />
    <glyph glyph-name="twodotleader.tab" horiz-adv-x="600" 
d="M383 0v136h134v-136h-134zM83 0v136h134v-136h-134z" />
    <glyph glyph-name="periodcentered.tab" horiz-adv-x="300" 
d="M80 235v143h140v-143h-140z" />
    <glyph glyph-name="slash.tab" horiz-adv-x="600" 
d="M591 798l-491 -926h-106l492 926h105z" />
    <glyph glyph-name="bar.tab" horiz-adv-x="300" 
d="M101 -128v926h98v-926h-98z" />
    <glyph glyph-name="underscore.tab" horiz-adv-x="600" 
d="M-2 -160v94h604v-94h-604z" />
    <glyph glyph-name="plus.tab" horiz-adv-x="600" 
d="M539 299h-185l1 -188h-110l1 188h-185v106h185l-1 188h110l-1 -188h185v-106z" />
    <glyph glyph-name="minus.tab" horiz-adv-x="600" 
d="M539 295h-478v114h478v-114z" />
    <glyph glyph-name="divide.tab" horiz-adv-x="600" 
d="M233 496v128h134v-128h-134zM539 300h-478v104h478v-104zM233 80v128h134v-128h-134z" />
    <glyph glyph-name="equal.tab" horiz-adv-x="600" 
d="M523 420h-446v108h446v-108zM523 176h-446v108h446v-108z" />
    <glyph glyph-name="multiply.tab" horiz-adv-x="600" 
d="M455 120l-156 159l-156 -159l-75 75l159 156l-159 156l77 77l156 -159l156 159l75 -75l-159 -156l159 -156z" />
    <glyph glyph-name="less.tab" horiz-adv-x="600" 
d="M515 79l-451 219v108l451 219v-115l-336 -157l336 -157v-117z" />
    <glyph glyph-name="greater.tab" horiz-adv-x="600" 
d="M536 298l-451 -219v115l336 157l-336 157v117l451 -219v-108z" />
    <glyph glyph-name="plusminus.tab" horiz-adv-x="600" 
d="M539 373h-185l1 -181h-110l1 181h-185v107l185 -1l-1 181h110l-1 -181l185 1v-107zM539 0h-478v103h478v-103z" />
    <glyph glyph-name="baht" unicode="&#xe3f;" horiz-adv-x="644" 
d="M324 780h81l-10 -82c112 -12 186 -74 186 -177v-1c0 -89 -53 -134 -111 -158c77 -29 131 -75 131 -168v-1c0 -125 -100 -193 -249 -193h-39l-12 -118h-81l12 118h-157v700h240zM351 308h-7l-23 -206h34c84 0 134 36 134 104v1c0 63 -47 102 -138 101zM185 398h100l22 200
h-122v-200zM469 501v1c0 52 -32 86 -92 94l-23 -198c72 4 115 38 115 103zM185 102h66l23 206h-89v-206z" />
    <glyph glyph-name="colonmonetary" unicode="&#x20a1;" horiz-adv-x="614" 
d="M456 780h62l-15 -108c27 -12 49 -28 72 -45l-47 -103c-15 13 -29 24 -44 35l-63 -451c36 11 66 33 98 64l60 -80c-49 -47 -99 -79 -170 -90l-16 -120h-62l16 117c-27 1 -53 5 -78 12l-17 -129h-61l21 151c-101 53 -168 163 -168 312v9c0 188 111 318 261 342l11 84h62
l-11 -79c28 -1 53 -2 77 -9zM349 600l-68 -486c23 -9 51 -14 82 -14h1l68 487c-23 8 -46 13 -71 13h-12zM157 351v-8c0 -92 27 -157 74 -197l61 442c-81 -29 -135 -112 -135 -237z" />
    <glyph glyph-name="florin" unicode="&#x192;" horiz-adv-x="527" 
d="M97 -5c-24 0 -39 1 -56 5v99c14 -2 27 -3 40 -3c43 0 65 19 73 67l35 193h-80v101h97l18 93c19 101 67 155 175 155c39 0 67 -4 92 -11v-102c-24 7 -48 10 -69 10c-47 0 -70 -22 -81 -77l-12 -68h127v-101h-145l-38 -211c-19 -108 -72 -150 -176 -150z" />
    <glyph glyph-name="naira" unicode="&#x20a6;" horiz-adv-x="834" 
d="M801 210h-102v-210h-126l-130 210h-192v-210h-116v210h-101v77h101v130h-101v77h101v206h136l126 -206h186v206h116v-206h102v-77h-102v-130h102v-77zM249 527v-243h152l-149 243h-3zM582 187h3v233h-147z" />
    <glyph glyph-name="peso" unicode="&#x20b1;" horiz-adv-x="747" 
d="M131 0v420h-101v74h101v206h235c149 0 248 -83 264 -206h97v-74h-97c-16 -136 -137 -212 -278 -212h-97v-208h-124zM251 313h103c87 0 142 43 154 111h-257v-111zM251 594v-104h255c-13 68 -69 104 -153 104h-102z" />
    <glyph glyph-name="R_p" horiz-adv-x="1201" 
d="M78 0v700h252c151 0 247 -82 247 -221v-4c0 -108 -60 -174 -144 -205l164 -270h-134l-148 246h-121v-246h-116zM684 -160v689h114v-84c33 52 81 95 157 95c107 0 209 -90 209 -268v-14c0 -177 -101 -268 -209 -268c-78 0 -124 44 -157 90v-240h-114zM924 90
c68 0 125 62 125 169v11c0 104 -57 170 -125 170s-128 -66 -128 -170v-11c0 -104 60 -169 128 -169zM194 349h131c81 0 134 45 134 122v3c0 81 -52 120 -136 120h-129v-245z" />
    <glyph glyph-name="rupee" unicode="&#x20a8;" horiz-adv-x="1098" 
d="M78 0v700h252c151 0 247 -82 247 -221v-4c0 -108 -60 -174 -144 -205l164 -270h-134l-148 246h-121v-246h-116zM864 -10c-80 0 -154 26 -218 73l51 80c56 -39 110 -60 170 -60c47 0 82 23 82 58v2c0 31 -20 48 -111 77c-110 35 -167 72 -167 157v2c0 98 81 157 185 157
c64 0 129 -20 185 -55l-44 -85c-48 29 -96 48 -143 48c-48 0 -78 -23 -78 -54v-2c0 -33 22 -50 113 -79c111 -36 165 -74 165 -157v-2c0 -104 -86 -160 -190 -160zM194 349h131c81 0 134 45 134 122v3c0 81 -52 120 -136 120h-129v-245z" />
    <glyph glyph-name="won" unicode="&#x20a9;" horiz-adv-x="1114" 
d="M1038 700l-58 -213h99v-80h-120l-31 -113h151v-80h-172l-58 -216h-140l-60 216h-185l-59 -216h-140l-58 216h-172v80h150l-30 113h-120v80h98l-57 213h132l50 -213h173l58 215h140l57 -215h174l50 213h128zM554 561l-72 -271h149l-71 271h-6zM336 133h6l72 277h-142z
M776 133h6l63 277h-141z" />
    <glyph glyph-name="hryvnia" unicode="&#x20b4;" horiz-adv-x="642" 
d="M51 427l7 56l291 -35l6 5h1c41 35 57 58 56 87v1c0 37 -30 66 -86 65c-49 0 -102 -22 -157 -65l-64 83c64 53 136 88 232 88c131 0 208 -74 208 -165v-1c0 -43 -17 -79 -52 -115l118 -14l-7 -57l-168 20l-81 -70l237 -28l-7 -57l-289 35l-10 -9h-1
c-47 -41 -61 -61 -60 -92v-1c0 -40 36 -66 92 -65c55 0 112 23 171 68l64 -83c-67 -53 -145 -90 -244 -90c-141 0 -216 75 -216 164v1c0 43 18 83 58 124l-118 15l7 57l169 -21l82 70z" />
    <glyph glyph-name="numero" unicode="&#x2116;" horiz-adv-x="1128" 
d="M76 0v700h107l309 -466v466h114v-700h-99l-317 481v-481h-114zM887 280c-109 0 -185 89 -185 208v6c0 120 76 210 186 210c109 0 185 -90 185 -209v-6c0 -120 -76 -209 -186 -209zM888 358c57 0 95 56 95 129v7c0 75 -38 132 -96 132c-59 0 -96 -57 -96 -130v-7
c0 -75 37 -131 97 -131zM709 133v71h355v-71h-355z" />
    <glyph glyph-name="sheqel" unicode="&#x20aa;" horiz-adv-x="627" 
d="M233 139l-28 191h66l23 -147c9 -57 38 -83 97 -83h80v428h93v-528h-174c-96 0 -142 44 -157 139zM343 201v143c0 57 -29 85 -87 85h-100v-429h-93v528h211c88 0 135 -45 135 -133v-194h-66z" />
    <glyph glyph-name="Delta" unicode="&#x2206;" horiz-adv-x="787" 
d="M56 0l-10 89l284 616h127l284 -616l-10 -89h-675zM186 110h411l-205 459z" />
    <glyph glyph-name="Omega" unicode="&#x2126;" horiz-adv-x="869" 
d="M435 712c221 0 356 -141 356 -326v-1c0 -126 -67 -212 -158 -279h177v-106h-306v104c91 61 158 133 158 266v1c0 134 -88 227 -228 227c-139 0 -227 -92 -227 -224v-1c0 -125 65 -205 158 -269v-104h-306v106h177c-93 67 -158 153 -158 280v1c0 176 135 325 357 325z" />
    <glyph glyph-name="mu" unicode="&#xb5;" horiz-adv-x="668" 
d="M646 98v-95c-19 -5 -39 -10 -70 -10c-68 0 -108 23 -127 75c-32 -49 -78 -76 -131 -76c-57 0 -112 27 -137 83h-2c8 -43 16 -75 16 -122v-113h-120v688h122v-300c0 -81 45 -132 117 -132s119 51 119 132v300h121v-370c0 -45 19 -64 58 -64c13 0 25 1 34 4z" />
    <glyph glyph-name="asciicircum" unicode="^" horiz-adv-x="500" 
d="M56 493l151 208h86l151 -208h-93l-102 132l-102 -132h-91z" />
    <glyph glyph-name="asciitilde" unicode="~" horiz-adv-x="495" 
d="M324 239c-29 0 -58 10 -83 21c-23 11 -44 19 -60 19c-29 0 -40 -15 -55 -50l-67 21c23 80 51 124 112 124c29 0 58 -10 83 -21c23 -11 44 -18 60 -18c29 0 40 14 55 49l67 -20c-23 -81 -51 -125 -112 -125z" />
    <glyph glyph-name="hcoslug" horiz-adv-x="694" 
d="M247 18h26c1 15 -5 22 -19 22c-12 0 -20 -8 -20 -21c1 -13 8 -20 21 -20c10 0 16 5 18 14h-7c-1 -5 -4 -7 -9 -7c-7 0 -10 4 -10 12zM254 35c5 0 7 -4 7 -12h-14c0 8 2 12 7 12zM195 78c-5 0 -8 5 -8 16c0 10 3 15 8 15s8 -5 8 -15c0 -11 -3 -16 -8 -16zM210 4
c-5 0 -8 5 -8 16c0 10 3 15 8 15s8 -5 8 -15c0 -11 -3 -16 -8 -16zM210 -1c12 0 21 9 21 21s-9 20 -21 20s-21 -8 -21 -20c0 -13 9 -21 21 -21zM546 4c-5 0 -8 5 -8 16c0 10 3 15 8 15s8 -5 8 -15c0 -11 -3 -16 -8 -16zM546 -1c12 0 21 9 21 21s-9 20 -21 20s-21 -8 -21 -20
c0 -13 9 -21 21 -21zM125 81v-7h30v7h-10v16h4c3 0 5 -3 6 -8h7v23h-7c-1 -5 -3 -8 -6 -8h-4v18h12c7 0 8 -2 11 -13h8v20h-51v-7h7v-41h-7zM195 73c12 0 21 9 21 21s-9 20 -21 20s-21 -8 -21 -20c0 -13 9 -21 21 -21zM644 700v-800h-594v800h594zM498 -1c15 0 23 8 24 23
h-8c-1 -11 -6 -16 -14 -16c-11 0 -16 7 -16 22s5 22 14 22c7 0 12 -5 15 -16h8v22h-8l-1 -6c-5 5 -10 7 -16 7c-15 0 -27 -11 -27 -30s10 -28 29 -28zM372 80c-5 0 -8 4 -8 13s3 13 8 13s7 -4 7 -13s-2 -13 -7 -13zM276 7v-7h23v7h-5v25h14v-25h-5v-7h23v7h-6v52l-10 -2
c-3 1 -6 2 -9 2c-11 0 -19 -6 -19 -19v-1h-7v-7h7v-25h-6zM368 7v-7h26v7h-8v16c3 6 5 9 7 9v-1c0 -4 2 -6 6 -6c5 0 7 2 7 7s-3 8 -8 8s-9 -4 -12 -11v10h-18v-7h6v-25h-6zM352 125v-52h6l4 8c3 -5 8 -8 14 -8c12 0 16 12 16 21c0 13 -5 20 -15 20c-7 0 -11 -3 -13 -9v27
h-18v-7h6zM400 75c-5 0 -7 -2 -7 -7c0 -6 4 -9 11 -9c8 0 14 5 18 16l13 31h5v7h-17v-7h5l-8 -20l-9 20h6v7h-25v-7h5c1 -3 3 -8 6 -13l10 -20c-1 -5 -4 -8 -8 -8c3 3 2 10 -5 10zM247 428c0 17 11 29 27 29c17 0 29 -15 29 -38c0 -17 -7 -33 -18 -50c-23 23 -38 36 -38 59z
M302 88v-14h7l1 4c3 -3 6 -5 13 -5c9 0 14 4 14 13c0 16 -24 10 -24 18c0 3 2 4 5 4s7 -2 10 -7h7v13h-6l-2 -5c-2 3 -6 5 -11 5c-9 0 -14 -5 -14 -12c0 -16 24 -11 24 -19c0 -3 -2 -4 -5 -4c-4 0 -8 3 -12 9h-7zM261 219c-31 0 -52 23 -52 54c0 16 5 29 16 40
c19 -17 46 -47 74 -82c-10 -8 -23 -12 -38 -12zM286 124l-12 -2v-9h-7v-7h7v-20c0 -9 4 -13 12 -13c7 0 12 4 14 13l-5 2c-1 -5 -2 -7 -5 -7s-4 2 -4 5v20h13v7h-13v11zM428 306c9 -15 24 -25 43 -25c28 0 50 23 50 54s-22 52 -50 52c-23 0 -43 -13 -60 -38
c-3 27 -22 38 -49 37c6 10 9 21 9 34c0 36 -33 74 -95 74c-67 0 -109 -41 -109 -85c0 -29 10 -46 31 -69c-55 -19 -82 -49 -82 -91c0 -53 49 -93 109 -93c42 0 77 15 104 45c33 -35 54 -45 85 -45c43 0 77 35 80 94l-7 2c-11 -17 -22 -29 -43 -29c-20 0 -37 12 -62 41
c15 20 31 33 46 42zM219 81v-7h22v7h-4v15c0 7 2 10 7 10c4 0 6 -2 6 -7v-18h-4v-7h22v7h-6v19c0 9 -4 14 -12 14c-6 0 -11 -4 -14 -11v10h-17v-7h6v-25h-6zM464 33h-18v-7h6c-1 -3 -3 -6 -6 -9l-12 13c7 3 11 7 11 12c0 7 -5 12 -14 12c-11 0 -17 -6 -17 -14
c0 -4 2 -8 6 -12c-9 -3 -13 -8 -13 -15c0 -9 6 -14 18 -14c6 0 11 2 15 6c3 -4 7 -6 12 -6c7 0 11 4 13 12l-5 1c-1 -3 -2 -5 -4 -5s-4 2 -6 5c4 4 6 7 9 14h5v7zM429 6c-7 0 -10 3 -10 10c0 3 1 6 4 9c5 -5 9 -9 14 -16c-3 -2 -5 -3 -8 -3zM294 39v3c0 9 2 12 6 12
c1 0 2 0 3 -1c-1 -1 -1 -3 -1 -4c0 -3 2 -5 6 -5v-5h-14zM425 43c0 3 2 5 5 5c4 0 6 -2 6 -6s-2 -7 -5 -9c-4 4 -6 7 -6 10zM312 342c20 13 34 25 42 34c23 -23 18 -47 -1 -80c-13 15 -25 30 -41 46zM340 18h26c1 15 -5 22 -19 22c-11 0 -20 -9 -20 -21c0 -13 7 -20 21 -20
c9 0 15 5 18 14h-7c-1 -5 -4 -7 -9 -7c-7 0 -10 4 -10 12zM347 35c5 0 7 -4 7 -12h-14c0 8 2 12 7 12zM124 7v-7h29v7h-8v18h22v-18h-8v-7h29v7h-8v41h8v7h-29v-7h8v-16h-22v16h8v7h-29v-7h8v-41h-8zM576 13c-5 0 -7 -2 -7 -7s2 -7 7 -7s7 2 7 7s-2 7 -7 7z" />
    <glyph glyph-name="C" unicode="C" horiz-adv-x="739" 
d="M415 -12c-204 0 -356 159 -356 360v2c0 199 149 362 360 362c130 0 208 -45 275 -109l-79 -91c-57 52 -116 86 -197 86c-132 0 -230 -109 -230 -246v-2c0 -137 97 -248 231 -248c85 0 141 34 201 90l79 -80c-71 -77 -154 -124 -284 -124z" />
    <glyph glyph-name="uni00A0" unicode="&#xa0;" horiz-adv-x="25000" 
 />
    <glyph glyph-name="emspace" unicode="&#x2003;" horiz-adv-x="1000" 
 />
    <glyph glyph-name="enspace" unicode="&#x2002;" horiz-adv-x="500" 
 />
    <glyph glyph-name="threeperemspace" unicode="&#x2004;" horiz-adv-x="333" 
 />
    <glyph glyph-name="fourperemspace" unicode="&#x2005;" horiz-adv-x="250" 
 />
    <glyph glyph-name="thinspace" unicode="&#x2009;" horiz-adv-x="133" 
 />
    <glyph glyph-name="hairspace" unicode="&#x200a;" horiz-adv-x="75" 
 />
    <glyph glyph-name="space.tab" horiz-adv-x="300" 
 />
    <glyph glyph-name="figurespace" unicode="&#x2007;" horiz-adv-x="600" 
 />
    <glyph glyph-name="A" unicode="A" horiz-adv-x="790" 
d="M30 0l308 705h114l308 -705h-130l-71 169h-331l-72 -169h-126zM273 278h241l-121 280z" />
    <glyph glyph-name="acute" unicode="&#xb4;" horiz-adv-x="500" 
d="M162 595l104 164l110 -49l-123 -115h-91z" />
    <glyph glyph-name="hungarumlaut" unicode="&#x2dd;" horiz-adv-x="500" 
d="M233 595l105 164l106 -49l-123 -115h-88zM63 595l103 164l106 -49l-121 -115h-88z" />
    <glyph glyph-name="grave" unicode="`" horiz-adv-x="500" 
d="M247 595l-123 115l110 49l104 -164h-91z" />
    <glyph glyph-name="caron.alt" horiz-adv-x="500" 
d="M203 589l12 190h94v-3l-56 -187h-50z" />
    <glyph glyph-name="circumflex" unicode="&#x2c6;" horiz-adv-x="500" 
d="M77 595l117 147h112l117 -147h-96l-78 67l-78 -67h-94z" />
    <glyph glyph-name="caron" unicode="&#x2c7;" horiz-adv-x="500" 
d="M423 742l-117 -147h-112l-117 147h96l78 -67l78 67h94z" />
    <glyph glyph-name="breve" unicode="&#x2d8;" horiz-adv-x="500" 
d="M250 593c-96 0 -164 53 -172 145h84c12 -36 37 -61 88 -61s76 25 88 61h84c-8 -92 -76 -145 -172 -145z" />
    <glyph glyph-name="tilde" unicode="&#x2dc;" horiz-adv-x="500" 
d="M327 595c-31 0 -59 10 -84 21c-23 11 -44 19 -60 19c-29 0 -40 -15 -55 -50l-67 21c23 80 51 124 112 124c31 0 59 -10 84 -21c23 -11 44 -19 60 -19c29 0 40 15 55 50l67 -20c-23 -81 -51 -125 -112 -125z" />
    <glyph glyph-name="macron" unicode="&#xaf;" horiz-adv-x="500" 
d="M80 606v88h340v-88h-340z" />
    <glyph glyph-name="dieresis" unicode="&#xa8;" horiz-adv-x="500" 
d="M286 595v119h123v-119h-123zM91 595v119h123v-119h-123z" />
    <glyph glyph-name="dotaccent" unicode="&#x2d9;" horiz-adv-x="500" 
d="M187 595v119h126v-119h-126z" />
    <glyph glyph-name="ring" unicode="&#x2da;" horiz-adv-x="500" 
d="M250 593c-64 0 -116 51 -116 112s52 112 116 112s116 -51 116 -112s-52 -112 -116 -112zM250 638c37 0 67 30 67 67s-30 67 -67 67s-67 -30 -67 -67s30 -67 67 -67z" />
    <glyph glyph-name="commaaccent" unicode="&#x326;" horiz-adv-x="500" 
d="M183 -272l-8 39c49 7 73 29 70 68h-54v102h118v-87c0 -83 -43 -118 -126 -122z" />
    <glyph glyph-name="cedilla" unicode="&#xb8;" horiz-adv-x="500" 
d="M237 -166l-106 45l94 138h90z" />
    <glyph glyph-name="ogonek" unicode="&#x2db;" horiz-adv-x="500" 
d="M346 -106v-58c-12 -1 -23 -2 -32 -2c-87 1 -132 36 -132 85c0 33 20 62 52 93l81 -5c-31 -27 -41 -49 -41 -70c0 -29 24 -43 72 -43z" />
    <glyph glyph-name="uni0384" unicode="&#x384;" horiz-adv-x="500" 
d="M175 595l68 171l108 -47l-96 -124h-80z" />
    <glyph glyph-name="uni0385" unicode="&#x385;" horiz-adv-x="500" 
d="M339 595v117h110v-117h-110zM51 595v117h110v-117h-110zM190 595l44 193l104 -23l-79 -170h-69z" />
    <glyph glyph-name="uni0387" unicode="&#x387;" horiz-adv-x="279" 
d="M73 391v137h133v-137h-133z" />
    <glyph glyph-name="descendercyrillic" horiz-adv-x="500" 
d="M193 -132l7 183h100l7 -183h-114z" />
    <glyph glyph-name="descendercyrillic.cap" horiz-adv-x="500" 
d="M190 -144l7 205h106l7 -205h-120z" />
    <glyph glyph-name="straightdescendercyrillic" horiz-adv-x="500" 
d="M195 -132v132h-7v109h117v-241h-110z" />
    <glyph glyph-name="straightdescendercyrillic.cap" horiz-adv-x="500" 
d="M192 -144v144h-7v112h123v-256h-116z" />
    <glyph glyph-name="acute.cap" horiz-adv-x="500" 
d="M157 758l112 145l110 -48l-128 -97h-94z" />
    <glyph glyph-name="hungarumlaut.cap" horiz-adv-x="500" 
d="M56 758l112 145l106 -48l-127 -97h-91zM231 758l112 145l106 -48l-127 -97h-91z" />
    <glyph glyph-name="grave.cap" horiz-adv-x="500" 
d="M342 758h-95l-127 97l109 48z" />
    <glyph glyph-name="circumflex.cap" horiz-adv-x="500" 
d="M72 758l121 135h114l121 -135h-102l-77 57l-77 -57h-100z" />
    <glyph glyph-name="caron.cap" horiz-adv-x="500" 
d="M428 893l-121 -135h-114l-121 135h102l77 -57l77 57h100z" />
    <glyph glyph-name="breve.cap" horiz-adv-x="500" 
d="M250 756c-96 0 -165 47 -173 134h86c12 -31 36 -50 87 -50s75 19 87 50h86c-8 -87 -77 -134 -173 -134z" />
    <glyph glyph-name="tilde.cap" horiz-adv-x="500" 
d="M329 758c-31 0 -61 11 -89 22c-23 9 -42 17 -58 17c-29 0 -41 -16 -56 -49l-67 21c21 79 51 123 112 123c29 0 61 -12 89 -23c23 -8 42 -16 58 -16c29 0 40 16 55 48l68 -20c-23 -79 -52 -123 -112 -123z" />
    <glyph glyph-name="macron.cap" horiz-adv-x="500" 
d="M70 769v90h360v-90h-360z" />
    <glyph glyph-name="dieresis.cap" horiz-adv-x="500" 
d="M290 758v112h125v-112h-125zM85 758v112h125v-112h-125z" />
    <glyph glyph-name="dotaccent.cap" horiz-adv-x="500" 
d="M186 758v112h128v-112h-128z" />
    <glyph glyph-name="ring.cap" horiz-adv-x="500" 
d="M250 756c-64 0 -119 45 -119 106c0 60 55 105 119 105s119 -45 119 -105c0 -61 -55 -106 -119 -106zM250 803c39 0 64 26 64 59c0 32 -25 58 -64 58s-64 -26 -64 -58c0 -33 25 -59 64 -59z" />
    <glyph glyph-name="uni0384.cap" horiz-adv-x="500" 
d="M153 503l13 197h120l-69 -197h-64z" />
    <glyph glyph-name="commaaccent.rot" horiz-adv-x="500" 
d="M317 803l8 -39c-49 -6 -73 -28 -70 -67h54v-102h-118v87c0 83 43 117 126 121z" />
    <glyph glyph-name="B" unicode="B" horiz-adv-x="722" 
d="M90 0v700h314c81 0 142 -21 183 -62c31 -31 47 -70 47 -116v-2c0 -85 -48 -129 -100 -156c83 -29 139 -74 139 -170v-2c0 -125 -103 -192 -259 -192h-324zM511 500v2c0 56 -43 89 -123 89h-177v-186h168c80 0 132 31 132 95zM550 205v2c0 60 -47 94 -144 94h-195v-192
h204c84 0 135 32 135 96z" />
    </font>
</defs>
</svg>
